<?xml version="1.0" encoding="UTF-8"?>
<svg version="1.1" xmlns="http://www.w3.org/2000/svg" width="80" height="80">
<path d="M0 0 C1.24716797 0.42474609 2.49433594 0.84949219 3.77929688 1.28710938 C6.8349361 2.32907064 9.88743183 3.37936513 12.9375 4.4375 C12.9375 7.4075 12.9375 10.3775 12.9375 13.4375 C12.2775 13.4375 11.6175 13.4375 10.9375 13.4375 C10.9375 28.6175 10.9375 43.7975 10.9375 59.4375 C-9.5225 59.4375 -29.9825 59.4375 -51.0625 59.4375 C-51.0625 44.2575 -51.0625 29.0775 -51.0625 13.4375 C-51.7225 13.4375 -52.3825 13.4375 -53.0625 13.4375 C-53.0625 10.4675 -53.0625 7.4975 -53.0625 4.4375 C-48.96281282 2.97127247 -44.8554103 1.52996411 -40.73950195 0.11010742 C-39.34363891 -0.37516491 -37.95000611 -0.86690671 -36.55883789 -1.36547852 C-22.26566247 -6.47860944 -14.34252181 -4.97908918 0 0 Z M-28.796875 -0.375 C-29.43490051 -0.15303955 -30.07292603 0.0689209 -30.73028564 0.29760742 C-32.75976598 1.00512469 -34.78611422 1.72117383 -36.8125 2.4375 C-38.19120816 2.91983744 -39.57011242 3.40161471 -40.94921875 3.8828125 C-44.32260908 5.06122617 -47.69324453 6.24730829 -51.0625 7.4375 C-51.0625 8.4275 -51.0625 9.4175 -51.0625 10.4375 C-49.4125 10.1075 -47.7625 9.7775 -46.0625 9.4375 C-46.0625 10.4275 -46.0625 11.4175 -46.0625 12.4375 C-47.0525 12.7675 -48.0425 13.0975 -49.0625 13.4375 C-49.0625 27.9575 -49.0625 42.4775 -49.0625 57.4375 C-47.4125 57.4375 -45.7625 57.4375 -44.0625 57.4375 C-44.0625 44.2375 -44.0625 31.0375 -44.0625 17.4375 C-28.2225 17.4375 -12.3825 17.4375 3.9375 17.4375 C3.9375 30.6375 3.9375 43.8375 3.9375 57.4375 C5.5875 57.4375 7.2375 57.4375 8.9375 57.4375 C8.9375 42.9175 8.9375 28.3975 8.9375 13.4375 C7.6175 13.1075 6.2975 12.7775 4.9375 12.4375 C4.9375 11.4475 4.9375 10.4575 4.9375 9.4375 C6.9175 9.7675 8.8975 10.0975 10.9375 10.4375 C10.9375 9.4475 10.9375 8.4575 10.9375 7.4375 C6.88344333 6.00540181 2.8266307 4.5814941 -1.23291016 3.16503906 C-2.61292467 2.6822446 -3.99216736 2.19723799 -5.37060547 1.70996094 C-7.35444555 1.009109 -9.34094401 0.3163134 -11.328125 -0.375 C-12.52211914 -0.79394531 -13.71611328 -1.21289062 -14.94628906 -1.64453125 C-20.25252287 -3.20763366 -23.72540891 -2.15446179 -28.796875 -0.375 Z M-42.0625 19.4375 C-42.0625 31.9775 -42.0625 44.5175 -42.0625 57.4375 C-40.4125 57.4375 -38.7625 57.4375 -37.0625 57.4375 C-37.0625 52.1575 -37.0625 46.8775 -37.0625 41.4375 C-34.4225 41.4375 -31.7825 41.4375 -29.0625 41.4375 C-29.0625 36.1575 -29.0625 30.8775 -29.0625 25.4375 C-23.1225 25.4375 -17.1825 25.4375 -11.0625 25.4375 C-11.0625 30.7175 -11.0625 35.9975 -11.0625 41.4375 C-8.4225 41.4375 -5.7825 41.4375 -3.0625 41.4375 C-3.0625 46.7175 -3.0625 51.9975 -3.0625 57.4375 C-1.4125 57.4375 0.2375 57.4375 1.9375 57.4375 C1.9375 44.8975 1.9375 32.3575 1.9375 19.4375 C-12.5825 19.4375 -27.1025 19.4375 -42.0625 19.4375 Z M-27.0625 27.4375 C-27.0625 32.0575 -27.0625 36.6775 -27.0625 41.4375 C-22.4425 41.4375 -17.8225 41.4375 -13.0625 41.4375 C-13.0625 36.8175 -13.0625 32.1975 -13.0625 27.4375 C-17.6825 27.4375 -22.3025 27.4375 -27.0625 27.4375 Z M-35.0625 43.4375 C-35.0625 48.0575 -35.0625 52.6775 -35.0625 57.4375 C-30.4425 57.4375 -25.8225 57.4375 -21.0625 57.4375 C-21.0625 52.8175 -21.0625 48.1975 -21.0625 43.4375 C-25.6825 43.4375 -30.3025 43.4375 -35.0625 43.4375 Z M-19.0625 43.4375 C-19.0625 48.0575 -19.0625 52.6775 -19.0625 57.4375 C-14.4425 57.4375 -9.8225 57.4375 -5.0625 57.4375 C-5.0625 52.8175 -5.0625 48.1975 -5.0625 43.4375 C-9.6825 43.4375 -14.3025 43.4375 -19.0625 43.4375 Z " fill="#000000" transform="translate(60.0625,11.5625)"/>
<path d="M0 0 C0.99 0 1.98 0 3 0 C3 0.99 3 1.98 3 3 C2.01 2.67 1.02 2.34 0 2 C0 1.34 0 0.68 0 0 Z " fill="#000000" transform="translate(15,20)"/>
<path d="M0 0 C0.66 0 1.32 0 2 0 C2 0.99 2 1.98 2 3 C1.01 3 0.02 3 -1 3 C-0.67 2.01 -0.34 1.02 0 0 Z " fill="#000000" transform="translate(58,18)"/>
<path d="M0 0 C0.99 0.33 1.98 0.66 3 1 C3 1.66 3 2.32 3 3 C2.01 3 1.02 3 0 3 C0 2.01 0 1.02 0 0 Z " fill="#000000" transform="translate(27,16)"/>
<path d="M0 0 C0.99 0 1.98 0 3 0 C2.67 0.99 2.34 1.98 2 3 C1.34 3 0.68 3 0 3 C0 2.01 0 1.02 0 0 Z " fill="#000000" transform="translate(46,15)"/>
<path d="M0 0 C0.99 0 1.98 0 3 0 C2.67 0.99 2.34 1.98 2 3 C1.34 2.67 0.68 2.34 0 2 C0 1.34 0 0.68 0 0 Z " fill="#000000" transform="translate(61,20)"/>
<path d="M0 0 C0.99 0 1.98 0 3 0 C2.67 0.99 2.34 1.98 2 3 C1.34 2.67 0.68 2.34 0 2 C0 1.34 0 0.68 0 0 Z " fill="#000000" transform="translate(19,19)"/>
<path d="M0 0 C0.66 0.33 1.32 0.66 2 1 C2 1.66 2 2.32 2 3 C1.01 3 0.02 3 -1 3 C-0.67 2.01 -0.34 1.02 0 0 Z " fill="#000000" transform="translate(24,17)"/>
<path d="M0 0 C0.99 0.33 1.98 0.66 3 1 C2.67 1.66 2.34 2.32 2 3 C1.34 3 0.68 3 0 3 C0 2.01 0 1.02 0 0 Z " fill="#000000" transform="translate(50,16)"/>
<path d="M0 0 C0.99 0.33 1.98 0.66 3 1 C2.67 1.66 2.34 2.32 2 3 C1.34 3 0.68 3 0 3 C0 2.01 0 1.02 0 0 Z " fill="#000000" transform="translate(31,15)"/>
<path d="M0 0 C0.99 0 1.98 0 3 0 C2.67 0.99 2.34 1.98 2 3 C1.34 2.67 0.68 2.34 0 2 C0 1.34 0 0.68 0 0 Z " fill="#000000" transform="translate(42,14)"/>
<path d="M0 0 C0.66 0 1.32 0 2 0 C2 0.99 2 1.98 2 3 C1.01 2.67 0.02 2.34 -1 2 C-0.67 1.34 -0.34 0.68 0 0 Z " fill="#000000" transform="translate(35,14)"/>
<path d="M0 0 C0.99 0 1.98 0 3 0 C2.67 0.99 2.34 1.98 2 3 C1.34 2.67 0.68 2.34 0 2 C0 1.34 0 0.68 0 0 Z " fill="#000000" transform="translate(38,13)"/>
<path d="M0 0 C0.66 0 1.32 0 2 0 C2 0.99 2 1.98 2 3 C1.34 3 0.68 3 0 3 C0 2.01 0 1.02 0 0 Z " fill="#000000" transform="translate(54,17)"/>
</svg>
