<?xml version="1.0" encoding="UTF-8"?>
<svg version="1.1" xmlns="http://www.w3.org/2000/svg" width="50" height="50">
<path d="M0 0 C0 0.66 0 1.32 0 2 C0.928125 2.1546875 0.928125 2.1546875 1.875 2.3125 C4 3 4 3 6 6 C6.265625 9.25 6.265625 9.25 6.25 13 C6.25515625 14.2375 6.2603125 15.475 6.265625 16.75 C6 20 6 20 4 23 C9.61 23 15.22 23 21 23 C21 30.59 21 38.18 21 46 C13.08 46 5.16 46 -3 46 C-3 44.68 -3 43.36 -3 42 C-9.93 42 -16.86 42 -24 42 C-23 35 -23 35 -20.3125 32.75 C-17.22753995 31.12020978 -14.15024516 29.50011674 -11 28 C-11.54723683 24.62537285 -12.0549 22.91765 -14 20 C-14.3359375 16.8203125 -14.3359375 16.8203125 -14.375 13.125 C-14.40335938 11.91070312 -14.43171875 10.69640625 -14.4609375 9.4453125 C-13.92423923 5.43372036 -12.81933478 3.84029638 -10 1 C-6.78548731 -0.60725635 -3.56387464 -0.05748185 0 0 Z M-9.25 4.3125 C-12.00655066 8.54577423 -11.6218882 13.08274447 -11 18 C-10.3374139 19.33536583 -9.67092309 20.66880339 -9 22 C-8.8046875 24.359375 -8.8046875 24.359375 -8.875 26.75 C-8.89304687 27.54921875 -8.91109375 28.3484375 -8.9296875 29.171875 C-8.96449219 30.07679687 -8.96449219 30.07679687 -9 31 C-9.69867188 31.31453125 -10.39734375 31.6290625 -11.1171875 31.953125 C-12.02726562 32.38109375 -12.93734375 32.8090625 -13.875 33.25 C-14.77992187 33.66765625 -15.68484375 34.0853125 -16.6171875 34.515625 C-19.42339572 35.9756115 -19.42339572 35.9756115 -21 40 C-15.06 40 -9.12 40 -3 40 C-3 34.39 -3 28.78 -3 23 C-1.68 22.67 -0.36 22.34 1 22 C3.68795708 18.20929129 3.52513803 14.06903188 3.453125 9.57421875 C3.20046029 6.67332349 3.20046029 6.67332349 0.25 4.3125 C-3.4416578 2.8216382 -5.70709575 2.24580586 -9.25 4.3125 Z M-1 25 C-1 31.27 -1 37.54 -1 44 C5.6 44 12.2 44 19 44 C19 37.73 19 31.46 19 25 C12.4 25 5.8 25 -1 25 Z " fill="#000000" transform="translate(29,4)"/>
<path d="M0 0 C3.3 0 6.6 0 10 0 C10 0.66 10 1.32 10 2 C6.7 2 3.4 2 0 2 C0 1.34 0 0.68 0 0 Z " fill="#000000" transform="translate(33,31)"/>
</svg>
