<?xml version="1.0" encoding="UTF-8"?>
<svg version="1.1" xmlns="http://www.w3.org/2000/svg" width="50" height="50">
<path d="M0 0 C1.98 0 3.96 0 6 0 C6.33 1.32 6.66 2.64 7 4 C8.65 4 10.3 4 12 4 C12.25394531 4.51949219 12.50789062 5.03898438 12.76953125 5.57421875 C16.57791578 13.82335264 16.57791578 13.82335264 23 20 C22.95875 18.72125 22.9175 17.4425 22.875 16.125 C22.8046875 13.9453125 22.8046875 13.9453125 23 12 C25 10 25 10 26.875 9.734375 C27.57625 9.73953125 28.2775 9.7446875 29 9.75 C29.70125 9.74484375 30.4025 9.7396875 31.125 9.734375 C33 10 33 10 35 12 C35.49425287 17.18965517 35.49425287 17.18965517 35 20 C33 22 33 22 31 23 C31.71800781 23.50144531 32.43601563 24.00289062 33.17578125 24.51953125 C36.61794097 27.54272824 38.76481201 30.83538945 41.1875 34.6875 C43.90112423 39.55200455 43.90112423 39.55200455 48 43 C48 45.31 48 47.62 48 50 C34.47 50 20.94 50 7 50 C7 47.69 7 45.38 7 43 C8.98 43 10.96 43 13 43 C15.28183029 33.70627655 15.28183029 33.70627655 13.90234375 24.6953125 C12.33859042 23.04132358 12.33859042 23.04132358 10.60546875 21.59375 C7.72641509 18.73571133 6.99322507 14.84221276 6 11 C5.34 12.32 4.68 13.64 4 15 C2.68 15 1.36 15 0 15 C-2.47717167 11.28424249 -2.30345742 9.40013262 -2 5 C-1 2.0625 -1 2.0625 0 0 Z M2 3 C1.67 5.31 1.34 7.62 1 10 C3.35953094 7.64046906 3.49141413 6.22104383 4 3 C3.34 3 2.68 3 2 3 Z M9 7 C9.60938394 12.95703889 10.6013672 16.94438186 14.6875 21.4375 C16.91793498 24.04198308 17.937761 25.35415759 18.26953125 28.796875 C18.00866557 31.59456493 17.5778182 34.25135095 17 37 C16.67 38.98 16.34 40.96 16 43 C20.29 43 24.58 43 29 43 C29.66 39.37 30.32 35.74 31 32 C34.63559661 35.43361902 37.36113346 38.7973607 40 43 C40.99 42.505 40.99 42.505 42 42 C40.56635564 39.89311385 39.12829067 37.78949074 37.6875 35.6875 C37.28337891 35.09259766 36.87925781 34.49769531 36.46289062 33.88476562 C31.80799484 27.1105677 28.60243277 25.2789532 20.91015625 22.4765625 C16.00207972 19.98629011 13.82084342 16.14273247 11.75 11.1875 C11.41484375 10.39730469 11.0796875 9.60710938 10.734375 8.79296875 C10.37085938 7.90544922 10.37085938 7.90544922 10 7 C9.67 7 9.34 7 9 7 Z M27 13 C26.67 14.65 26.34 16.3 26 18 C28.475 18.495 28.475 18.495 31 19 C31.33 17.35 31.66 15.7 32 14 C30.35 13.67 28.7 13.34 27 13 Z M32 38 C32 39.65 32 41.3 32 43 C33.32 43 34.64 43 36 43 C34.6910428 39.87802522 34.6910428 39.87802522 32 38 Z M9 45 C9 45.99 9 46.98 9 48 C21.21 48 33.42 48 46 48 C46 47.01 46 46.02 46 45 C33.79 45 21.58 45 9 45 Z " fill="#000000" transform="translate(2,0)"/>
</svg>
