<?xml version="1.0" encoding="UTF-8"?>
<svg version="1.1" xmlns="http://www.w3.org/2000/svg" width="64" height="64">
<path d="M0 0 C0.66 -0.0103125 1.32 -0.020625 2 -0.03125 C5.04148806 0.77664527 6.16525828 1.95084557 8 4.5 C8.2911521 7.23682971 8.38322418 9.53940039 8.25 12.25 C8.23195313 12.94738281 8.21390625 13.64476562 8.1953125 14.36328125 C8.14838554 16.07611539 8.07664605 17.78823824 8 19.5 C9.98 20.16 11.96 20.82 14 21.5 C14.33 20.18 14.66 18.86 15 17.5 C14.34 17.17 13.68 16.84 13 16.5 C13 14.52 13 12.54 13 10.5 C13.66 10.17 14.32 9.84 15 9.5 C14.95875 8.71625 14.9175 7.9325 14.875 7.125 C15 4.5 15 4.5 17 2.5 C19.625 2.375 19.625 2.375 22 2.5 C22.33 1.84 22.66 1.18 23 0.5 C24.98 0.5 26.96 0.5 29 0.5 C29.495 1.49 29.495 1.49 30 2.5 C30.78375 2.45875 31.5675 2.4175 32.375 2.375 C35 2.5 35 2.5 37 4.5 C37.125 7.125 37.125 7.125 37 9.5 C37.66 9.83 38.32 10.16 39 10.5 C39 12.48 39 14.46 39 16.5 C38.01 16.995 38.01 16.995 37 17.5 C37.04125 18.28375 37.0825 19.0675 37.125 19.875 C37 22.5 37 22.5 35 24.5 C32.375 24.625 32.375 24.625 30 24.5 C29.67 25.16 29.34 25.82 29 26.5 C27.02 26.5 25.04 26.5 23 26.5 C22.505 25.51 22.505 25.51 22 24.5 C20.68 24.83 19.36 25.16 18 25.5 C18.66 28.47 19.32 31.44 20 34.5 C19.01 34.83 18.02 35.16 17 35.5 C16.83886719 34.82453125 16.67773438 34.1490625 16.51171875 33.453125 C14.76562472 27.69507547 14.76562472 27.69507547 10.28515625 23.9453125 C7.53969979 22.97715926 4.83554707 22.15510915 2 21.5 C2.31453125 20.9328125 2.6290625 20.365625 2.953125 19.78125 C4.03089727 17.43267163 4.45226274 15.55703763 4.75 13 C4.84796875 12.2471875 4.9459375 11.494375 5.046875 10.71875 C4.9926939 8.15417788 4.29270519 6.68765493 3 4.5 C1.02 4.5 -0.96 4.5 -3 4.5 C-4.81426728 7.57029847 -5.20901169 9.47285751 -4.75 13 C-4.66234375 13.7528125 -4.5746875 14.505625 -4.484375 15.28125 C-3.97595134 17.6101584 -3.15218067 19.42229716 -2 21.5 C-2.74765625 21.67273438 -3.4953125 21.84546875 -4.265625 22.0234375 C-10.35274881 23.6560834 -10.35274881 23.6560834 -14.62109375 27.9921875 C-15.58291371 30.47953144 -16.38147703 32.90715171 -17 35.5 C-17.99 35.17 -18.98 34.84 -20 34.5 C-18.69585799 26.46923077 -18.69585799 26.46923077 -16.25 23.0625 C-13.61670904 21.23382572 -11.04385604 20.46056113 -8 19.5 C-8.04640625 18.46359375 -8.0928125 17.4271875 -8.140625 16.359375 C-8.17815275 14.98961221 -8.21455184 13.61981818 -8.25 12.25 C-8.28351562 11.56808594 -8.31703125 10.88617188 -8.3515625 10.18359375 C-8.41797914 6.7631366 -8.25594838 4.85560969 -6.234375 2.046875 C-3.88593589 0.42103254 -2.8158469 -0.04399761 0 0 Z M25 3.5 C24.525625 3.995 24.05125 4.49 23.5625 5 C22 6.5 22 6.5 19 6.5 C18.87625 7.304375 18.7525 8.10875 18.625 8.9375 C18.41875 9.783125 18.2125 10.62875 18 11.5 C17.01 11.995 17.01 11.995 16 12.5 C16 13.16 16 13.82 16 14.5 C16.495 14.974375 16.99 15.44875 17.5 15.9375 C19 17.5 19 17.5 19 20.5 C19.804375 20.62375 20.60875 20.7475 21.4375 20.875 C22.7059375 21.184375 22.7059375 21.184375 24 21.5 C24.33 22.16 24.66 22.82 25 23.5 C25.66 23.5 26.32 23.5 27 23.5 C27.474375 23.005 27.94875 22.51 28.4375 22 C30 20.5 30 20.5 33 20.5 C33.12375 19.695625 33.2475 18.89125 33.375 18.0625 C33.684375 16.7940625 33.684375 16.7940625 34 15.5 C34.66 15.17 35.32 14.84 36 14.5 C36 13.84 36 13.18 36 12.5 C35.505 12.025625 35.01 11.55125 34.5 11.0625 C33 9.5 33 9.5 33 6.5 C32.195625 6.37625 31.39125 6.2525 30.5625 6.125 C29.716875 5.91875 28.87125 5.7125 28 5.5 C27.67 4.84 27.34 4.18 27 3.5 C26.34 3.5 25.68 3.5 25 3.5 Z " fill="#000000" transform="translate(23,1.5)"/>
<path d="M0 0 C19.8 0 39.6 0 60 0 C60 7.92 60 15.84 60 24 C40.2 24 20.4 24 0 24 C0 16.08 0 8.16 0 0 Z M2 3 C1.9016279 4.33043625 1.86921408 5.66593344 1.8671875 7 C1.86589844 7.804375 1.86460938 8.60875 1.86328125 9.4375 C1.86714844 10.283125 1.87101563 11.12875 1.875 12 C1.87113281 12.845625 1.86726562 13.69125 1.86328125 14.5625 C1.86457031 15.366875 1.86585937 16.17125 1.8671875 17 C1.86831543 17.7425 1.86944336 18.485 1.87060547 19.25 C1.81057784 21.02825811 1.81057784 21.02825811 3 22 C5.20650656 22.10012401 7.41622386 22.1308118 9.625 22.1328125 C10.28709473 22.13376923 10.94918945 22.13472595 11.63134766 22.13571167 C13.03352961 22.13639326 14.4357147 22.13454042 15.83789062 22.13037109 C17.99095713 22.12502246 20.14381502 22.1303167 22.296875 22.13671875 C23.65625046 22.13605796 25.0156258 22.13477679 26.375 22.1328125 C27.62023437 22.13168457 28.86546875 22.13055664 30.1484375 22.12939453 C32.89905431 22.32572127 32.89905431 22.32572127 34 21 C34.0983721 19.66956375 34.13078592 18.33406656 34.1328125 17 C34.13410156 16.195625 34.13539062 15.39125 34.13671875 14.5625 C34.13091797 13.2940625 34.13091797 13.2940625 34.125 12 C34.12886719 11.154375 34.13273437 10.30875 34.13671875 9.4375 C34.13478516 8.2309375 34.13478516 8.2309375 34.1328125 7 C34.13112061 5.88625 34.13112061 5.88625 34.12939453 4.75 C34.18942216 2.97174189 34.18942216 2.97174189 33 2 C30.79349344 1.89987599 28.58377614 1.8691882 26.375 1.8671875 C25.38185791 1.86575241 25.38185791 1.86575241 24.36865234 1.86428833 C22.96647039 1.86360674 21.5642853 1.86545958 20.16210938 1.86962891 C18.00904287 1.87497754 15.85618498 1.8696833 13.703125 1.86328125 C12.34374954 1.86394204 10.9843742 1.86522321 9.625 1.8671875 C7.75714844 1.86887939 7.75714844 1.86887939 5.8515625 1.87060547 C3.10094569 1.67427873 3.10094569 1.67427873 2 3 Z M36 2 C36 8.6 36 15.2 36 22 C37.32 22 38.64 22 40 22 C40 15.4 40 8.8 40 2 C38.68 2 37.36 2 36 2 Z M42 2 C42 8.6 42 15.2 42 22 C43.32 22 44.64 22 46 22 C46 15.4 46 8.8 46 2 C44.68 2 43.36 2 42 2 Z M48 2 C48 8.6 48 15.2 48 22 C49.32 22 50.64 22 52 22 C52 15.4 52 8.8 52 2 C50.68 2 49.36 2 48 2 Z M54 2 C54 8.6 54 15.2 54 22 C55.32 21.67 56.64 21.34 58 21 C58 15.06 58 9.12 58 3 C56.68 2.67 55.36 2.34 54 2 Z " fill="#000000" transform="translate(2,38)"/>
<path d="M0 0 C0.70125 0.00515625 1.4025 0.0103125 2.125 0.015625 C2.82625 0.01046875 3.5275 0.0053125 4.25 0 C6.125 0.265625 6.125 0.265625 8.125 2.265625 C8.390625 4.140625 8.390625 4.140625 8.375 6.265625 C8.38015625 6.966875 8.3853125 7.668125 8.390625 8.390625 C8.125 10.265625 8.125 10.265625 6.125 12.265625 C4.25 12.53125 4.25 12.53125 2.125 12.515625 C1.42375 12.52078125 0.7225 12.5259375 0 12.53125 C-1.875 12.265625 -1.875 12.265625 -3.875 10.265625 C-4.140625 8.390625 -4.140625 8.390625 -4.125 6.265625 C-4.13015625 5.564375 -4.1353125 4.863125 -4.140625 4.140625 C-3.75603481 1.4258707 -2.7147543 0.38459019 0 0 Z M0.125 3.265625 C-0.205 4.915625 -0.535 6.565625 -0.875 8.265625 C1.6 8.760625 1.6 8.760625 4.125 9.265625 C4.455 7.615625 4.785 5.965625 5.125 4.265625 C3.475 3.935625 1.825 3.605625 0.125 3.265625 Z " fill="#000000" transform="translate(46.875,8.734375)"/>
<path d="M0 0 C4.49968309 -0.36483917 4.49968309 -0.36483917 6.64453125 1.19921875 C8.42722679 3.56758371 8.40125032 5.05996414 8.375 8 C8.38273437 8.86625 8.39046875 9.7325 8.3984375 10.625 C7.92744173 13.4325042 7.27928589 14.33790791 5 16 C2.3125 16.1875 2.3125 16.1875 0 16 C0 15.34 0 14.68 0 14 C0.99 14 1.98 14 3 14 C3.33 13.01 3.66 12.02 4 11 C4.66 11 5.32 11 6 11 C6 9.02 6 7.04 6 5 C5.01 4.67 4.02 4.34 3 4 C3 3.34 3 2.68 3 2 C2.01 2 1.02 2 0 2 C0 1.34 0 0.68 0 0 Z " fill="#000000" transform="translate(26,42)"/>
<path d="M0 0 C0 0.66 0 1.32 0 2 C-0.99 2 -1.98 2 -3 2 C-3.33 2.99 -3.66 3.98 -4 5 C-4.66 5 -5.32 5 -6 5 C-6 6.98 -6 8.96 -6 11 C-5.01 11.33 -4.02 11.66 -3 12 C-3 12.66 -3 13.32 -3 14 C-2.01 14 -1.02 14 0 14 C0 14.66 0 15.32 0 16 C-4.49968309 16.36483917 -4.49968309 16.36483917 -6.64453125 14.80078125 C-8.42722679 12.43241629 -8.40125032 10.94003586 -8.375 8 C-8.38273438 7.13375 -8.39046875 6.2675 -8.3984375 5.375 C-7.54817256 0.30675411 -4.71639506 -0.38241041 0 0 Z " fill="#000000" transform="translate(14,42)"/>
<path d="M0 0 C3 0.125 3 0.125 4 1.125 C4.125 4.125 4.125 4.125 4 7.125 C3 8.125 3 8.125 0 8.25 C-3 8.125 -3 8.125 -4 7.125 C-4.125 4.125 -4.125 4.125 -4 1.125 C-3 0.125 -3 0.125 0 0 Z M-1 3.125 C-1 3.785 -1 4.445 -1 5.125 C-0.34 5.125 0.32 5.125 1 5.125 C1 4.465 1 3.805 1 3.125 C0.34 3.125 -0.32 3.125 -1 3.125 Z " fill="#000000" transform="translate(20,45.875)"/>
<path d="M0 0 C0.66 0 1.32 0 2 0 C2 2.64 2 5.28 2 8 C1.34 8 0.68 8 0 8 C0 5.36 0 2.72 0 0 Z " fill="#000000" transform="translate(32,28)"/>
<path d="M0 0 C0.66 0 1.32 0 2 0 C2 2.64 2 5.28 2 8 C1.34 8 0.68 8 0 8 C0 5.36 0 2.72 0 0 Z " fill="#000000" transform="translate(12,28)"/>
<path d="M0 0 C0.99 0 1.98 0 3 0 C3 0.66 3 1.32 3 2 C2.01 2 1.02 2 0 2 C0 1.34 0 0.68 0 0 Z " fill="#000000" transform="translate(26,49)"/>
<path d="M0 0 C0.99 0 1.98 0 3 0 C3 0.66 3 1.32 3 2 C2.01 2 1.02 2 0 2 C0 1.34 0 0.68 0 0 Z " fill="#000000" transform="translate(11,49)"/>
</svg>
