<?xml version="1.0" encoding="UTF-8"?>
<svg version="1.1" xmlns="http://www.w3.org/2000/svg" width="30" height="30">
<path d="M0 0 C2.79827632 1.11833382 5.39726245 2.48567997 8 4 C8 4.66 8 5.32 8 6 C8.556875 5.67 9.11375 5.34 9.6875 5 C12.30284522 3.8690399 14.1806646 3.84337026 17 4 C16.9375 5.75 16.9375 5.75 16 8 C11.56009105 11.13405338 8.55056003 12.72398609 3 12 C2.195625 11.67 1.39125 11.34 0.5625 11 C-2.71181355 9.7222191 -5.51768358 9.86343857 -9 10 C-9 7.03 -9 4.06 -9 1 C-5.87143524 -0.56428238 -3.47287869 -0.28007086 0 0 Z " fill="#000000" transform="translate(11,15)"/>
<path d="M0 0 C0.74926071 3.66305234 1.2380014 6.42355152 0 10 C-3.66305234 10.74926071 -6.42355152 11.2380014 -10 10 C-10.74926071 6.33694766 -11.2380014 3.57644848 -10 0 C-6.42355152 -1.2380014 -3.66305234 -0.74926071 0 0 Z M-7 3 C-7 4.32 -7 5.64 -7 7 C-5.68 7 -4.36 7 -3 7 C-3 5.68 -3 4.36 -3 3 C-4.32 3 -5.64 3 -7 3 Z " fill="#000000" transform="translate(19,3)"/>
<path d="M0 0 C2.625 0.375 2.625 0.375 5 1 C5.625 3.375 5.625 3.375 6 6 C5.34 6.66 4.68 7.32 4 8 C1.375 7.625 1.375 7.625 -1 7 C-1.625 4.625 -1.625 4.625 -2 2 C-1.34 1.34 -0.68 0.68 0 0 Z M1 3 C1 3.66 1 4.32 1 5 C1.66 5 2.32 5 3 5 C3 4.34 3 3.68 3 3 C2.34 3 1.68 3 1 3 Z " fill="#000000" transform="translate(22,9)"/>
<path d="M0 0 C0.66 0 1.32 0 2 0 C2 0.66 2 1.32 2 2 C1.34 2 0.68 2 0 2 C0 1.34 0 0.68 0 0 Z " fill="#000000" transform="translate(13,7)"/>
</svg>
