<?xml version="1.0" encoding="UTF-8"?>
<svg version="1.1" xmlns="http://www.w3.org/2000/svg" width="405" height="279">
<path d="M0 0 C1.05106934 0.01135986 2.10213867 0.02271973 3.18505859 0.03442383 C12.27969444 0.26231889 20.24653082 1.33152584 27.6875 7 C32.72421101 12.30180107 32.54717298 17.34300471 32.3984375 24.40625 C32.10953518 29.62130723 30.53853419 34.37209206 28.96875 39.328125 C27.71397472 43.71983847 27.47754945 46.9666332 28.0625 51.5 C30.14112669 54.87776838 31.78876899 55.41201503 35.5625 56.625 C38.04826182 57.16497822 40.51962708 57.56478966 43.0390625 57.921875 C54.07228261 59.50978261 54.07228261 59.50978261 58.0625 63.5 C59.11827337 66.20153773 59.58074016 68.60944098 60.0625 71.5 C60.91485229 71.25878418 60.91485229 71.25878418 61.78442383 71.01269531 C65.73511628 70.12356723 69.71561204 70.27364476 73.75 70.25 C74.61044922 70.229375 75.47089844 70.20875 76.35742188 70.1875 C82.45043574 70.15076744 87.41567873 71.22376197 93.0625 73.5 C93.05726318 72.44498291 93.05202637 71.38996582 93.04663086 70.30297852 C93.02858099 66.4024337 93.01706805 62.5018926 93.00756836 58.60131836 C93.0025281 56.91055684 92.99569595 55.21979971 92.98706055 53.52905273 C92.97498143 51.10399293 92.96926877 48.67899056 92.96484375 46.25390625 C92.95968246 45.49348526 92.95452118 44.73306427 92.94920349 43.94960022 C92.94900762 42.1326743 93.00052723 40.31586873 93.0625 38.5 C93.3925 38.17 93.7225 37.84 94.0625 37.5 C106.2725 37.5 118.4825 37.5 131.0625 37.5 C131.0625 96.9 131.0625 156.3 131.0625 217.5 C102.0625 217.5 102.0625 217.5 98.0625 215.5 C96.02718603 216.15121175 96.02718603 216.15121175 93.9375 217.375 C82.98063749 222.1332239 70.20091528 220.26032543 59.2734375 216.375 C58.54382813 216.08625 57.81421875 215.7975 57.0625 215.5 C56.92328125 216.29019531 56.7840625 217.08039063 56.640625 217.89453125 C55.98490994 220.84967951 55.45315087 221.70701185 53.0625 223.5 C49.38989649 225.22336292 46.36604859 225.78437812 42.32421875 225.9140625 C41.25751953 225.95273438 40.19082031 225.99140625 39.09179688 226.03125 C37.98900391 226.0621875 36.88621094 226.093125 35.75 226.125 C34.62787109 226.16367188 33.50574219 226.20234375 32.34960938 226.2421875 C29.58740148 226.33622011 26.825196 226.42187341 24.0625 226.5 C21.8043479 233.2744563 23.58399258 239.43464904 25.4375 246.0625 C25.65921875 246.88685547 25.8809375 247.71121094 26.109375 248.56054688 C27.04423669 252.00028797 28.01935756 255.37694768 29.19921875 258.7421875 C30.63382946 263.32515204 30.77067831 267.75954109 30.0625 272.5 C27.26628247 276.41470454 24.56432959 278.0376096 20.0625 279.5 C15.56780507 279.89021573 11.07201153 279.87161845 6.56274414 279.87060547 C4.3984349 279.87495293 2.2362112 279.91123316 0.07226562 279.94921875 C-8.47782092 280.01909403 -16.53224738 279.61080361 -23.60839844 274.22924805 C-27.52784851 270.23897283 -27.85500538 265.81170791 -27.9375 260.5 C-27.54913799 257.32999096 -26.83262035 254.28422465 -26.0625 251.1875 C-22.27502357 237.1712875 -22.27502357 237.1712875 -24.9375 223.5 C-36.87132602 219.52205799 -52.66772986 222.92779921 -64.80053711 224.43261719 C-72.55473078 225.3674058 -80.12881768 225.67413539 -87.9375 225.5 C-88.08823765 219.70643129 -87.56141563 214.43611121 -86.5 208.75 C-82.69939317 188.00319232 -82.69939317 188.00319232 -85.9375 167.5 C-87.86074861 165.09593924 -89.21589067 163.86080466 -91.9375 162.5 C-98.95585104 161.83158562 -104.68056352 163.10543457 -111.375 165 C-125.47734597 168.93157976 -125.47734597 168.93157976 -131.9375 167.5 C-137.56176854 164.02970664 -139.37379925 157.66350843 -140.9375 151.5 C-141.40035682 146.81315522 -141.47445838 142.19839237 -141.40405273 137.49267578 C-141.37494003 135.37062905 -141.3835175 133.2510702 -141.39648438 131.12890625 C-141.37248587 114.54666323 -141.37248587 114.54666323 -136.52124023 108.83154297 C-131.95089645 104.98898786 -124.72118797 106.04045445 -119.06201172 106.29443359 C-115.53947115 106.63527238 -112.21160014 107.54480252 -108.8125 108.5 C-102.01425355 110.39797497 -94.97112717 111.9515528 -87.9375 110.5 C-84.08583183 106.94203202 -84.05065638 102.50786782 -83.76953125 97.51953125 C-83.71242431 88.14257227 -84.62229395 79.01188479 -85.69384766 69.70751953 C-86.21548509 64.98142163 -86.57792291 60.24074007 -86.9375 55.5 C-80.20503106 55.22644596 -73.93528431 55.88967126 -67.296875 56.98828125 C-46.86694548 60.27547621 -46.86694548 60.27547621 -27.55078125 55.0078125 C-25.7217605 52.71344481 -25.7217605 52.71344481 -26.07568359 50.49023438 C-26.64541308 47.98867558 -27.35126819 45.57111116 -28.125 43.125 C-28.62070924 41.45117659 -29.11425037 39.77670935 -29.60546875 38.1015625 C-29.96064575 36.90611816 -29.96064575 36.90611816 -30.32299805 35.68652344 C-32.50968222 27.90585459 -33.77129288 18.37134052 -30.25 10.9375 C-21.8186472 2.0503984 -11.99221849 -0.22022599 0 0 Z M84.0625 97.5 C83.86360184 100.5023537 83.78986152 103.41250098 83.80371094 106.41601562 C83.8002063 107.3396843 83.79670166 108.26335297 83.79309082 109.2150116 C83.78426324 112.2788334 83.79012629 115.3424257 83.796875 118.40625 C83.79552865 120.52852422 83.79358836 122.65079813 83.79107666 124.77307129 C83.788124 129.22520885 83.7924276 133.67726627 83.80175781 138.12939453 C83.81315239 143.84631987 83.80659368 149.56305745 83.79461288 155.27997589 C83.78739812 159.66360905 83.78968045 164.04719743 83.79486847 168.43083191 C83.79620603 170.53924074 83.79455356 172.6476536 83.78990936 174.75605774 C83.78485044 177.69881006 83.79254546 180.64125504 83.80371094 183.58398438 C83.79966248 184.46197189 83.79561401 185.33995941 83.79144287 186.24455261 C83.61009699 190.85124979 83.61009699 190.85124979 86.0625 194.5 C88.5625 194.83333333 88.5625 194.83333333 91.0625 194.5 C93.72177413 191.84072587 93.3080319 189.86177371 93.33355713 186.24455261 C93.32950867 185.36656509 93.32546021 184.48857758 93.32128906 183.58398438 C93.3247937 182.6603157 93.32829834 181.73664703 93.33190918 180.7849884 C93.34073676 177.7211666 93.33487371 174.6575743 93.328125 171.59375 C93.32947135 169.47147578 93.33141164 167.34920187 93.33392334 165.22692871 C93.336876 160.77479115 93.3325724 156.32273373 93.32324219 151.87060547 C93.31184761 146.15368013 93.31840632 140.43694255 93.33038712 134.72002411 C93.33760188 130.33639095 93.33531955 125.95280257 93.33013153 121.56916809 C93.32879397 119.46075926 93.33044644 117.3523464 93.33509064 115.24394226 C93.34014956 112.30118994 93.33245454 109.35874496 93.32128906 106.41601562 C93.32533752 105.53802811 93.32938599 104.66004059 93.33355713 103.75544739 C93.51490301 99.14875021 93.51490301 99.14875021 91.0625 95.5 C87.0950491 95.06530472 87.0950491 95.06530472 84.0625 97.5 Z M44.0625 111.5 C34.28803777 111.97252235 26.4013674 114.24700527 19.609375 121.4296875 C13.90391704 129.06578023 14.48208189 138.86818562 15.2734375 147.91015625 C16.40691826 155.05108503 20.29612166 161.36135138 25.84375 165.984375 C31.68690222 169.4011335 38.45478847 169.29854538 45.0625 169.5 C46.3304188 166.96416241 46.1963601 165.186227 46.20776367 162.34765625 C46.21414352 161.27314209 46.22052338 160.19862793 46.22709656 159.09155273 C46.22820938 157.92696533 46.2293222 156.76237793 46.23046875 155.5625 C46.23379715 154.37148682 46.23712555 153.18047363 46.24055481 151.95336914 C46.2456246 149.4314818 46.24796312 146.90958774 46.24780273 144.38769531 C46.24999086 140.51616455 46.26815084 136.64491786 46.28710938 132.7734375 C46.29004287 130.32812598 46.29202796 127.8828131 46.29296875 125.4375 C46.30015427 124.2729126 46.30733978 123.1083252 46.31474304 121.90844727 C46.31166641 120.83393311 46.30858978 119.75941895 46.30541992 118.65234375 C46.30684494 117.70351318 46.30826996 116.75468262 46.30973816 115.77709961 C46.28155181 113.30128571 46.28155181 113.30128571 44.0625 111.5 Z " fill="#C0E090" transform="translate(140.9375,-0.5)"/>
<path d="M0 0 C12.21 0 24.42 0 37 0 C37 59.4 37 118.8 37 180 C8 180 8 180 4 178 C1.96468603 178.65121175 1.96468603 178.65121175 -0.125 179.875 C-10.65973968 184.45667673 -23.36656818 182.94283362 -33.91015625 179.16796875 C-36 178 -36 178 -37 175 C-38.66035188 173.48013943 -40.41906169 172.15403187 -42.2109375 170.79296875 C-46.59281861 166.40152021 -47.38160611 161.71394163 -47.4765625 155.703125 C-47.49214203 155.02828064 -47.50772156 154.35343628 -47.52377319 153.65814209 C-47.57094579 151.52210508 -47.59895235 149.38638979 -47.625 147.25 C-47.66153789 145.09955304 -47.70213127 142.94928675 -47.74765015 140.79901123 C-47.7871676 138.85866649 -47.81502033 136.91809464 -47.84228516 134.97753906 C-47.79746867 132.07233125 -47.79746867 132.07233125 -49 130 C-49.06704748 128.34432719 -49.06832354 126.68579765 -49.03759766 125.02905273 C-49.02072906 123.98873398 -49.00386047 122.94841522 -48.98648071 121.87657166 C-48.9625827 120.74038895 -48.93868469 119.60420624 -48.9140625 118.43359375 C-48.88220352 116.66230858 -48.88220352 116.66230858 -48.84970093 114.85523987 C-48.80329581 112.33565715 -48.75435691 109.81612006 -48.703125 107.29663086 C-48.62693584 103.53312454 -48.55881462 99.76954568 -48.4921875 96.00585938 C-48.38028388 89.87318666 -48.23596336 83.74175881 -48.08068848 77.61004639 C-48.00062408 74.02792188 -47.95503865 70.44651882 -47.91308594 66.86376953 C-47.86760717 64.62920972 -47.8211063 62.39467041 -47.7734375 60.16015625 C-47.77010406 59.14851913 -47.76677063 58.13688202 -47.76333618 57.09458923 C-47.58471895 50.52401679 -46.25152939 46.08895779 -42 41 C-39.375 38.6875 -39.375 38.6875 -37 37 C-36.484375 36.443125 -35.96875 35.88625 -35.4375 35.3125 C-31.59987449 31.80858106 -25.16951923 32.77846605 -20.3125 32.75 C-19.02182617 32.7190625 -19.02182617 32.7190625 -17.70507812 32.6875 C-11.61206426 32.65076744 -6.64682127 33.72376197 -1 36 C-1.00523682 34.94498291 -1.01047363 33.88996582 -1.01586914 32.80297852 C-1.03391901 28.9024337 -1.04543195 25.0018926 -1.05493164 21.10131836 C-1.0599719 19.41055684 -1.06680405 17.71979971 -1.07543945 16.02905273 C-1.08751857 13.60399293 -1.09323123 11.17899056 -1.09765625 8.75390625 C-1.10281754 7.99348526 -1.10797882 7.23306427 -1.11329651 6.44960022 C-1.11349238 4.6326743 -1.06197277 2.81586873 -1 1 C-0.67 0.67 -0.34 0.34 0 0 Z M-10 60 C-10.19889816 63.0023537 -10.27263848 65.91250098 -10.25878906 68.91601562 C-10.2622937 69.8396843 -10.26579834 70.76335297 -10.26940918 71.7150116 C-10.27823676 74.7788334 -10.27237371 77.8424257 -10.265625 80.90625 C-10.26697135 83.02852422 -10.26891164 85.15079813 -10.27142334 87.27307129 C-10.274376 91.72520885 -10.2700724 96.17726627 -10.26074219 100.62939453 C-10.24934761 106.34631987 -10.25590632 112.06305745 -10.26788712 117.77997589 C-10.27510188 122.16360905 -10.27281955 126.54719743 -10.26763153 130.93083191 C-10.26629397 133.03924074 -10.26794644 135.1476536 -10.27259064 137.25605774 C-10.27764956 140.19881006 -10.26995454 143.14125504 -10.25878906 146.08398438 C-10.26283752 146.96197189 -10.26688599 147.83995941 -10.27105713 148.74455261 C-10.45240301 153.35124979 -10.45240301 153.35124979 -8 157 C-5.5 157.33333333 -5.5 157.33333333 -3 157 C-0.34072587 154.34072587 -0.7544681 152.36177371 -0.72894287 148.74455261 C-0.73299133 147.86656509 -0.73703979 146.98857758 -0.74121094 146.08398438 C-0.7377063 145.1603157 -0.73420166 144.23664703 -0.73059082 143.2849884 C-0.72176324 140.2211666 -0.72762629 137.1575743 -0.734375 134.09375 C-0.73302865 131.97147578 -0.73108836 129.84920187 -0.72857666 127.72692871 C-0.725624 123.27479115 -0.7299276 118.82273373 -0.73925781 114.37060547 C-0.75065239 108.65368013 -0.74409368 102.93694255 -0.73211288 97.22002411 C-0.72489812 92.83639095 -0.72718045 88.45280257 -0.73236847 84.06916809 C-0.73370603 81.96075926 -0.73205356 79.8523464 -0.72740936 77.74394226 C-0.72235044 74.80118994 -0.73004546 71.85874496 -0.74121094 68.91601562 C-0.73716248 68.03802811 -0.73311401 67.16004059 -0.72894287 66.25544739 C-0.54759699 61.64875021 -0.54759699 61.64875021 -3 58 C-6.9674509 57.56530472 -6.9674509 57.56530472 -10 60 Z " fill="#1E1917" transform="translate(235,37)"/>
<path d="M0 0 C1.14662109 -0.01611328 2.29324219 -0.03222656 3.47460938 -0.04882812 C14.97882223 -0.05533872 25.78995784 1.50891795 34.6875 9.3125 C40.59229929 15.73831099 41.99689171 22.44225578 41.91796875 30.95703125 C41.91751053 31.76742355 41.91705231 32.57781586 41.9165802 33.4127655 C41.9135735 35.11462887 41.90573495 36.81648988 41.89331055 38.51831055 C41.87493643 41.13404982 41.87280188 43.74943699 41.87304688 46.36523438 C41.86813553 48.02083642 41.8623089 49.67643605 41.85546875 51.33203125 C41.85435593 52.11737747 41.8532431 52.90272369 41.85209656 53.71186829 C41.80358788 59.19641212 41.80358788 59.19641212 40.6875 60.3125 C38.54363343 60.47108842 36.39483162 60.56379298 34.24609375 60.62890625 C32.28833008 60.69174805 32.28833008 60.69174805 30.29101562 60.75585938 C28.9023467 60.79567608 27.51367478 60.83538825 26.125 60.875 C24.73240817 60.91817989 23.33982972 60.961794 21.94726562 61.00585938 C18.52745199 61.11235876 15.10756237 61.21436923 11.6875 61.3125 C12.25146484 61.59859131 12.81542969 61.88468262 13.39648438 62.17944336 C37.39664901 74.48665309 37.39664901 74.48665309 41.34375 85.5625 C43.20117722 92.14682193 43.17386494 98.77811437 43.13354492 105.56176758 C43.12502613 107.74330924 43.15389849 109.92223038 43.18554688 112.10351562 C43.23377904 121.83432012 42.46784503 132.47000298 35.421875 139.97265625 C24.68276856 148.26885785 12.97117868 149.663004 -0.125 149.625 C-1.77338867 149.64916992 -1.77338867 149.64916992 -3.45507812 149.67382812 C-14.30016817 149.68021887 -27.03795502 148.22672458 -35.28515625 140.453125 C-42.38464542 132.69762554 -43.47394239 125.45118557 -43.4453125 115.10546875 C-43.44626923 114.33946854 -43.44722595 113.57346832 -43.44821167 112.78425598 C-43.44888863 111.17656369 -43.44706829 109.56886859 -43.44287109 107.96118164 C-43.43747891 105.49033578 -43.44285124 103.01966866 -43.44921875 100.54882812 C-43.44855861 98.9843746 -43.44727876 97.41992118 -43.4453125 95.85546875 C-43.44733673 95.11387009 -43.44936096 94.37227142 -43.45144653 93.60820007 C-43.42747642 88.42747642 -43.42747642 88.42747642 -42.3125 87.3125 C-39.93911361 87.15278023 -37.59131728 87.0532567 -35.21484375 86.99609375 C-34.15155602 86.9649221 -34.15155602 86.9649221 -33.06678772 86.93312073 C-30.79462695 86.86755402 -28.52234736 86.8087077 -26.25 86.75 C-24.71287817 86.70682151 -23.1757685 86.66320745 -21.63867188 86.61914062 C-17.8634041 86.51186551 -14.0880164 86.41061863 -10.3125 86.3125 C-10.84093506 86.01593506 -11.36937012 85.71937012 -11.91381836 85.41381836 C-38.09760867 70.65848577 -38.09760867 70.65848577 -41.51635742 60.64306641 C-42.8828444 54.92653303 -42.86672899 49.20315226 -42.77905273 43.36010742 C-42.74998678 41.24903997 -42.75850829 39.14048109 -42.77148438 37.02929688 C-42.756091 26.3785626 -42.0163307 17.00912357 -34.39453125 9.06640625 C-24.41557219 0.66011616 -12.49571884 -0.03476828 0 0 Z M-2.3125 25.3125 C-6.41349563 33.51449126 -6.15232018 41.63366179 -3.3125 50.3125 C-1.24567166 53.81619872 0.73818935 55.99606312 4.6875 57.3125 C6.09558333 42.19548365 6.09558333 42.19548365 3.6875 27.3125 C3.0275 26.6525 2.3675 25.9925 1.6875 25.3125 C0.3675 25.3125 -0.9525 25.3125 -2.3125 25.3125 Z M-5.3125 88.3125 C-5.3621011 92.63580779 -5.3983144 96.95896285 -5.42236328 101.2824707 C-5.43239352 102.75190112 -5.44602101 104.22131171 -5.46337891 105.69067383 C-5.48775898 107.80815537 -5.49901286 109.92537199 -5.5078125 112.04296875 C-5.51828613 113.31551514 -5.52875977 114.58806152 -5.53955078 115.89916992 C-5.32192228 119.17085171 -4.72752625 121.38207366 -3.3125 124.3125 C-1.6625 124.3125 -0.0125 124.3125 1.6875 124.3125 C5.79561233 117.0203445 4.67497657 105.91360704 2.96484375 97.9453125 C1.08293355 92.81005957 -0.54576207 91.04984419 -5.3125 88.3125 Z " fill="#1F1917" transform="translate(320.3125,69.6875)"/>
<path d="M0 0 C12.54 0 25.08 0 38 0 C38 48.18 38 96.36 38 146 C25.46 146 12.92 146 0 146 C0 97.82 0 49.64 0 0 Z " fill="#1E1A17" transform="translate(367,71)"/>
<path d="M0 0 C6.74050702 -0.27388065 13.01697535 0.39592777 19.6640625 1.48828125 C26.6602438 2.56146597 33.63809369 3.06084241 40.71484375 2.953125 C41.93361206 2.93644775 41.93361206 2.93644775 43.17700195 2.91943359 C44.78394624 2.89026596 46.39070733 2.84678351 47.99682617 2.78759766 C53.56284262 2.6742418 53.56284262 2.6742418 56.0234375 4.5078125 C56.34570312 5.00023437 56.66796875 5.49265625 57 6 C56.44570312 6.19335938 55.89140625 6.38671875 55.3203125 6.5859375 C54.59585938 6.84632812 53.87140625 7.10671875 53.125 7.375 C52.40570313 7.63023438 51.68640625 7.88546875 50.9453125 8.1484375 C48.81842006 8.93877783 48.81842006 8.93877783 47 11 C46.505 9.515 46.505 9.515 46 8 C44.80761719 8.01160156 43.61523438 8.02320313 42.38671875 8.03515625 C40.82031406 8.04453592 39.25390769 8.05363593 37.6875 8.0625 C36.50897461 8.07506836 36.50897461 8.07506836 35.30664062 8.08789062 C34.54931641 8.09111328 33.79199219 8.09433594 33.01171875 8.09765625 C31.96697388 8.10551147 31.96697388 8.10551147 30.90112305 8.11352539 C29 8 29 8 26 7 C26 7.99 26 8.98 26 10 C24.68 10 23.36 10 22 10 C22 9.34 22 8.68 22 8 C19.39417629 7.06934867 18.35801776 6.85082593 15.75 7.9375 C15.1725 8.288125 14.595 8.63875 14 9 C14 8.01 14 7.02 14 6 C11.69 6 9.38 6 7 6 C6.67 7.98 6.34 9.96 6 12 C7.32 12 8.64 12 10 12 C10 12.99 10 13.98 10 15 C10.99 15.99 10.99 15.99 12 17 C10.515 17.495 10.515 17.495 9 18 C9.01160156 18.71027344 9.02320313 19.42054687 9.03515625 20.15234375 C9.04417969 21.07144531 9.05320313 21.99054688 9.0625 22.9375 C9.07410156 23.85402344 9.08570313 24.77054688 9.09765625 25.71484375 C9 28 9 28 8 29 C7.89931193 31.59419854 7.8612995 34.15603802 7.875 36.75 C7.87113281 37.46671875 7.86726563 38.1834375 7.86328125 38.921875 C7.87032094 42.75146513 8.14268277 46.27135045 9 50 C9 52.5 9 52.5 8 55 C4.8849755 57.91534345 2.3421102 60 -2 60 C-2.495 60.99 -2.495 60.99 -3 62 C-10.38206753 62.56785135 -16.10376651 60.46902187 -23 58 C-24.3705635 57.58906848 -25.74484165 57.18995458 -27.125 56.8125 C-30 56 -30 56 -32 55 C-32.33 55.66 -32.66 56.32 -33 57 C-34.92578125 57.66796875 -34.92578125 57.66796875 -37.3125 58.1875 C-38.09238281 58.36667969 -38.87226562 58.54585937 -39.67578125 58.73046875 C-42.09204759 59.01067443 -43.70242952 58.74132137 -46 58 C-45.95875 58.680625 -45.9175 59.36125 -45.875 60.0625 C-46.02601742 63.61140943 -46.97007037 66.60729062 -48 70 C-48.185625 70.94875 -48.37125 71.8975 -48.5625 72.875 C-49 75 -49 75 -50 76 C-50.28842183 81.57615537 -49.5517639 85.61446646 -48 91 C-47.54881081 94.65909475 -47.25271732 98.32229795 -47 102 C-46.34 102 -45.68 102 -45 102 C-45 101.34 -45 100.68 -45 100 C-44.01 100.33 -43.02 100.66 -42 101 C-40.8125 103.5625 -40.8125 103.5625 -40 106 C-34.9183218 106.20741544 -30.80566706 105.69611779 -26 104 C-25.01 103.01 -25.01 103.01 -24 102 C-19.17339223 100.2448699 -14.78098669 101.73965275 -10 103 C-10 102.34 -10 101.68 -10 101 C-5.71 101.99 -1.42 102.98 3 104 C3.33 103.34 3.66 102.68 4 102 C4.66 102 5.32 102 6 102 C7.21250187 105.76221667 7.1100022 109.46550796 7.0625 113.37109375 C7.05871338 114.08926773 7.05492676 114.80744171 7.05102539 115.54737854 C7.03482015 118.60254164 7.00703019 121.65756757 6.97949219 124.71264648 C6.90901126 133.2751512 6.97311918 141.69298141 7.8605957 150.22436523 C8.14877959 155.96230326 7.18650517 161.22024225 4 166 C4.67546875 165.77183594 5.3509375 165.54367188 6.046875 165.30859375 C6.93890625 165.02113281 7.8309375 164.73367187 8.75 164.4375 C9.63171875 164.14746094 10.5134375 163.85742188 11.421875 163.55859375 C14.13665057 162.97039238 15.39024624 163.26532142 18 164 C18.99 163.649375 19.98 163.29875 21 162.9375 C24 162 24 162 26.375 162.875 C26.91125 163.24625 27.4475 163.6175 28 164 C24.535 164.99 24.535 164.99 21 166 C21 166.99 21 167.98 21 169 C13.63512596 169.99862699 6.42686315 170.10331031 -1 170 C-1.15073765 164.20643129 -0.62391563 158.93611121 0.4375 153.25 C4.23810683 132.50319232 4.23810683 132.50319232 1 112 C-0.92324861 109.59593924 -2.27839067 108.36080466 -5 107 C-12.01835104 106.33158562 -17.74306352 107.60543457 -24.4375 109.5 C-38.53984597 113.43157976 -38.53984597 113.43157976 -45 112 C-50.62426854 108.52970664 -52.43629925 102.16350843 -54 96 C-54.46285682 91.31315522 -54.53695838 86.69839237 -54.46655273 81.99267578 C-54.43744003 79.87062905 -54.4460175 77.7510702 -54.45898438 75.62890625 C-54.43498587 59.04666323 -54.43498587 59.04666323 -49.58374023 53.33154297 C-45.01339645 49.48898786 -37.78368797 50.54045445 -32.12451172 50.79443359 C-28.60197115 51.13527238 -25.27410014 52.04480252 -21.875 53 C-15.07675355 54.89797497 -8.03362717 56.4515528 -1 55 C2.85166817 51.44203202 2.88684362 47.00786782 3.16796875 42.01953125 C3.22507569 32.64257227 2.31520605 23.51188479 1.24365234 14.20751953 C0.72201491 9.48142163 0.35957709 4.74074007 0 0 Z M-44 59 C-42 60 -42 60 -42 60 Z " fill="#8AB440" transform="translate(54,55)"/>
<path d="M0 0 C12.54 0 25.08 0 38 0 C38 9.24 38 18.48 38 28 C25.46 28 12.92 28 0 28 C0 18.76 0 9.52 0 0 Z " fill="#1A1714" transform="translate(367,37)"/>
<path d="M0 0 C12.21 0 24.42 0 37 0 C37 59.4 37 118.8 37 180 C8 180 8 180 4 178 C1.4570077 178.62658793 1.4570077 178.62658793 -1.0625 179.875 C-5.74172185 182 -5.74172185 182 -9 182 C-9 181.01 -9 180.02 -9 179 C-7.68 179 -6.36 179 -5 179 C-4.67 178.34 -4.34 177.68 -4 177 C-0.07858405 175.96197813 3.98489604 175.5510927 8 175 C8.33 175.66 8.66 176.32 9 177 C17.58 177.33 26.16 177.66 35 178 C35 119.92 35 61.84 35 2 C24.11 2 13.22 2 2 2 C2 14.21 2 26.42 2 39 C-1.68654091 39 -4.01604803 38.51146993 -7.5 37.5 C-16.99988771 35.05849414 -25.58105652 35.48828174 -35 38 C-34.67 36.68 -34.34 35.36 -34 34 C-29.43728345 32.70875057 -25.02550789 32.77762202 -20.3125 32.75 C-19.45205078 32.729375 -18.59160156 32.70875 -17.70507812 32.6875 C-11.61206426 32.65076744 -6.64682127 33.72376197 -1 36 C-1.00523682 34.94498291 -1.01047363 33.88996582 -1.01586914 32.80297852 C-1.03391901 28.9024337 -1.04543195 25.0018926 -1.05493164 21.10131836 C-1.0599719 19.41055684 -1.06680405 17.71979971 -1.07543945 16.02905273 C-1.08751857 13.60399293 -1.09323123 11.17899056 -1.09765625 8.75390625 C-1.10281754 7.99348526 -1.10797882 7.23306427 -1.11329651 6.44960022 C-1.11349238 4.6326743 -1.06197277 2.81586873 -1 1 C-0.67 0.67 -0.34 0.34 0 0 Z " fill="#050301" transform="translate(235,37)"/>
<path d="M0 0 C6.74050702 -0.27388065 13.01697535 0.39592777 19.6640625 1.48828125 C26.6602438 2.56146597 33.63809369 3.06084241 40.71484375 2.953125 C41.93361206 2.93644775 41.93361206 2.93644775 43.17700195 2.91943359 C44.78394624 2.89026596 46.39070733 2.84678351 47.99682617 2.78759766 C53.56284262 2.6742418 53.56284262 2.6742418 56.0234375 4.5078125 C56.34570312 5.00023437 56.66796875 5.49265625 57 6 C56.44570312 6.19335938 55.89140625 6.38671875 55.3203125 6.5859375 C54.59585938 6.84632812 53.87140625 7.10671875 53.125 7.375 C52.40570313 7.63023438 51.68640625 7.88546875 50.9453125 8.1484375 C48.81842006 8.93877783 48.81842006 8.93877783 47 11 C46.505 9.515 46.505 9.515 46 8 C44.80761719 8.01160156 43.61523438 8.02320313 42.38671875 8.03515625 C40.82031406 8.04453592 39.25390769 8.05363593 37.6875 8.0625 C36.50897461 8.07506836 36.50897461 8.07506836 35.30664062 8.08789062 C34.54931641 8.09111328 33.79199219 8.09433594 33.01171875 8.09765625 C31.96697388 8.10551147 31.96697388 8.10551147 30.90112305 8.11352539 C29 8 29 8 26 7 C26 7.99 26 8.98 26 10 C24.68 10 23.36 10 22 10 C22 9.34 22 8.68 22 8 C19.39417629 7.06934867 18.35801776 6.85082593 15.75 7.9375 C15.1725 8.288125 14.595 8.63875 14 9 C14 8.01 14 7.02 14 6 C11.69 6 9.38 6 7 6 C6.67 7.98 6.34 9.96 6 12 C7.32 12 8.64 12 10 12 C10 12.99 10 13.98 10 15 C10.66 15.66 11.32 16.32 12 17 C11.01 17.33 10.02 17.66 9 18 C9.01160156 18.71027344 9.02320312 19.42054687 9.03515625 20.15234375 C9.04417969 21.07144531 9.05320312 21.99054688 9.0625 22.9375 C9.07410156 23.85402344 9.08570312 24.77054688 9.09765625 25.71484375 C9 28 9 28 8 29 C7.89931193 31.59419854 7.8612995 34.15603802 7.875 36.75 C7.87113281 37.46671875 7.86726563 38.1834375 7.86328125 38.921875 C7.87032094 42.75146513 8.14268277 46.27135045 9 50 C9 53.94285965 8.05584331 54.94288753 5.25 57.8125 C0.09254542 61.2222101 -6.06801164 60.73665215 -12 60 C-14.39453125 58.97265625 -14.39453125 58.97265625 -16 58 C-16 57.34 -16 56.68 -16 56 C-14.95199219 55.97421875 -13.90398438 55.9484375 -12.82421875 55.921875 C-11.44527098 55.86559142 -10.06636635 55.80824412 -8.6875 55.75 C-7.65206055 55.72873047 -7.65206055 55.72873047 -6.59570312 55.70703125 C-3.47104037 55.55608136 -1.48244653 55.42054402 0.91796875 53.328125 C6.18279313 42.00019963 2.62599011 26.21044143 1.24365234 14.20751953 C0.72201491 9.48142163 0.35957709 4.74074007 0 0 Z " fill="#A2C767" transform="translate(54,55)"/>
<path d="M0 0 C0.99 0.33 1.98 0.66 3 1 C3.01030746 2.16289047 3.02061493 3.32578094 3.03123474 4.52391052 C3.12879033 15.45774909 3.231507 26.39152846 3.33933926 37.32527065 C3.39461557 42.9470513 3.44804296 48.56883709 3.49731445 54.19067383 C3.54488872 59.61122899 3.59722874 65.0317187 3.65294075 70.45219612 C3.67339585 72.52513064 3.69210358 74.59808314 3.70907402 76.67104912 C3.73304846 79.56388758 3.76311213 82.45660109 3.79467773 85.34936523 C3.8004332 86.21538864 3.80618866 87.08141205 3.81211853 87.97367859 C3.48925199 91.79681743 3.48925199 91.79681743 5 95 C7.5 95.16666667 7.5 95.16666667 10 95 C12.11107204 92.88892796 11.18612494 88.17737627 11.20532227 85.25756836 C11.21522186 84.3405867 11.22512146 83.42360504 11.23532104 82.47883606 C11.26703649 79.43253201 11.29173299 76.38621233 11.31640625 73.33984375 C11.33696712 71.23376549 11.35796334 69.12769144 11.37937927 67.0216217 C11.43468957 61.46661782 11.4840592 55.91157615 11.53222656 50.35650635 C11.58237635 44.69271464 11.63809638 39.02897809 11.69335938 33.36523438 C11.80105045 22.24353666 11.90247094 11.12179114 12 0 C12.66 0 13.32 0 14 0 C15.62670585 3.2534117 15.14722389 6.83437503 15.14526367 10.40942383 C15.15030159 11.71454674 15.15030159 11.71454674 15.15544128 13.04603577 C15.16496875 15.93304864 15.16689543 18.82000361 15.16796875 21.70703125 C15.17118056 23.71001713 15.17454457 25.71300278 15.17805481 27.71598816 C15.18405091 31.92012068 15.18589426 36.12423264 15.18530273 40.32836914 C15.18520119 45.71541349 15.19884293 51.1023258 15.21607494 56.48933887 C15.22719545 60.62860215 15.22922191 64.76783353 15.22869301 68.90711021 C15.22987345 70.89302716 15.23429881 72.87894492 15.24202538 74.86484718 C15.25182429 77.64412282 15.24894734 80.42311232 15.24291992 83.20239258 C15.24853943 84.02284058 15.25415894 84.84328857 15.25994873 85.68859863 C15.23698639 89.85602927 15.11650449 93.28173007 13 97 C10 98.75 10 98.75 7 100 C6.01 100.495 6.01 100.495 5 101 C5 100.01 5 99.02 5 98 C4.0409375 97.62875 4.0409375 97.62875 3.0625 97.25 C1 96 1 96 0.37860966 94.17023087 C-0.26073874 90.5054178 -0.12928801 86.80917228 -0.11352539 83.10058594 C-0.11367142 82.20267334 -0.11381744 81.30476074 -0.1139679 80.37963867 C-0.11327176 77.41452613 -0.10549329 74.44947656 -0.09765625 71.484375 C-0.09579101 69.42742955 -0.09436761 67.37048365 -0.09336853 65.3135376 C-0.0895517 59.90155815 -0.07972851 54.48960556 -0.06866455 49.07763672 C-0.05843252 43.55436568 -0.05386707 38.03109029 -0.04882812 32.5078125 C-0.03810552 21.6718632 -0.02103907 10.83593384 0 0 Z " fill="#020100" transform="translate(222,98)"/>
<path d="M0 0 C0.73605469 0.48210937 1.47210938 0.96421875 2.23046875 1.4609375 C3.20628906 2.09257812 4.18210937 2.72421875 5.1875 3.375 C6.15042969 4.00148437 7.11335938 4.62796875 8.10546875 5.2734375 C10.70885893 6.82633691 13.19178825 7.89318038 16 9 C17.42183774 9.87578874 18.81812291 10.79426214 20.1875 11.75 C24.28650586 14.56506265 28.50187232 17.07248064 32.8359375 19.5078125 C35.16210954 21.1117795 36.51151485 22.60882063 38 25 C38 25.66 38 26.32 38 27 C38.66 27 39.32 27 40 27 C40.81245322 31.9982122 41.19236019 36.8683173 41.1875 41.9375 C41.18814453 42.63681641 41.18878906 43.33613281 41.18945312 44.05664062 C41.13840096 49.03654741 40.56939532 53.29181404 39 58 C36.36 58.66 33.72 59.32 31 60 C31 59.34 31 58.68 31 58 C29.68 57.34 28.36 56.68 27 56 C27 44.45 27 32.9 27 21 C16.11 21 5.22 21 -6 21 C-6 33.54 -6 46.08 -6 59 C-5.34 59.33 -4.68 59.66 -4 60 C-4 60.99 -4 61.98 -4 63 C-3.484375 64.010625 -2.96875 65.02125 -2.4375 66.0625 C-1.963125 67.031875 -1.48875 68.00125 -1 69 C-1.495 69.99 -1.495 69.99 -2 71 C-9.75786967 61.40474014 -9.29871122 51.25332471 -9.20581055 39.42236328 C-9.18733435 36.97808608 -9.18530278 34.53418412 -9.18554688 32.08984375 C-9.1806387 30.5390592 -9.17481346 28.98827721 -9.16796875 27.4375 C-9.16685593 26.7053125 -9.1657431 25.973125 -9.16459656 25.21875 C-9.11612437 20.11612437 -9.11612437 20.11612437 -8 19 C-5.62661361 18.84028023 -3.27881728 18.7407567 -0.90234375 18.68359375 C-0.19348526 18.66281265 0.51537323 18.64203156 1.24571228 18.62062073 C3.51787305 18.55505402 5.79015264 18.4962077 8.0625 18.4375 C9.59962183 18.39432151 11.1367315 18.35070745 12.67382812 18.30664062 C16.4490959 18.19936551 20.2244836 18.09811863 24 18 C23.46109131 17.69296143 22.92218262 17.38592285 22.36694336 17.06958008 C19.88822914 15.65442481 17.4128632 14.23350806 14.9375 12.8125 C14.08994141 12.32974609 13.24238281 11.84699219 12.36914062 11.34960938 C7.36703357 8.47194933 2.6344789 5.43970144 -2 2 C-1.34 1.34 -0.68 0.68 0 0 Z M29 20 C28.9503989 24.32330779 28.9141856 28.64646285 28.89013672 32.9699707 C28.88010648 34.43940112 28.86647899 35.90881171 28.84912109 37.37817383 C28.82474102 39.49565537 28.81348714 41.61287199 28.8046875 43.73046875 C28.79421387 45.00301514 28.78374023 46.27556152 28.77294922 47.58666992 C28.99057772 50.85835171 29.58497375 53.06957366 31 56 C32.65 56 34.3 56 36 56 C40.10811233 48.7078445 38.98747657 37.60110704 37.27734375 29.6328125 C35.39543355 24.49755957 33.76673793 22.73734419 29 20 Z " fill="#020100" transform="translate(286,138)"/>
<path d="M0 0 C0.99 0 1.98 0 3 0 C4.21250187 3.76221667 4.1100022 7.46550796 4.0625 11.37109375 C4.05871338 12.08926773 4.05492676 12.80744171 4.05102539 13.54737854 C4.03482015 16.60254164 4.00703019 19.65756757 3.97949219 22.71264648 C3.90901126 31.2751512 3.97311918 39.69298141 4.8605957 48.22436523 C5.14877959 53.96230326 4.18650517 59.22024225 1 64 C2.01320313 63.65775391 2.01320313 63.65775391 3.046875 63.30859375 C3.93890625 63.02113281 4.8309375 62.73367187 5.75 62.4375 C7.07257813 62.00244141 7.07257813 62.00244141 8.421875 61.55859375 C11.13665057 60.97039238 12.39024624 61.26532142 15 62 C15.99 61.649375 16.98 61.29875 18 60.9375 C21 60 21 60 23.375 60.875 C23.91125 61.24625 24.4475 61.6175 25 62 C22.69 62.66 20.38 63.32 18 64 C18 64.99 18 65.98 18 67 C10.63512596 67.99862699 3.42686315 68.10331031 -4 68 C-4.15073765 62.20643129 -3.62391563 56.93611121 -2.5625 51.25 C1.88406933 28.85262482 1.88406933 28.85262482 -3.5625 7.5625 C-7.12653363 5.27786306 -10.86053569 4.6722207 -15 4 C-15 3.34 -15 2.68 -15 2 C-9.90085558 0.76384378 -5.02439385 0.32520205 0 2 C0 1.34 0 0.68 0 0 Z " fill="#A7CB63" transform="translate(57,157)"/>
<path d="M0 0 C0.66 0.33 1.32 0.66 2 1 C1.835 1.825 1.67 2.65 1.5 3.5 C0.32191334 11.74660659 0.32129959 20.89823999 5 28.0625 C6.8525711 30.05175695 6.8525711 30.05175695 9 31 C9.92062528 20.61186344 10.16227173 11.27525822 8 1 C8.99 1 9.98 1 11 1 C12.81359313 4.88134031 13.2373701 7.90693517 13.1953125 12.17578125 C13.19031738 13.21903564 13.18532227 14.26229004 13.18017578 15.3371582 C13.15286377 17.30495239 13.15286377 17.30495239 13.125 19.3125 C13.08375 23.499375 13.0425 27.68625 13 32 C24.22 31.67 35.44 31.34 47 31 C46.67 32.32 46.34 33.64 46 35 C36.43 35.33 26.86 35.66 17 36 C20.135 37.629375 23.27 39.25875 26.5 40.9375 C36.04978146 46.10306013 43.49926906 50.71708968 47.0625 61.4375 C48.17604913 65.64790174 48.17604913 65.64790174 47 68 C46.34 68 45.68 68 45 68 C45 66.68 45 65.36 45 64 C44.01 63.505 44.01 63.505 43 63 C43.33 62.01 43.66 61.02 44 60 C43.34 60 42.68 60 42 60 C41.4121875 58.39125 41.4121875 58.39125 40.8125 56.75 C37.42204385 48.96913751 28.41436957 45.62748969 21.125 42.125 C16.65911628 39.94147939 12.56458524 37.2195505 8.41796875 34.48828125 C6.00009234 32.87337954 6.00009234 32.87337954 3 32 C1.8671875 30.29296875 1.8671875 30.29296875 0.875 28.1875 C0.54242188 27.50042969 0.20984375 26.81335938 -0.1328125 26.10546875 C-2.0621533 21.42116835 -2.18294395 17.02987602 -2.1875 12 C-2.19974609 11.2884375 -2.21199219 10.576875 -2.22460938 9.84375 C-2.2351828 6.065513 -2.11035168 3.20306342 0 0 Z " fill="#030202" transform="translate(315,95)"/>
<path d="M0 0 C-0.66 0.33 -1.32 0.66 -2 1 C-2 1.66 -2 2.32 -2 3 C2.62 3.66 7.24 4.32 12 5 C11.67 5.66 11.34 6.32 11 7 C3.61793247 7.56785135 -2.10376651 5.46902187 -9 3 C-10.3705635 2.58906848 -11.74484165 2.18995458 -13.125 1.8125 C-16 1 -16 1 -18 0 C-18.33 0.66 -18.66 1.32 -19 2 C-20.92578125 2.66796875 -20.92578125 2.66796875 -23.3125 3.1875 C-24.09238281 3.36667969 -24.87226563 3.54585938 -25.67578125 3.73046875 C-28.09204759 4.01067443 -29.70242952 3.74132137 -32 3 C-31.938125 4.0209375 -31.938125 4.0209375 -31.875 5.0625 C-32.02601742 8.61140943 -32.97007037 11.60729062 -34 15 C-34.185625 15.94875 -34.37125 16.8975 -34.5625 17.875 C-35 20 -35 20 -36 21 C-36.28842183 26.57615537 -35.5517639 30.61446646 -34 36 C-33.54881081 39.65909475 -33.25271732 43.32229795 -33 47 C-32.34 47 -31.68 47 -31 47 C-31 46.34 -31 45.68 -31 45 C-30.01 45.33 -29.02 45.66 -28 46 C-26.8125 48.5625 -26.8125 48.5625 -26 51 C-23.69 51 -21.38 51 -19 51 C-19 51.66 -19 52.32 -19 53 C-22.84734496 53.84641589 -25.3949462 54.1898208 -29.1875 53 C-36.13537356 48.05928991 -36.94108456 40.68882928 -38.484375 32.81640625 C-39.46415963 25.56451545 -38.9597734 19.37494802 -37.3125 12.3125 C-37.16361328 11.57966797 -37.01472656 10.84683594 -36.86132812 10.09179688 C-35.70786903 5.07538065 -34.11571655 2.33857974 -30 -1 C-20.72929616 -6.79658915 -9.69549108 -2.64876818 0 0 Z M-30 4 C-28 5 -28 5 -28 5 Z " fill="#8FBB4B" transform="translate(40,110)"/>
<path d="M0 0 C12.54 0 25.08 0 38 0 C38 3.3 38 6.6 38 10 C37.34 10 36.68 10 36 10 C36 52.9 36 95.8 36 140 C35.67 140 35.34 140 35 140 C35 94.46 35 48.92 35 2 C23.45 2 11.9 2 0 2 C0 1.34 0 0.68 0 0 Z " fill="#110E0C" transform="translate(367,71)"/>
<path d="M0 0 C1.07314453 0.09087891 1.07314453 0.09087891 2.16796875 0.18359375 C4.29014193 0.36204298 6.41256242 0.53756344 8.53515625 0.7109375 C10.71060035 0.89242889 12.88527638 1.08366597 15.05859375 1.2890625 C19.95945984 1.72608241 24.79798712 2.03293244 29.71875 1.95703125 C30.93667236 1.93950806 30.93667236 1.93950806 32.17919922 1.92163086 C33.78532528 1.89100897 35.39126 1.84668135 36.99658203 1.78735352 C42.56332953 1.67460463 42.56332953 1.67460463 45.0234375 3.5078125 C45.34570312 4.00023437 45.66796875 4.49265625 46 5 C45.44570312 5.19335938 44.89140625 5.38671875 44.3203125 5.5859375 C43.59585938 5.84632812 42.87140625 6.10671875 42.125 6.375 C41.40570313 6.63023438 40.68640625 6.88546875 39.9453125 7.1484375 C37.81842006 7.93877783 37.81842006 7.93877783 36 10 C35.505 8.515 35.505 8.515 35 7 C33.80761719 7.01160156 32.61523438 7.02320313 31.38671875 7.03515625 C29.82031406 7.04453592 28.25390769 7.05363593 26.6875 7.0625 C25.50897461 7.07506836 25.50897461 7.07506836 24.30664062 7.08789062 C23.54931641 7.09111328 22.79199219 7.09433594 22.01171875 7.09765625 C20.96697388 7.10551147 20.96697388 7.10551147 19.90112305 7.11352539 C18 7 18 7 15 6 C15 6.99 15 7.98 15 9 C13.68 9 12.36 9 11 9 C11 8.34 11 7.68 11 7 C10.01 6.67 9.02 6.34 8 6 C8 5.34 8 4.68 8 4 C3.545 3.01 3.545 3.01 -1 2 C-0.67 1.34 -0.34 0.68 0 0 Z " fill="#A6C36C" transform="translate(65,56)"/>
<path d="M0 0 C1.13759766 -0.01160156 2.27519531 -0.02320312 3.44726562 -0.03515625 C14.92856486 0.00414084 25.6715462 1.63185376 34.5625 9.375 C39.13935838 14.0528185 40.59407369 19.00073127 41.5625 25.375 C40.5725 25.375 39.5825 25.375 38.5625 25.375 C38.41554688 24.80652344 38.26859375 24.23804687 38.1171875 23.65234375 C36.18044175 16.98504086 33.57279311 12.01552221 27.6640625 8.125 C12.36482078 0.39006738 -7.10199609 2.77985612 -23.4375 5.375 C-23.7675 4.715 -24.0975 4.055 -24.4375 3.375 C-16.18921938 0.63216814 -8.66092915 -0.08802751 0 0 Z " fill="#040302" transform="translate(320.4375,69.625)"/>
<path d="M0 0 C0.66 0.33 1.32 0.66 2 1 C2.26371511 5.35129931 1.25925134 8.85187793 0 13 C-0.185625 13.94875 -0.37125 14.8975 -0.5625 15.875 C-1 18 -1 18 -2 19 C-2.28842183 24.57615537 -1.5517639 28.61446646 0 34 C0.45118919 37.65909475 0.74728268 41.32229795 1 45 C1.66 45 2.32 45 3 45 C3 44.34 3 43.68 3 43 C3.99 43.33 4.98 43.66 6 44 C7.1875 46.5625 7.1875 46.5625 8 49 C10.31 49 12.62 49 15 49 C15 49.66 15 50.32 15 51 C11.15265504 51.84641589 8.6050538 52.1898208 4.8125 51 C-2.13537356 46.05928991 -2.94108456 38.68882928 -4.484375 30.81640625 C-5.48862962 23.38340047 -4.8860514 17.31824773 -3.0625 10.125 C-2.78889648 8.98804687 -2.78889648 8.98804687 -2.50976562 7.828125 C-1.164185 2.32836999 -1.164185 2.32836999 0 0 Z " fill="#87C22A" transform="translate(6,112)"/>
<path d="M0 0 C0.99 0 1.98 0 3 0 C3.01417969 1.0621875 3.02835938 2.124375 3.04296875 3.21875 C3.27147641 11.34133317 3.48463308 17.5907051 9 24 C9.598125 24.825 10.19625 25.65 10.8125 26.5 C11.204375 26.995 11.59625 27.49 12 28 C11.34 28 10.68 28 10 28 C9.87625 28.78375 9.7525 29.5675 9.625 30.375 C9 33 9 33 7 35 C7 34.34 7 33.68 7 33 C6.34 33 5.68 33 5 33 C4.67 33.66 4.34 34.32 4 35 C3.67 33.68 3.34 32.36 3 31 C4.32 30.01 5.64 29.02 7 28 C6.67 27.01 6.34 26.02 6 25 C5.34 25 4.68 25 4 25 C4 24.34 4 23.68 4 23 C2.68 23 1.36 23 0 23 C-1.62862171 16.58730201 -3.15806245 10.47418734 -1 4 C-0.65772583 2.66893378 -0.32248257 1.33599921 0 0 Z " fill="#F2F5E8" transform="translate(185,184)"/>
<path d="M0 0 C0.99 0 1.98 0 3 0 C2.61585299 7.93903829 0.88150465 14.88965381 -4.72265625 20.82421875 C-13.45591508 27.94352831 -24.32332109 30.19016696 -35.3125 30.0625 C-36.05306641 30.05798828 -36.79363281 30.05347656 -37.55664062 30.04882812 C-39.37112899 30.03712175 -41.18557534 30.01918898 -43 30 C-43 29.34 -43 28.68 -43 28 C-41.75863281 27.87882812 -40.51726562 27.75765625 -39.23828125 27.6328125 C-37.59631474 27.46392452 -35.95438977 27.2946324 -34.3125 27.125 C-33.49587891 27.04636719 -32.67925781 26.96773437 -31.83789062 26.88671875 C-27.5398751 26.43429606 -23.97111159 25.80309931 -20 24 C-18.67241618 23.68319023 -17.33897627 23.3895558 -16 23.125 C-12.20259833 22.23655131 -9.93859151 20.59287486 -7 18 C-6.34 18 -5.68 18 -5 18 C-2.53444967 12.0122349 -0.7748395 6.45699584 0 0 Z " fill="#020101" transform="translate(360,189)"/>
<path d="M0 0 C-0.66 1.32 -1.32 2.64 -2 4 C-3.12277344 4.04898437 -4.24554688 4.09796875 -5.40234375 4.1484375 C-16.90616537 4.43885584 -16.90616537 4.43885584 -28 7 C-29.69165301 9.98283157 -29.69165301 9.98283157 -30 13 C-30.33 12.34 -30.66 11.68 -31 11 C-31.99 11 -32.98 11 -34 11 C-34 11.66 -34 12.32 -34 13 C-34.66 13 -35.32 13 -36 13 C-36.33 13.99 -36.66 14.98 -37 16 C-37.33 15.34 -37.66 14.68 -38 14 C-33.6764708 6.95424872 -29.2051405 3.47048897 -21.46875 0.75 C-14.41764861 -0.77456246 -7.17168533 -0.28402714 0 0 Z " fill="#C0D698" transform="translate(147,0)"/>
<path d="M0 0 C0.33 0 0.66 0 1 0 C1 28.38 1 56.76 1 86 C0.67 86 0.34 86 0 86 C0 57.62 0 29.24 0 0 Z M-2 86 C-1.34 86 -0.68 86 0 86 C-0.125 88.3125 -0.125 88.3125 -1 91 C-3.9375 92.75 -3.9375 92.75 -7 94 C-7.99 94.495 -7.99 94.495 -9 95 C-9 94.01 -9 93.02 -9 92 C-10.32 91.34 -11.64 90.68 -13 90 C-13 89.01 -13 88.02 -13 87 C-12.443125 87.33 -11.88625 87.66 -11.3125 88 C-8.62849816 89.16064945 -6.89460562 89.38086916 -4 89 C-3.34 88.01 -2.68 87.02 -2 86 Z " fill="#0B0605" transform="translate(236,104)"/>
<path d="M0 0 C0.66 0.66 1.32 1.32 2 2 C1.70357814 4.72708111 1.23369459 7.25712977 0.41015625 9.875 C-0.09895129 12.51266192 0.23183144 14.49490202 0.75 17.125 C0.90984375 17.99382812 1.0696875 18.86265625 1.234375 19.7578125 C1.86562238 22.34964355 1.86562238 22.34964355 5 24 C7.67848373 24.2045085 7.67848373 24.2045085 10.5625 24.0625 C15.80475594 23.90237797 15.80475594 23.90237797 18 25 C18 25.66 18 26.32 18 27 C16.35 26.67 14.7 26.34 13 26 C13.33 27.32 13.66 28.64 14 30 C7.57170855 28.67000867 3.09430137 26.88090128 -1.8125 22.3125 C-4.85957726 16.37871797 -4.14474393 10.14338202 -2.66796875 3.84765625 C-2 2 -2 2 0 0 Z " fill="#C5D597" transform="translate(117,249)"/>
<path d="M0 0 C0.33 0 0.66 0 1 0 C1 20.46 1 40.92 1 62 C-2.1362449 57.81834013 -2.37057331 57.28499264 -2.26464844 52.43701172 C-2.24762878 51.32260712 -2.23060913 50.20820251 -2.21307373 49.06002808 C-2.17885315 47.86201569 -2.14463257 46.6640033 -2.109375 45.4296875 C-2.08530579 44.19711212 -2.06123657 42.96453674 -2.03643799 41.6946106 C-1.9690542 38.42349302 -1.88786138 35.15308463 -1.80072021 31.88244629 C-1.71654277 28.55080229 -1.65500166 25.2187877 -1.58984375 21.88671875 C-1.5351111 19.35934747 -1.47916309 16.83200215 -1.421875 14.3046875 C-1.39575134 13.10262665 -1.36962769 11.9005658 -1.3427124 10.66207886 C-1.29826996 8.99992844 -1.29826996 8.99992844 -1.25292969 7.30419922 C-1.21604034 5.83670731 -1.21604034 5.83670731 -1.17840576 4.33956909 C-1 2 -1 2 0 0 Z " fill="#000000" transform="translate(188,109)"/>
<path d="M0 0 C0.99386719 0.19464844 1.98773438 0.38929688 3.01171875 0.58984375 C4.15060547 0.82380859 4.15060547 0.82380859 5.3125 1.0625 C5.3125 0.4025 5.3125 -0.2575 5.3125 -0.9375 C8.2825 -0.4425 8.2825 -0.4425 11.3125 0.0625 C8.08458445 2.2144437 7.02849191 2.26336443 3.3125 2.0625 C3.3125 2.7225 3.3125 3.3825 3.3125 4.0625 C-5.67291669 6.88787394 -13.20690548 8.87583617 -22.6875 7.0625 C-22.6875 6.7325 -22.6875 6.4025 -22.6875 6.0625 C-21.90375 5.93875 -21.12 5.815 -20.3125 5.6875 C-17.54692178 5.27132007 -17.54692178 5.27132007 -15.6875 3.0625 C-14.02083333 2.72916667 -12.35416667 2.39583333 -10.6875 2.0625 C-10.0275 1.4025 -9.3675 0.7425 -8.6875 0.0625 C-5.21237282 -1.09587573 -3.55079714 -0.71015943 0 0 Z " fill="#96BB4B" transform="translate(38.6875,156.9375)"/>
<path d="M0 0 C0.66 0 1.32 0 2 0 C2.81245322 4.9982122 3.19236019 9.8683173 3.1875 14.9375 C3.18814453 15.63681641 3.18878906 16.33613281 3.18945312 17.05664062 C3.13840096 22.03654741 2.56939532 26.29181404 1 31 C-1.64 31.66 -4.28 32.32 -7 33 C-7 32.34 -7 31.68 -7 31 C-8.32 30.34 -9.64 29.68 -11 29 C-10.505 27.515 -10.505 27.515 -10 26 C-8.515 26.99 -8.515 26.99 -7 28 C-5.34450469 28.38499891 -3.6777567 28.72793135 -2 29 C-1.01608322 25.72818618 -0.8970743 22.80292307 -0.9375 19.39453125 C-0.94523437 18.32912109 -0.95296875 17.26371094 -0.9609375 16.16601562 C-0.97382813 15.05935547 -0.98671875 13.95269531 -1 12.8125 C-1.02538069 10.61072481 -1.04645728 8.40889428 -1.0625 6.20703125 C-1.07410156 5.2322583 -1.08570313 4.25748535 -1.09765625 3.25317383 C-1 1 -1 1 0 0 Z " fill="#070504" transform="translate(324,165)"/>
<path d="M0 0 C4.75 0.75 4.75 0.75 7 3 C8.64991582 3.70710678 10.31562256 4.37943989 12 5 C11.67 5.99 11.34 6.98 11 8 C10.01 8.33 9.02 8.66 8 9 C8 8.01 8 7.02 8 6 C5.69 6 3.38 6 1 6 C0.67 7.98 0.34 9.96 0 12 C1.32 12 2.64 12 4 12 C4 12.99 4 13.98 4 15 C4.66 15.66 5.32 16.32 6 17 C5.01 17.33 4.02 17.66 3 18 C3 21.3 3 24.6 3 28 C2.67 28 2.34 28 2 28 C2 25.36 2 22.72 2 20 C1.34 20 0.68 20 0 20 C-0.33 16.7 -0.66 13.4 -1 10 C-1.66 10 -2.32 10 -3 10 C-3 7.36 -3 4.72 -3 2 C-2.01 2 -1.02 2 0 2 C0 1.34 0 0.68 0 0 Z " fill="#A2CD58" transform="translate(60,55)"/>
<path d="M0 0 C0.66 0 1.32 0 2 0 C1.67447917 2.01822917 1.34895833 4.03645833 1.0234375 6.0546875 C1.01570313 6.69664063 1.00796875 7.33859375 1 8 C2.84188612 10.05270463 2.84188612 10.05270463 5 11 C4.34 12.65 3.68 14.3 3 16 C2.34 16 1.68 16 1 16 C1.33 17.98 1.66 19.96 2 22 C0.35 21.67 -1.3 21.34 -3 21 C-3.81564858 17.41114625 -4.16216156 14.05414195 -4.1875 10.375 C-4.20167969 9.43398438 -4.21585937 8.49296875 -4.23046875 7.5234375 C-4 5 -4 5 -2 2 C-1.34 2 -0.68 2 0 2 C0 1.34 0 0.68 0 0 Z " fill="#B8D38B" transform="translate(113,11)"/>
<path d="M0 0 C7.92 0.33 15.84 0.66 24 1 C24 1.33 24 1.66 24 2 C22.35 2 20.7 2 19 2 C19 2.66 19 3.32 19 4 C2.76300085 6.5541347 2.76300085 6.5541347 -3 6 C-3.66 5.01 -4.32 4.02 -5 3 C-3.35 2.34 -1.7 1.68 0 1 C0 0.67 0 0.34 0 0 Z " fill="#B3D17E" transform="translate(79,217)"/>
<path d="M0 0 C1.65625 1.515625 1.65625 1.515625 3 3 C2.44570312 3.19335938 1.89140625 3.38671875 1.3203125 3.5859375 C0.59585938 3.84632812 -0.12859375 4.10671875 -0.875 4.375 C-1.59429687 4.63023438 -2.31359375 4.88546875 -3.0546875 5.1484375 C-5.18157994 5.93877783 -5.18157994 5.93877783 -7 8 C-7.33 7.01 -7.66 6.02 -8 5 C-8.98742187 5.02320313 -9.97484375 5.04640625 -10.9921875 5.0703125 C-12.27351563 5.08835937 -13.55484375 5.10640625 -14.875 5.125 C-16.78925781 5.15980469 -16.78925781 5.15980469 -18.7421875 5.1953125 C-22 5 -22 5 -24 3 C-21.69 3 -19.38 3 -17 3 C-17 2.34 -17 1.68 -17 1 C-3.47593583 -0.34759358 -3.47593583 -0.34759358 0 0 Z " fill="#B4D180" transform="translate(108,58)"/>
<path d="M0 0 C2.46447708 2.46447708 3.46276667 3.8648967 4.25 7.25 C3.875 11.0625 3.875 11.0625 3.25 14.25 C2.59 14.25 1.93 14.25 1.25 14.25 C1.0025 13.0125 0.755 11.775 0.5 10.5 C-0.49493949 6.66914456 -1.34500287 4.51999809 -4.75 2.25 C-7.71902149 1.3577552 -10.69170449 0.74664628 -13.75 0.25 C-13.75 -0.41 -13.75 -1.07 -13.75 -1.75 C-8.5197909 -3.13446712 -4.62433339 -2.94275761 0 0 Z " fill="#A5C76A" transform="translate(55.75,160.75)"/>
<path d="M0 0 C0.33 0 0.66 0 1 0 C1.46278755 18.0744249 1.46278755 18.0744249 -2 25 C-0.02 25 1.96 25 4 25 C4.33 25.66 4.66 26.32 5 27 C2.03 27 -0.94 27 -4 27 C-4.15790707 21.00639668 -3.60097146 15.46005186 -2.5625 9.5625 C-2.42779297 8.74845703 -2.29308594 7.93441406 -2.15429688 7.09570312 C-1.13519398 1.13519398 -1.13519398 1.13519398 0 0 Z " fill="#9FBC67" transform="translate(57,198)"/>
<path d="M0 0 C1.41750563 0.11509661 2.83401169 0.24253658 4.25 0.375 C5.03890625 0.44460937 5.8278125 0.51421875 6.640625 0.5859375 C9.085877 1.01507113 10.84836903 1.78600638 13 3 C12.34 3 11.68 3 11 3 C11 3.66 11 4.32 11 5 C15.62 5.66 20.24 6.32 25 7 C24.67 7.66 24.34 8.32 24 9 C17.64054329 9.48918898 12.89533908 8.18010558 6.9296875 5.97265625 C3.95601254 4.98539616 1.09810657 4.43667674 -2 4 C-1.01 3.67 -0.02 3.34 1 3 C0.67 2.01 0.34 1.02 0 0 Z " fill="#99C64B" transform="translate(27,108)"/>
<path d="M0 0 C0 0.66 0 1.32 0 2 C-1.8253125 2.7425 -1.8253125 2.7425 -3.6875 3.5 C-8.57608126 6.01783566 -11.10499755 8.82134957 -13 14 C-13.96506624 18.98701768 -14.55880022 23.94266524 -15 29 C-15.33 27.68 -15.66 26.36 -16 25 C-16.66 25 -17.32 25 -18 25 C-17.38090981 16.48750994 -15.41237487 9.80177189 -8.875 4 C-3.96759259 0 -3.96759259 0 0 0 Z " fill="#010000" transform="translate(296,74)"/>
<path d="M0 0 C-0.33 1.32 -0.66 2.64 -1 4 C-9.36005884 6.38858824 -17.38735156 6.190218 -26 6 C-26 5.34 -26 4.68 -26 4 C-24.75863281 3.87882813 -23.51726562 3.75765625 -22.23828125 3.6328125 C-20.59631474 3.46392452 -18.95438977 3.2946324 -17.3125 3.125 C-16.49587891 3.04636719 -15.67925781 2.96773437 -14.83789062 2.88671875 C-9.75657044 2.35184294 -4.93424968 0 0 0 Z " fill="#0A0908" transform="translate(343,213)"/>
<path d="M0 0 C0.33 0 0.66 0 1 0 C1.05379226 2.95857409 1.09357093 5.91617721 1.125 8.875 C1.14175781 9.71675781 1.15851563 10.55851562 1.17578125 11.42578125 C1.18222656 12.23144531 1.18867188 13.03710938 1.1953125 13.8671875 C1.20578613 14.61081543 1.21625977 15.35444336 1.22705078 16.12060547 C1 18 1 18 -1 20 C-3.625 19.625 -3.625 19.625 -6 19 C-5.34 18.67 -4.68 18.34 -4 18 C-4.0928125 16.1128125 -4.0928125 16.1128125 -4.1875 14.1875 C-4.20137627 10.21888725 -4.20137627 10.21888725 -2.5625 8.4375 C-2.046875 7.963125 -1.53125 7.48875 -1 7 C-0.26958147 3.38976901 -0.26958147 3.38976901 0 0 Z " fill="#EDF4E2" transform="translate(187,93)"/>
<path d="M0 0 C0.66 0.33 1.32 0.66 2 1 C2 2.32 2 3.64 2 5 C0.35 5.33 -1.3 5.66 -3 6 C-3.66 8.64 -4.32 11.28 -5 14 C-6.65 14.33 -8.3 14.66 -10 15 C-9.67 16.98 -9.34 18.96 -9 21 C-9.66 21.33 -10.32 21.66 -11 22 C-11.60727357 15.19853602 -10.34245771 11.29568014 -6 6 C-3.25 3.625 -3.25 3.625 -1 2 C-0.67 1.34 -0.34 0.68 0 0 Z " fill="#25251D" transform="translate(199,72)"/>
<path d="M0 0 C0.66 0 1.32 0 2 0 C2 0.66 2 1.32 2 2 C2.66 2 3.32 2 4 2 C4.33 1.34 4.66 0.68 5 0 C6.06965872 6.32448699 7.13329546 12.64416673 8 19 C7.67 18.01 7.34 17.02 7 16 C6.01 16 5.02 16 4 16 C2.68 10.72 1.36 5.44 0 0 Z " fill="#C3D795" transform="translate(111,34)"/>
<path d="M0 0 C0.99 0 1.98 0 3 0 C3.495 0.66 3.99 1.32 4.5 2 C8.08107386 4.86485909 11.08646259 4.26380816 15.5390625 4.04296875 C18 4 18 4 20 5 C20 5.66 20 6.32 20 7 C17.525 6.505 17.525 6.505 15 6 C15.33 7.32 15.66 8.64 16 10 C10.47327451 8.85653955 6.48207361 7.62834531 2 4 C0.625 1.75 0.625 1.75 0 0 Z " fill="#CBE0A8" transform="translate(115,269)"/>
<path d="M0 0 C0.66644531 0.33773437 1.33289063 0.67546875 2.01953125 1.0234375 C8.62667178 4.22073907 14.72569114 6.0572946 22 7 C22 7.99 22 8.98 22 10 C13.75730553 9.05109875 7.19138154 7.16845567 0 3 C0 2.01 0 1.02 0 0 Z " fill="#030201" transform="translate(287,209)"/>
<path d="M0 0 C1.98 0 3.96 0 6 0 C6 0.66 6 1.32 6 2 C5.01 2 4.02 2 3 2 C3 4.64 3 7.28 3 10 C3.66 10 4.32 10 5 10 C5 12.97 5 15.94 5 19 C4.34 19.33 3.68 19.66 3 20 C1.08389845 13.35751464 0.43632909 6.88940671 0 0 Z " fill="#9FBB65" transform="translate(54,55)"/>
<path d="M0 0 C1.39456452 0.00667256 2.78911118 0.01863093 4.18359375 0.03515625 C4.89451172 0.03966797 5.60542969 0.04417969 6.33789062 0.04882812 C8.09899388 0.06064761 9.86005411 0.07858362 11.62109375 0.09765625 C10.96109375 1.41765625 10.30109375 2.73765625 9.62109375 4.09765625 C5.33109375 4.09765625 1.04109375 4.09765625 -3.37890625 4.09765625 C-3.70890625 3.10765625 -4.03890625 2.11765625 -4.37890625 1.09765625 C-3.37890625 0.09765625 -3.37890625 0.09765625 0 0 Z " fill="#C5D79F" transform="translate(135.37890625,-0.09765625)"/>
<path d="M0 0 C0.99128906 0.30679688 1.98257813 0.61359375 3.00390625 0.9296875 C6.94943623 2.05698178 10.87009837 2.63802944 14.9375 3.125 C15.62134766 3.21136719 16.30519531 3.29773438 17.00976562 3.38671875 C18.67257046 3.59602285 20.33620513 3.79871722 22 4 C22 4.66 22 5.32 22 6 C14.06714481 6.36801906 7.4654395 5.77476512 0 3 C0 2.01 0 1.02 0 0 Z " fill="#040201" transform="translate(201,213)"/>
<path d="M0 0 C0.33 0.66 0.66 1.32 1 2 C1.99 1.67 2.98 1.34 4 1 C4 1.66 4 2.32 4 3 C4.99 2.67 5.98 2.34 7 2 C7.66 2.33 8.32 2.66 9 3 C8.34 4.32 7.68 5.64 7 7 C5.741875 6.773125 4.48375 6.54625 3.1875 6.3125 C-0.14138709 5.79806803 -0.14138709 5.79806803 -3 7.4375 C-3.33 7.953125 -3.66 8.46875 -4 9 C-4.66 7.68 -5.32 6.36 -6 5 C-5.01 4.34 -4.02 3.68 -3 3 C-3.33 2.34 -3.66 1.68 -4 1 C-2.68 0.67 -1.36 0.34 0 0 Z " fill="#14110E" transform="translate(228,90)"/>
<path d="M0 0 C0.33 0 0.66 0 1 0 C1.3125 3.1875 1.3125 3.1875 1 7 C-1.25 9.6875 -1.25 9.6875 -4 12 C-5.1446875 13.1446875 -5.1446875 13.1446875 -6.3125 14.3125 C-6.869375 14.869375 -7.42625 15.42625 -8 16 C-8.99 15.67 -9.98 15.34 -11 15 C-10.67 13.35 -10.34 11.7 -10 10 C-8.02 10 -6.04 10 -4 10 C-2.26337666 6.77484237 -1.1094072 3.48670834 0 0 Z " fill="#F0F3E7" transform="translate(199,65)"/>
<path d="M0 0 C0.99 0 1.98 0 3 0 C4.13480527 3.60993172 4.10015767 6.9842327 4.0625 10.75 C4.05347656 11.92046875 4.04445313 13.0909375 4.03515625 14.296875 C4.02355469 15.18890625 4.01195312 16.0809375 4 17 C3.01 17 2.02 17 1 17 C1.226875 16.13375 1.45375 15.2675 1.6875 14.375 C2.07637919 10.1751047 1.38065376 8.45578771 -1 5 C-4.05039221 3.09793151 -4.05039221 3.09793151 -7 2 C-3.98968256 1.06576355 -3.13349732 0.95550089 0 2 C0 1.34 0 0.68 0 0 Z M0 18 C2 19 2 19 2 19 Z " fill="#A3CF59" transform="translate(57,157)"/>
<path d="M0 0 C11.52164009 -0.3690205 11.52164009 -0.3690205 17 2 C13.77252945 4.15164703 12.79494361 4.27245079 9.0625 4.25 C8.20785156 4.25515625 7.35320313 4.2603125 6.47265625 4.265625 C3.88025433 3.98713633 2.23485766 3.30669172 0 2 C0 1.34 0 0.68 0 0 Z " fill="#93BD63" transform="translate(38,111)"/>
<path d="M0 0 C1.242956 3.59076177 1.0087026 6.35315214 0 10 C-1.32 10.99 -2.64 11.98 -4 13 C-4.33 9.7 -4.66 6.4 -5 3 C-3.35 2.01 -1.7 1.02 0 0 Z " fill="#EEF5E0" transform="translate(188,82)"/>
<path d="M0 0 C0.33 0.66 0.66 1.32 1 2 C-3.30769231 7.78461538 -3.30769231 7.78461538 -6.8125 8.875 C-7.534375 8.91625 -8.25625 8.9575 -9 9 C-9.625 6.625 -9.625 6.625 -10 4 C-7.24072656 1.24072656 -4.78845948 1.48216757 -1 1 C-0.67 0.67 -0.34 0.34 0 0 Z " fill="#BAD78D" transform="translate(117,55)"/>
<path d="M0 0 C2.97 0.495 2.97 0.495 6 1 C2.77208445 3.1519437 1.71599191 3.20086443 -2 3 C-2 3.66 -2 4.32 -2 5 C-4.8125 5.6875 -4.8125 5.6875 -8 6 C-9.875 4.5625 -9.875 4.5625 -11 3 C-3.57142857 0.57142857 -3.57142857 0.57142857 0 2 C0 1.34 0 0.68 0 0 Z " fill="#9AC156" transform="translate(44,156)"/>
<path d="M0 0 C2.4375 0.125 2.4375 0.125 5 1 C6.375 3.375 6.375 3.375 7 6 C6.67 6.99 6.34 7.98 6 9 C0.125 4.375 0.125 4.375 -1 1 C-0.67 0.67 -0.34 0.34 0 0 Z " fill="#24211D" transform="translate(191,202)"/>
<path d="M0 0 C9.41002278 0.96355353 9.41002278 0.96355353 14 2 C13.67 2.66 13.34 3.32 13 4 C12.01 3.67 11.02 3.34 10 3 C10 3.99 10 4.98 10 6 C8.68 6 7.36 6 6 6 C6 5.34 6 4.68 6 4 C5.01 3.67 4.02 3.34 3 3 C3 2.34 3 1.68 3 1 C2.01 0.67 1.02 0.34 0 0 Z " fill="#A8D367" transform="translate(70,59)"/>
<path d="M0 0 C0 0.66 0 1.32 0 2 C-5.28 2.66 -10.56 3.32 -16 4 C-15.67 3.01 -15.34 2.02 -15 1 C-9.92928099 0.28832014 -5.11791642 -0.10662326 0 0 Z " fill="#AFCB8A" transform="translate(98,219)"/>
<path d="M0 0 C0 0.66 0 1.32 0 2 C-5.61 2 -11.22 2 -17 2 C-17 1.34 -17 0.68 -17 0 C-11.1314592 -1.14819277 -5.9114744 -0.77313045 0 0 Z " fill="#BAD597" transform="translate(115,219)"/>
<path d="M0 0 C-0.66 0.66 -1.32 1.32 -2 2 C-2.99 2 -3.98 2 -5 2 C-5 2.66 -5 3.32 -5 4 C-8.63 4.33 -12.26 4.66 -16 5 C-15.67 4.34 -15.34 3.68 -15 3 C-13.33499557 2.65846063 -11.66821323 2.32550502 -10 2 C-9.34 1.34 -8.68 0.68 -8 0 C-4.71023192 -1.09658936 -3.28696233 -0.79953138 0 0 Z " fill="#93C83E" transform="translate(38,157)"/>
<path d="M0 0 C0.99 0.33 1.98 0.66 3 1 C3.36601307 8.4422658 3.36601307 8.4422658 1.6875 11 C0 12 0 12 -3 12 C-2.690625 11.505 -2.38125 11.01 -2.0625 10.5 C-0.58355618 7.02013219 -0.37597149 3.75971491 0 0 Z " fill="#A1CE5B" transform="translate(60,100)"/>
<path d="M0 0 C1.65 0 3.3 0 5 0 C5.33 0.66 5.66 1.32 6 2 C5.34 2 4.68 2 4 2 C3.87625 2.78375 3.7525 3.5675 3.625 4.375 C3 7 3 7 1 9 C1 8.34 1 7.68 1 7 C0.34 7 -0.32 7 -1 7 C-1.33 7.66 -1.66 8.32 -2 9 C-2.33 7.68 -2.66 6.36 -3 5 C-1.68 4.01 -0.36 3.02 1 2 C0.67 1.34 0.34 0.68 0 0 Z " fill="#F5F7EF" transform="translate(191,210)"/>
<path d="M0 0 C2 1 2 1 2.8515625 2.890625 C5.41509434 10.71069182 5.41509434 10.71069182 5 15 C2.4061813 12.72676563 1.31688531 10.76597542 0.25 7.5 C-0.01296875 6.7265625 -0.2759375 5.953125 -0.546875 5.15625 C-1 3 -1 3 0 0 Z " fill="#020100" transform="translate(279,124)"/>
<path d="M0 0 C0 0.99 0 1.98 0 3 C-1.45463481 3.38909985 -2.91391207 3.76088029 -4.375 4.125 C-5.18710938 4.33382812 -5.99921875 4.54265625 -6.8359375 4.7578125 C-7.55007813 4.83773437 -8.26421875 4.91765625 -9 5 C-9.66 4.34 -10.32 3.68 -11 3 C-8.15930939 0.15930939 -3.81147953 -1.90573977 0 0 Z M-11 5 C-9 6 -9 6 -9 6 Z " fill="#8BC42E" transform="translate(21,109)"/>
<path d="M0 0 C0.99 0 1.98 0 3 0 C3 3.96 3 7.92 3 12 C2.01 12.495 2.01 12.495 1 13 C0.1276588 10.00519083 -0.10829766 7.36424089 -0.0625 4.25 C-0.05347656 3.45078125 -0.04445312 2.6515625 -0.03515625 1.828125 C-0.02355469 1.22484375 -0.01195312 0.6215625 0 0 Z " fill="#A3BF5C" transform="translate(57,77)"/>
<path d="M0 0 C0 0.66 0 1.32 0 2 C-1.57914015 2.53341184 -3.16354387 3.05125763 -4.75 3.5625 C-5.63171875 3.85253906 -6.5134375 4.14257812 -7.421875 4.44140625 C-10.07834316 5.01697435 -11.47031106 4.89248371 -14 4 C-11.72385081 1.72385081 -10.64803179 1.51338589 -7.5625 0.875 C-6.78003906 0.70742187 -5.99757813 0.53984375 -5.19140625 0.3671875 C-3 0 -3 0 0 0 Z " fill="#030100" transform="translate(310,70)"/>
<path d="M0 0 C2.1640625 -0.29296875 2.1640625 -0.29296875 4.625 -0.1875 C5.44226563 -0.16042969 6.25953125 -0.13335937 7.1015625 -0.10546875 C8.04128906 -0.05326172 8.04128906 -0.05326172 9 0 C9.33 0.99 9.66 1.98 10 3 C6.04 3 2.08 3 -2 3 C-1.34 2.01 -0.68 1.02 0 0 Z " fill="#A9C975" transform="translate(81,58)"/>
<path d="M0 0 C0.66 0.66 1.32 1.32 2 2 C1.875 5 1.875 5 1 8 C-1.0625 9.375 -1.0625 9.375 -3 10 C-2.25 2.25 -2.25 2.25 0 0 Z " fill="#BEDAA0" transform="translate(117,249)"/>
<path d="M0 0 C-2.34591852 2.7710688 -4.14776201 3.52059284 -7.6875 4.1875 C-8.49574219 4.34605469 -9.30398437 4.50460938 -10.13671875 4.66796875 C-11.05904297 4.83232422 -11.05904297 4.83232422 -12 5 C-11.67 3.68 -11.34 2.36 -11 1 C-7.32589215 -0.17571451 -3.83070817 -0.07366746 0 0 Z " fill="#0C0805" transform="translate(212,70)"/>
<path d="M0 0 C0.66 0.33 1.32 0.66 2 1 C2.73075648 3.3140622 3.40138258 5.64828869 4 8 C1.03 7.505 1.03 7.505 -2 7 C-2.33 5.35 -2.66 3.7 -3 2 C-2.01 1.34 -1.02 0.68 0 0 Z " fill="#141110" transform="translate(287,203)"/>
<path d="M0 0 C2.97 0.33 5.94 0.66 9 1 C6 4 6 4 2.8125 4.1875 C1.4203125 4.0946875 1.4203125 4.0946875 0 4 C0 2.68 0 1.36 0 0 Z " fill="#110E0D" transform="translate(316,92)"/>
<path d="M0 0 C0.66 0 1.32 0 2 0 C1.67 3.96 1.34 7.92 1 12 C0.67 10.68 0.34 9.36 0 8 C-0.66 8 -1.32 8 -2 8 C-1.125 1.125 -1.125 1.125 0 0 Z " fill="#070605" transform="translate(280,91)"/>
<path d="M0 0 C1.485 0.99 1.485 0.99 3 2 C3.66 2.33 4.32 2.66 5 3 C4.34 4.65 3.68 6.3 3 8 C2.01 8 1.02 8 0 8 C-0.38063221 5.6739143 -0.71269945 3.33944736 -1 1 C-0.67 0.67 -0.34 0.34 0 0 Z " fill="#B5DC80" transform="translate(113,19)"/>
<path d="M0 0 C0.94875 0.350625 1.8975 0.70125 2.875 1.0625 C2.215 3.3725 1.555 5.6825 0.875 8.0625 C-0.125 6.0625 -1.125 4.0625 -2.125 2.0625 C-3.115 1.4025 -4.105 0.7425 -5.125 0.0625 C-3.125 -0.9375 -3.125 -0.9375 0 0 Z " fill="#CBE1A8" transform="translate(118.125,220.9375)"/>
<path d="M0 0 C1.8141927 0.28094582 3.62635001 0.57506433 5.4375 0.875 C6.95150391 1.11863281 6.95150391 1.11863281 8.49609375 1.3671875 C9.32238281 1.57601562 10.14867187 1.78484375 11 2 C11.33 2.66 11.66 3.32 12 4 C10.5629191 4.05422947 9.12524538 4.09289723 7.6875 4.125 C6.88699219 4.14820313 6.08648437 4.17140625 5.26171875 4.1953125 C3 4 3 4 0 2 C0 1.34 0 0.68 0 0 Z " fill="#8AAC49" transform="translate(6,163)"/>
<path d="M0 0 C0.99 0 1.98 0 3 0 C3.6875 1.8125 3.6875 1.8125 4 4 C2.875 5.75 2.875 5.75 1 7 C-1.6875 7.1875 -1.6875 7.1875 -4 7 C-3.34 6.21625 -2.68 5.4325 -2 4.625 C0.20201441 2.28487188 0.20201441 2.28487188 0 0 Z " fill="#CBE0AF" transform="translate(115,50)"/>
<path d="M0 0 C3.3 0.33 6.6 0.66 10 1 C10 1.66 10 2.32 10 3 C7.03 3 4.06 3 1 3 C0.67 2.01 0.34 1.02 0 0 Z " fill="#0C0C0B" transform="translate(213,216)"/>
<path d="M0 0 C0.66 0 1.32 0 2 0 C2 0.66 2 1.32 2 2 C3.98 2.66 5.96 3.32 8 4 C8 4.99 8 5.98 8 7 C7.4225 6.690625 6.845 6.38125 6.25 6.0625 C4.15705816 5.07416636 2.25464725 4.4831387 0 4 C0 2.68 0 1.36 0 0 Z " fill="#13100D" transform="translate(284,135)"/>
<path d="M0 0 C-2.42130331 2.42130331 -3.80111377 2.52840504 -7.125 3.125 C-8.49011719 3.37636719 -8.49011719 3.37636719 -9.8828125 3.6328125 C-10.58148438 3.75398438 -11.28015625 3.87515625 -12 4 C-8.41084094 -0.78554541 -5.58334594 -0.37222306 0 0 Z " fill="#8FC13C" transform="translate(19,108)"/>
<path d="M0 0 C0.33 0 0.66 0 1 0 C1.20413361 5.73842251 1.27141454 10.60539047 -1 16 C-1.33 16 -1.66 16 -2 16 C-2.09765625 9.84765625 -2.09765625 9.84765625 -2 8 C-1.67 7.67 -1.34 7.34 -1 7 C-0.63239269 4.67182036 -0.29758419 2.3381615 0 0 Z " fill="#F3F4E6" transform="translate(187,93)"/>
<path d="M0 0 C0.99 0.33 1.98 0.66 3 1 C2 4 2 4 0 5.0625 C-0.66 5.371875 -1.32 5.68125 -2 6 C-2.33 6.66 -2.66 7.32 -3 8 C-3.33 7.34 -3.66 6.68 -4 6 C-2.68 4.02 -1.36 2.04 0 0 Z " fill="#161110" transform="translate(288,79)"/>
<path d="M0 0 C2.64 0 5.28 0 8 0 C8.33 0.99 8.66 1.98 9 3 C6.03 2.67 3.06 2.34 0 2 C0 1.34 0 0.68 0 0 Z " fill="#120F0D" transform="translate(324,70)"/>
<path d="M0 0 C-0.99 1.485 -0.99 1.485 -2 3 C-5.625 3.1875 -5.625 3.1875 -9 3 C-9 2.34 -9 1.68 -9 1 C-5.57367167 -0.61798838 -3.61944899 -1.34053666 0 0 Z " fill="#CBDEA6" transform="translate(147,1)"/>
<path d="M0 0 C2.31 0 4.62 0 7 0 C7 0.99 7 1.98 7 3 C4.69 3 2.38 3 0 3 C0 2.01 0 1.02 0 0 Z " fill="#A9C974" transform="translate(65,221)"/>
<path d="M0 0 C1.32 0.33 2.64 0.66 4 1 C3.67 3.31 3.34 5.62 3 8 C2.34 8 1.68 8 1 8 C0.67 5.36 0.34 2.72 0 0 Z " fill="#9EBE6C" transform="translate(56,167)"/>
<path d="M0 0 C0.66 0 1.32 0 2 0 C1.6875 2.875 1.6875 2.875 1 6 C0.01 6.66 -0.98 7.32 -2 8 C-2 4.23312136 -1.76462683 3.08809695 0 0 Z " fill="#E6F3D8" transform="translate(163,223)"/>
<path d="M0 0 C0.33 0 0.66 0 1 0 C1 2.97 1 5.94 1 9 C0.01 9.33 -0.98 9.66 -2 10 C-1.85950482 8.52031676 -1.71245174 7.04125484 -1.5625 5.5625 C-1.48128906 4.73878906 -1.40007813 3.91507813 -1.31640625 3.06640625 C-1 1 -1 1 0 0 Z " fill="#9BB36C" transform="translate(57,198)"/>
<path d="M0 0 C0.66 0.33 1.32 0.66 2 1 C2 2.32 2 3.64 2 5 C-0.64 5.66 -3.28 6.32 -6 7 C-4.02 4.69 -2.04 2.38 0 0 Z " fill="#38372F" transform="translate(199,72)"/>
<path d="M0 0 C0.66 0 1.32 0 2 0 C2 0.66 2 1.32 2 2 C2.66 2 3.32 2 4 2 C4.33 1.34 4.66 0.68 5 0 C4.67 1.98 4.34 3.96 4 6 C3.01 6 2.02 6 1 6 C0.67 4.02 0.34 2.04 0 0 Z " fill="#B3CD8A" transform="translate(111,34)"/>
<path d="M0 0 C1.65 1.65 3.3 3.3 5 5 C4.34 5.66 3.68 6.32 3 7 C1.68 6.34 0.36 5.68 -1 5 C-0.67 3.35 -0.34 1.7 0 0 Z " fill="#E3E3DD" transform="translate(190,204)"/>
<path d="M0 0 C0.33 0 0.66 0 1 0 C1.1953125 6.0546875 1.1953125 6.0546875 1 8 C0.34 8.66 -0.32 9.32 -1 10 C-2.46726798 6.18510326 -1.43336419 3.70988378 0 0 Z " fill="#DADAD0" transform="translate(187,103)"/>
<path d="M0 0 C1.98 0 3.96 0 6 0 C6 0.66 6 1.32 6 2 C4.68 2 3.36 2 2 2 C1.67 3.32 1.34 4.64 1 6 C0.67 6 0.34 6 0 6 C0 4.02 0 2.04 0 0 Z " fill="#99B355" transform="translate(54,55)"/>
<path d="M0 0 C2 3 2 3 1.625 5.1875 C1.41875 5.785625 1.2125 6.38375 1 7 C0.34 7 -0.32 7 -1 7 C-1.33 7.99 -1.66 8.98 -2 10 C-1.125 2.25 -1.125 2.25 0 0 Z " fill="#7FAB3A" transform="translate(3,110)"/>
<path d="M0 0 C-3.20380017 2.13586678 -4.01939967 2.23132175 -7.6875 2.125 C-8.89986328 2.09792969 -8.89986328 2.09792969 -10.13671875 2.0703125 C-11.05904297 2.03550781 -11.05904297 2.03550781 -12 2 C-12 1.67 -12 1.34 -12 1 C-7.53763531 -0.80619523 -4.68965706 -1.11658501 0 0 Z " fill="#9AC159" transform="translate(55,113)"/>
<path d="M0 0 C4.875 2.625 4.875 2.625 6 6 C5.01 6.495 5.01 6.495 4 7 C4 6.34 4 5.68 4 5 C2.68 4.34 1.36 3.68 0 3 C0 2.01 0 1.02 0 0 Z " fill="#0E0A0A" transform="translate(313,191)"/>
<path d="M0 0 C-2.5654594 2.5654594 -4.47686668 2.54046087 -8 3 C-7.67 2.01 -7.34 1.02 -7 0 C-4.05610218 -1.17755913 -3.10046087 -1.03348696 0 0 Z " fill="#8FB551" transform="translate(36,161)"/>
</svg>
