<?xml version="1.0" encoding="UTF-8"?>
<svg version="1.1" xmlns="http://www.w3.org/2000/svg" width="128" height="128">
<path d="M0 0 C1.03980515 -0.01270432 1.03980515 -0.01270432 2.10061646 -0.02566528 C4.38774057 -0.04902651 6.67419147 -0.05005761 8.96142578 -0.04882812 C10.55559558 -0.05593103 12.14976283 -0.06363022 13.743927 -0.07189941 C17.08456528 -0.08534272 20.42496725 -0.08691409 23.765625 -0.08105469 C28.03863461 -0.07516312 32.31050621 -0.10572693 36.58329582 -0.14617157 C39.87596707 -0.17207277 43.16836534 -0.17492376 46.46112442 -0.17127991 C48.03594952 -0.17296938 49.61078746 -0.18259535 51.18551254 -0.20042419 C53.39266905 -0.22266092 55.59753617 -0.21289161 57.8046875 -0.1953125 C59.68521317 -0.19839417 59.68521317 -0.19839417 61.60372925 -0.20153809 C66.66207267 0.71548339 69.25775644 3.08590744 72.38858032 7.20510864 C73.40845741 10.71721208 73.32637854 14.23098732 73.32226562 17.85693359 C73.32898285 18.70619415 73.33570007 19.55545471 73.34262085 20.43045044 C73.36161284 23.23689633 73.36552564 26.04310323 73.36767578 28.84960938 C73.37410286 30.80250141 73.38083115 32.75539247 73.3878479 34.70828247 C73.39982366 38.80212639 73.40352841 42.8958859 73.40234375 46.98974609 C73.40214054 52.23107311 73.4294433 57.47185801 73.46388817 62.71305656 C73.4861447 66.74686155 73.49018167 70.78053581 73.4891243 74.8143959 C73.49148211 76.74647007 73.50031576 78.67854773 73.51578903 80.61056137 C73.53542381 83.31546552 73.52962102 86.01919736 73.51757812 88.72412109 C73.52881714 89.51913025 73.54005615 90.3141394 73.55163574 91.13323975 C73.48192788 97.30644456 71.59687505 100.80633583 67.21725464 105.26867676 C64.10697513 106.90705118 61.56932512 106.81627009 58.06347656 106.83984375 C57.37027313 106.84831329 56.6770697 106.85678284 55.96286011 106.86550903 C53.67573599 106.88887026 51.3892851 106.88990136 49.10205078 106.88867188 C47.50788098 106.89577478 45.91371374 106.90347397 44.31954956 106.91174316 C40.97891128 106.92518647 37.63850931 106.92675784 34.29785156 106.92089844 C30.02484195 106.91500687 25.75297035 106.94557068 21.48018074 106.98601532 C18.18750949 107.01191652 14.89511122 107.01476751 11.60235214 107.01112366 C10.02752704 107.01281313 8.4526891 107.0224391 6.87796402 107.04026794 C4.67080751 107.06250467 2.4659404 107.05273536 0.25878906 107.03515625 C-0.99489471 107.03721069 -2.24857849 107.03926514 -3.54025269 107.04138184 C-8.59859611 106.12436036 -11.19427988 103.75393631 -14.32510376 99.63473511 C-15.34498085 96.12263167 -15.26290198 92.60885643 -15.25878906 88.98291016 C-15.26550629 88.1336496 -15.27222351 87.28438904 -15.27914429 86.40939331 C-15.29813627 83.60294742 -15.30204908 80.79674052 -15.30419922 77.99023438 C-15.3106263 76.03734234 -15.31735459 74.08445128 -15.32437134 72.13156128 C-15.33634709 68.03771736 -15.34005185 63.94395785 -15.33886719 59.85009766 C-15.33866398 54.60877064 -15.36596673 49.36798574 -15.40041161 44.12678719 C-15.42266814 40.0929822 -15.42670511 36.05930794 -15.42564774 32.02544785 C-15.42800555 30.09337368 -15.4368392 28.16129602 -15.45231247 26.22928238 C-15.47194725 23.52437823 -15.46614446 20.82064639 -15.45410156 18.11572266 C-15.46534058 17.3207135 -15.47657959 16.52570435 -15.48815918 15.706604 C-15.41845131 9.53339919 -13.53339849 6.03350792 -9.15377808 1.57116699 C-6.04349857 -0.06720743 -3.50584856 0.02357366 0 0 Z M-5.96826172 8.41992188 C-8.46227364 12.16093976 -8.25688399 15.07688435 -8.24291992 19.40795898 C-8.24803085 20.22127182 -8.25314178 21.03458466 -8.25840759 21.87254333 C-8.27232095 24.56419204 -8.27134552 27.2555852 -8.26904297 29.94726562 C-8.27292895 31.81669714 -8.27726342 33.68612777 -8.2820282 35.55555725 C-8.28949416 39.47546245 -8.28919641 43.3952776 -8.28393555 47.31518555 C-8.2781405 52.34030448 -8.29507092 57.36505489 -8.31828022 62.39011288 C-8.33300689 66.2514105 -8.33389071 70.11261916 -8.33077049 73.9739399 C-8.33128424 75.82671399 -8.33653208 77.679493 -8.34658241 79.53223991 C-8.35890886 82.12256745 -8.35217816 84.71217437 -8.34057617 87.30249023 C-8.34821991 88.06885803 -8.35586365 88.83522583 -8.36373901 89.62481689 C-8.33270651 92.75691666 -8.15365104 95.06395082 -6.69499207 97.86476135 C-3.27383949 100.94598445 0.48285635 100.54897352 4.91430664 100.56518555 C6.09911118 100.5715654 7.28391571 100.57794525 8.50462341 100.58451843 C9.78071976 100.58563126 11.0568161 100.58674408 12.37158203 100.58789062 C13.68582657 100.59121902 15.00007111 100.59454742 16.35414124 100.59797668 C19.13397035 100.60395712 21.91376842 100.60581767 24.69360352 100.60522461 C28.24889944 100.60512297 31.80399573 100.61878129 35.35924435 100.63599682 C38.75919324 100.64981276 42.15910543 100.64920606 45.55908203 100.65039062 C47.4701902 100.6611689 47.4701902 100.6611689 49.41990662 100.67216492 C50.60786331 100.66908829 51.79582001 100.66601166 53.01977539 100.6628418 C54.06250107 100.66426682 55.10522675 100.66569183 56.17955017 100.66716003 C59.21401167 100.40412175 61.33441024 99.82577788 64.03173828 98.41992188 C66.5257502 94.67890399 66.32036055 91.7629594 66.30639648 87.43188477 C66.31406288 86.21191551 66.31406288 86.21191551 66.32188416 84.96730042 C66.33579751 82.27565171 66.33482209 79.58425855 66.33251953 76.89257812 C66.33640551 75.02314661 66.34073998 73.15371598 66.34550476 71.2842865 C66.35297073 67.3643813 66.35267297 63.44456615 66.34741211 59.5246582 C66.34161706 54.49953927 66.35854748 49.47478886 66.38175678 44.44973087 C66.39648345 40.58843325 66.39736728 36.72722459 66.39424706 32.86590385 C66.39476081 31.01312976 66.40000864 29.16035075 66.41005898 27.30760384 C66.42238542 24.7172763 66.41565472 22.12766938 66.40405273 19.53735352 C66.41169647 18.77098572 66.41934021 18.00461792 66.42721558 17.21502686 C66.39618307 14.08292709 66.21712761 11.77589293 64.75846863 8.9750824 C61.33731606 5.8938593 57.58062021 6.29087023 53.14916992 6.2746582 C51.37196312 6.26508842 51.37196312 6.26508842 49.55885315 6.25532532 C48.28275681 6.25421249 47.00666046 6.25309967 45.69189453 6.25195312 C44.37764999 6.24862473 43.06340546 6.24529633 41.70933533 6.24186707 C38.92950621 6.23588663 36.14970814 6.23402608 33.36987305 6.23461914 C29.81457712 6.23472078 26.25948083 6.22106246 22.70423222 6.20384693 C19.30428332 6.19003099 15.90437113 6.19063769 12.50439453 6.18945312 C10.59328636 6.17867485 10.59328636 6.17867485 8.64356995 6.16767883 C6.8616349 6.17229378 6.8616349 6.17229378 5.04370117 6.17700195 C4.00097549 6.17557693 2.95824982 6.17415192 1.88392639 6.17268372 C-1.1505351 6.435722 -3.27093368 7.01406587 -5.96826172 8.41992188 Z " fill="#000000" transform="translate(34.96826171875,8.580078125)"/>
<path d="M0 0 C20.46 0 40.92 0 62 0 C62 4.95 62 9.9 62 15 C41.54 15 21.08 15 0 15 C0 10.05 0 5.1 0 0 Z " fill="#000000" transform="translate(33,22)"/>
<path d="M0 0 C0.99261337 0.00222061 1.98522675 0.00444122 3.00791931 0.00672913 C4.12900589 0.00680466 5.25009247 0.00688019 6.40515137 0.00695801 C8.2348069 0.01469994 8.2348069 0.01469994 10.10142517 0.02259827 C11.96377052 0.02472069 11.96377052 0.02472069 13.86373901 0.02688599 C17.16982383 0.03154861 20.47584039 0.04053955 23.78190613 0.05158997 C27.15338042 0.06180625 30.52486175 0.06638407 33.89634705 0.07142639 C40.51550667 0.08248056 47.13463385 0.09923715 53.75376892 0.12025452 C54.13595659 1.77640109 54.46771994 3.44482476 54.75376892 5.12025452 C53.75376892 6.12025452 53.75376892 6.12025452 51.50753784 6.24050903 C50.51492447 6.23828842 49.5223111 6.23606781 48.49961853 6.23377991 C47.37853195 6.23370438 46.25744537 6.23362885 45.10238647 6.23355103 C43.27273094 6.2258091 43.27273094 6.2258091 41.40611267 6.21791077 C40.1645491 6.21649582 38.92298553 6.21508087 37.64379883 6.21362305 C34.33771401 6.20896042 31.03169746 6.19996948 27.72563171 6.18891907 C24.35415742 6.17870279 20.98267609 6.17412496 17.6111908 6.16908264 C10.99203118 6.15802847 4.37290399 6.14127188 -2.24623108 6.12025452 C-2.62841875 4.46410794 -2.9601821 2.79568427 -3.24623108 1.12025452 C-2.24623108 0.12025452 -2.24623108 0.12025452 0 0 Z " fill="#000000" transform="translate(37.24623107910156,65.87974548339844)"/>
<path d="M0 0 C0.99261337 0.00222061 1.98522675 0.00444122 3.00791931 0.00672913 C4.12900589 0.00680466 5.25009247 0.00688019 6.40515137 0.00695801 C8.2348069 0.01469994 8.2348069 0.01469994 10.10142517 0.02259827 C11.96377052 0.02472069 11.96377052 0.02472069 13.86373901 0.02688599 C17.16982383 0.03154861 20.47584039 0.04053955 23.78190613 0.05158997 C27.15338042 0.06180625 30.52486175 0.06638407 33.89634705 0.07142639 C40.51550667 0.08248056 47.13463385 0.09923715 53.75376892 0.12025452 C54.13595659 1.77640109 54.46771994 3.44482476 54.75376892 5.12025452 C53.75376892 6.12025452 53.75376892 6.12025452 51.50753784 6.24050903 C50.51492447 6.23828842 49.5223111 6.23606781 48.49961853 6.23377991 C47.37853195 6.23370438 46.25744537 6.23362885 45.10238647 6.23355103 C43.27273094 6.2258091 43.27273094 6.2258091 41.40611267 6.21791077 C40.1645491 6.21649582 38.92298553 6.21508087 37.64379883 6.21362305 C34.33771401 6.20896042 31.03169746 6.19996948 27.72563171 6.18891907 C24.35415742 6.17870279 20.98267609 6.17412496 17.6111908 6.16908264 C10.99203118 6.15802847 4.37290399 6.14127188 -2.24623108 6.12025452 C-2.62841875 4.46410794 -2.9601821 2.79568427 -3.24623108 1.12025452 C-2.24623108 0.12025452 -2.24623108 0.12025452 0 0 Z " fill="#000000" transform="translate(37.24623107910156,50.87974548339844)"/>
<path d="M0 0 C1.34888732 0.00015905 2.69778075 0.00584927 4.04663086 0.01586914 C5.10991859 0.01799156 5.10991859 0.01799156 6.19468689 0.02015686 C8.46699173 0.02577096 10.73919936 0.03832576 13.01147461 0.05102539 C14.54858257 0.05603858 16.08569206 0.0606018 17.62280273 0.06469727 C21.39823103 0.07574497 25.17358632 0.09301898 28.94897461 0.11352539 C28.94897461 2.09352539 28.94897461 4.07352539 28.94897461 6.11352539 C18.38897461 6.11352539 7.82897461 6.11352539 -3.05102539 6.11352539 C-3.38102539 4.46352539 -3.71102539 2.81352539 -4.05102539 1.11352539 C-3.05102539 0.11352539 -3.05102539 0.11352539 0 0 Z " fill="#000000" transform="translate(38.051025390625,80.886474609375)"/>
</svg>
