<?xml version="1.0" encoding="UTF-8"?>
<svg version="1.1" xmlns="http://www.w3.org/2000/svg" width="48" height="48">
<path d="M0 0 C3.96 0 7.92 0 12 0 C12.66 1.98 13.32 3.96 14 6 C14.9075 5.7525 15.815 5.505 16.75 5.25 C20 5 20 5 22.25 6.6875 C26.13475177 11.82092199 26.13475177 11.82092199 25.75 15.1875 C25 17 25 17 23 18 C23 19.32 23 20.64 23 22 C23.99 22.66 24.98 23.32 26 24 C25.43589129 27.94876098 24.34264206 30.75634176 22 34 C18.71023192 35.09658936 17.28696233 34.79953138 14 34 C13.34 35.98 12.68 37.96 12 40 C8.04 40 4.08 40 0 40 C-0.66 38.02 -1.32 36.04 -2 34 C-2.9075 34.2475 -3.815 34.495 -4.75 34.75 C-8 35 -8 35 -10.25 33.3125 C-14.13475177 28.17907801 -14.13475177 28.17907801 -13.75 24.8125 C-13 23 -13 23 -11 22 C-11 20.68 -11 19.36 -11 18 C-11.99 17.34 -12.98 16.68 -14 16 C-13.43589129 12.05123902 -12.34264206 9.24365824 -10 6 C-6.71023192 4.90341064 -5.28696233 5.20046862 -2 6 C-1.34 4.02 -0.68 2.04 0 0 Z M4 4 C3.54625 4.804375 3.0925 5.60875 2.625 6.4375 C1 9 1 9 -2 9.75 C-2.99 9.8325 -3.98 9.915 -5 10 C-5.99 10.33 -6.98 10.66 -8 11 C-8.33 11.99 -8.66 12.98 -9 14 C-8.34 14.66 -7.68 15.32 -7 16 C-6.53623188 23.30434783 -6.53623188 23.30434783 -9 27 C-8.34 27.99 -7.68 28.98 -7 30 C-5.00045254 30.04254356 -2.99958364 30.04080783 -1 30 C2.0109362 32.0072908 2.63016497 32.83884224 4 36 C6.44480079 35.81171228 6.44480079 35.81171228 9 35 C9.309375 34.34 9.61875 33.68 9.9375 33 C10.4634375 32.01 10.4634375 32.01 11 31 C13.9375 30.3125 13.9375 30.3125 17 30 C17.99 29.67 18.98 29.34 20 29 C20.33 28.01 20.66 27.02 21 26 C20.34 25.34 19.68 24.68 19 24 C18.53623188 16.69565217 18.53623188 16.69565217 21 13 C20.34 12.01 19.68 11.02 19 10 C17.00045254 9.95745644 14.99958364 9.95919217 13 10 C9.9890638 7.9927092 9.36983503 7.16115776 8 4 C6.68 4 5.36 4 4 4 Z " fill="#000000" transform="translate(18,4)"/>
<path d="M0 0 C2.5 1.5 2.5 1.5 4 4 C4.791013 8.02098277 4.62153384 10.96411027 2.5 14.5 C-1.03588973 16.62153384 -3.97901723 16.791013 -8 16 C-10.5 14.5 -10.5 14.5 -12 12 C-12.791013 7.97901723 -12.62153384 5.03588973 -10.5 1.5 C-6.96411027 -0.62153384 -4.02098277 -0.791013 0 0 Z M-8 5 C-8.16666667 8 -8.16666667 8 -8 11 C-6.88163776 12.34404775 -6.88163776 12.34404775 -4 12.125 C-1.11836224 12.34404775 -1.11836224 12.34404775 0 11 C0.16666667 8 0.16666667 8 0 5 C-1.11836224 3.65595225 -1.11836224 3.65595225 -4 3.875 C-6.88163776 3.65595225 -6.88163776 3.65595225 -8 5 Z " fill="#000000" transform="translate(28,16)"/>
</svg>
