<?xml version="1.0" encoding="UTF-8"?>
<svg version="1.1" xmlns="http://www.w3.org/2000/svg" width="48" height="48">
<path d="M0 0 C2.475 0.495 2.475 0.495 5 1 C5 3.64 5 6.28 5 9 C14.9 9 24.8 9 35 9 C35 6.36 35 3.72 35 1 C36.65 0.67 38.3 0.34 40 0 C40 4.62 40 9.24 40 14 C26.8 14 13.6 14 0 14 C0 9.38 0 4.76 0 0 Z " fill="#000000" transform="translate(4,29)"/>
<path d="M0 0 C0.90492187 0.02320313 1.80984375 0.04640625 2.7421875 0.0703125 C4.10730469 0.09738281 4.10730469 0.09738281 5.5 0.125 C6.19867188 0.14820313 6.89734375 0.17140625 7.6171875 0.1953125 C7.6171875 1.5153125 7.6171875 2.8353125 7.6171875 4.1953125 C5.3071875 4.8553125 2.9971875 5.5153125 0.6171875 6.1953125 C0.2871875 7.8453125 -0.0428125 9.4953125 -0.3828125 11.1953125 C0.9371875 11.1953125 2.2571875 11.1953125 3.6171875 11.1953125 C2.24564246 14.14940951 0.62855026 16.63539626 -1.3828125 19.1953125 C-4.73901521 17.80653896 -6.45579978 16.27853285 -8.3828125 13.1953125 C-8.3828125 12.5353125 -8.3828125 11.8753125 -8.3828125 11.1953125 C-7.0628125 11.1953125 -5.7428125 11.1953125 -4.3828125 11.1953125 C-4.40601563 10.56882812 -4.42921875 9.94234375 -4.453125 9.296875 C-4.47117187 8.47960938 -4.48921875 7.66234375 -4.5078125 6.8203125 C-4.53101563 6.00820313 -4.55421875 5.19609375 -4.578125 4.359375 C-4.28496522 1.11116468 -3.20109799 0.26238508 0 0 Z " fill="#000000" transform="translate(35.3828125,14.8046875)"/>
<path d="M0 0 C1.62463842 -0.05395478 3.24978541 -0.09277195 4.875 -0.125 C5.77992187 -0.14820313 6.68484375 -0.17140625 7.6171875 -0.1953125 C10 0 10 0 12 2 C12.1953125 4.1640625 12.1953125 4.1640625 12.125 6.625 C12.10695313 7.44226563 12.08890625 8.25953125 12.0703125 9.1015625 C12.03550781 10.04128906 12.03550781 10.04128906 12 11 C13.32 11 14.64 11 16 11 C14.62845496 13.95409701 13.01136276 16.44008376 11 19 C7.64379729 17.61122646 5.92701272 16.08322035 4 13 C4 12.34 4 11.68 4 11 C5.32 11 6.64 11 8 11 C7.34 9.02 6.68 7.04 6 5 C3.03 4.505 3.03 4.505 0 4 C0 2.68 0 1.36 0 0 Z " fill="#000000" transform="translate(5,15)"/>
<path d="M0 0 C1.32 0 2.64 0 4 0 C4 4.29 4 8.58 4 13 C5.32 13 6.64 13 8 13 C6.62845496 15.95409701 5.01136276 18.44008376 3 21 C-0.35620271 19.61122646 -2.07298728 18.08322035 -4 15 C-4 14.34 -4 13.68 -4 13 C-2.68 13 -1.36 13 0 13 C0 8.71 0 4.42 0 0 Z " fill="#000000" transform="translate(22,4)"/>
</svg>
