<?xml version="1.0" encoding="UTF-8"?>
<svg version="1.1" xmlns="http://www.w3.org/2000/svg" width="64" height="64">
<path d="M0 0 C1.43085938 -0.00773438 1.43085938 -0.00773438 2.890625 -0.015625 C3.87546875 -0.00015625 4.8603125 0.0153125 5.875 0.03125 C7.35226563 0.00804687 7.35226563 0.00804687 8.859375 -0.015625 C13.22052833 0.0079488 16.14336602 0.14513491 20.04296875 2.203125 C22.33956202 5.12161026 22.40590063 6.61211938 22.1875 10.28125 C22.14238281 11.26609375 22.09726562 12.2509375 22.05078125 13.265625 C21.96376953 14.38710938 21.96376953 14.38710938 21.875 15.53125 C20.885 14.87125 19.895 14.21125 18.875 13.53125 C17.21950469 13.14625109 15.5527567 12.80331865 13.875 12.53125 C13.875 11.21125 13.875 9.89125 13.875 8.53125 C8.595 8.53125 3.315 8.53125 -2.125 8.53125 C-2.125 18.43125 -2.125 28.33125 -2.125 38.53125 C3.155 38.53125 8.435 38.53125 13.875 38.53125 C13.875 37.21125 13.875 35.89125 13.875 34.53125 C14.82375 34.221875 15.7725 33.9125 16.75 33.59375 C19.73580408 32.65730258 19.73580408 32.65730258 21.875 31.53125 C22.01060864 33.27909467 22.10727209 35.02998926 22.1875 36.78125 C22.24550781 37.75578125 22.30351563 38.7303125 22.36328125 39.734375 C21.875 42.53125 21.875 42.53125 20.04296875 44.859375 C15.35578146 47.33300775 11.09501607 47.11323978 5.875 47.03125 C4.89015625 47.04671875 3.9053125 47.0621875 2.890625 47.078125 C1.93671875 47.07296875 0.9828125 47.0678125 0 47.0625 C-0.86367188 47.05798828 -1.72734375 47.05347656 -2.6171875 47.04882812 C-6.16743431 46.31610585 -7.71210335 45.24914018 -10.125 42.53125 C-10.63268623 39.48743156 -10.82764543 37.01085106 -10.7890625 33.96875 C-10.79623795 32.72629517 -10.79623795 32.72629517 -10.80355835 31.45874023 C-10.80695533 29.71042986 -10.79776682 27.9620558 -10.77685547 26.21386719 C-10.75008332 23.53957336 -10.77660615 20.86947598 -10.80859375 18.1953125 C-10.80528961 16.49478241 -10.79888328 14.79425494 -10.7890625 13.09375 C-10.79918365 12.29573975 -10.80930481 11.49772949 -10.81973267 10.67553711 C-10.73908257 6.85009425 -10.48010203 4.93123742 -7.90380859 2.02929688 C-4.97115373 0.44831196 -3.30107072 0.0172444 0 0 Z " fill="#000000" transform="translate(26.125,8.46875)"/>
<path d="M0 0 C4.03691502 0.42753479 6.17009184 2.52910579 8.84765625 5.390625 C10 7 10 7 10.25 9.5 C8.5335082 12.9329836 6.29391066 15.94805565 3 18 C0.86328125 17.7890625 0.86328125 17.7890625 -1 17 C-1.33 16.34 -1.66 15.68 -2 15 C-1.67 14.34 -1.34 13.68 -1 13 C-4.63 12.67 -8.26 12.34 -12 12 C-12.33 10.35 -12.66 8.7 -13 7 C-11.26043342 5.26043342 -8.8063378 5.62809614 -6.4375 5.4375 C-5.42558594 5.35371094 -4.41367187 5.26992188 -3.37109375 5.18359375 C-2.58863281 5.12300781 -1.80617188 5.06242187 -1 5 C-1.33 4.01 -1.66 3.02 -2 2 C-1.34 1.34 -0.68 0.68 0 0 Z " fill="#000000" transform="translate(41,23)"/>
</svg>
