<?xml version="1.0" encoding="UTF-8"?>
<svg version="1.1" xmlns="http://www.w3.org/2000/svg" width="485" height="158">
<path d="M0 0 C0.7425 -0.020625 1.485 -0.04125 2.25 -0.0625 C7.98924922 -0.10306007 11.77225058 1.17199726 16.48046875 4.6015625 C20.5886573 10.5184757 17.17434974 22.24968071 16.0625 28.828125 C15.918125 29.62734375 15.77375 30.4265625 15.625 31.25 C16.8625 31.4975 18.1 31.745 19.375 32 C23.15763093 32.96406877 25.32913979 33.9439613 27.625 37.25 C28.375 40.5 28.375 40.5 28.625 43.25 C29.718125 42.59 30.81125 41.93 31.9375 41.25 C37.06895831 38.65678089 41.98490998 38.69419145 47.625 39.25 C48.615 39.58 49.605 39.91 50.625 40.25 C50.68558594 38.96222656 50.74617187 37.67445312 50.80859375 36.34765625 C50.89298247 34.66925841 50.9776313 32.99087364 51.0625 31.3125 C51.10181641 30.46236328 51.14113281 29.61222656 51.18164062 28.73632812 C51.22353516 27.92744141 51.26542969 27.11855469 51.30859375 26.28515625 C51.36358032 25.16185913 51.36358032 25.16185913 51.41967773 24.01586914 C51.625 22.25 51.625 22.25 52.625 21.25 C54.17455559 21.15100477 55.72853673 21.11920476 57.28125 21.1171875 C58.22097656 21.11589844 59.16070312 21.11460938 60.12890625 21.11328125 C61.11761719 21.11714844 62.10632813 21.12101562 63.125 21.125 C64.60806641 21.11919922 64.60806641 21.11919922 66.12109375 21.11328125 C67.53068359 21.11521484 67.53068359 21.11521484 68.96875 21.1171875 C69.83693359 21.11831543 70.70511719 21.11944336 71.59960938 21.12060547 C73.625 21.25 73.625 21.25 74.625 22.25 C74.72568417 25.38023484 74.7611416 28.4884492 74.75439453 31.61914062 C74.75702301 33.09461617 74.75702301 33.09461617 74.75970459 34.59989929 C74.76412505 37.86870053 74.76118443 41.13744816 74.7578125 44.40625 C74.75848548 46.66687022 74.75945546 48.92749038 74.76071167 51.18811035 C74.76218891 55.93286832 74.76003326 60.67760749 74.75537109 65.42236328 C74.7496738 71.51938624 74.75295266 77.61636519 74.75894356 83.71338654 C74.76254848 88.38348729 74.7614109 93.05357753 74.75881577 97.72367859 C74.7581463 99.97246811 74.75897558 102.22125857 74.76129532 104.470047 C74.76382071 107.60701038 74.75998285 110.74390141 74.75439453 113.88085938 C74.75641876 114.82011765 74.75844299 115.75937592 74.76052856 116.72709656 C74.73926225 123.13573775 74.73926225 123.13573775 73.625 124.25 C70.96846557 124.35002455 68.34370728 124.38877463 65.6875 124.375 C64.94564453 124.37886719 64.20378906 124.38273437 63.43945312 124.38671875 C57.87827002 124.37663501 57.87827002 124.37663501 55.625 123.25 C54.88894531 123.55164063 54.15289062 123.85328125 53.39453125 124.1640625 C47.77187141 126.36871615 40.86768561 126.22531939 35.10546875 124.4921875 C31.44604723 122.76771057 28.53095774 120.94279313 26.625 117.25 C26.625 116.26 26.625 115.27 26.625 114.25 C25.965 114.25 25.305 114.25 24.625 114.25 C24.64820312 114.84167969 24.67140625 115.43335937 24.6953125 116.04296875 C24.79911464 120.58801959 24.76208357 124.10940059 22.625 128.25 C19.325 128.58 16.025 128.91 12.625 129.25 C13.45670963 135.03282815 14.28275809 140.66803454 16.25 146.1875 C17.36341517 149.32892138 18.21918048 151.88297725 17.625 155.25 C16.46435547 156.85571289 16.46435547 156.85571289 14.625 158.25 C10.36413637 158.90016866 6.05481484 158.7130962 1.75 158.6875 C0.56535156 158.70748047 -0.61929688 158.72746094 -1.83984375 158.74804688 C-2.98324219 158.74740234 -4.12664062 158.74675781 -5.3046875 158.74609375 C-6.34866699 158.74794678 -7.39264648 158.7497998 -8.46826172 158.75170898 C-12.11938307 158.12151796 -13.79923363 156.87817171 -16.375 154.25 C-17.06862548 148.60190678 -15.91851374 143.49436163 -14.8203125 137.94921875 C-14.22140707 134.31901126 -14.23648065 130.92076276 -14.375 127.25 C-23.63697617 127.07210867 -32.72095814 127.78384901 -41.9375 128.62695312 C-43.01257812 128.72041016 -44.08765625 128.81386719 -45.1953125 128.91015625 C-46.16742676 128.99918213 -47.13954102 129.08820801 -48.14111328 129.17993164 C-48.8782959 129.2030542 -49.61547852 129.22617676 -50.375 129.25 C-50.705 128.92 -51.035 128.59 -51.375 128.25 C-51.2890625 126.5 -51.2890625 126.5 -51 124.25 C-50.90074219 123.43144531 -50.80148438 122.61289063 -50.69921875 121.76953125 C-50.4977465 120.20387341 -50.29268418 118.63866782 -50.08203125 117.07421875 C-48.2261644 105.24800744 -48.2261644 105.24800744 -51.375 94.25 C-55.90883158 91.98308421 -62.43686059 93.96378798 -67.0625 95.375 C-71.0939397 96.4399086 -73.40666323 96.59773702 -77.375 95.25 C-81.66292328 89.79940004 -81.96746098 83.79332082 -81.8125 77.125 C-81.81958984 76.25746094 -81.82667969 75.38992187 -81.83398438 74.49609375 C-81.78139451 69.18047234 -81.37139626 64.24639626 -77.375 60.25 C-70.62329306 59.79207666 -64.84874958 60.25807705 -58.375 62.25 C-55.68144642 62.41266576 -53.07694022 62.34480492 -50.375 62.25 C-49.21044174 58.75632522 -49.24239695 55.99617735 -49.25 52.3125 C-49.2512085 51.65169434 -49.25241699 50.99088867 -49.25366211 50.31005859 C-49.29519999 44.98937591 -49.68245106 39.73656426 -50.25390625 34.4453125 C-50.29386719 33.72085938 -50.33382812 32.99640625 -50.375 32.25 C-50.045 31.92 -49.715 31.59 -49.375 31.25 C-47.30947717 31.34374994 -45.2468442 31.50236473 -43.1875 31.6875 C-29.71149933 32.84160196 -29.71149933 32.84160196 -16.375 31.25 C-16.90269928 27.20430552 -17.59003139 23.29053843 -18.5 19.3125 C-19.45028492 14.50259632 -19.66768168 11.01676371 -18.375 6.25 C-13.38627903 0.07933591 -7.38499714 0.05075599 0 0 Z M48.625 54.25 C47.37718415 55.27527884 47.37718415 55.27527884 47.50474548 57.45826721 C47.50696609 58.43311569 47.50918671 59.40796417 47.51147461 60.41235352 C47.51155014 61.51341934 47.51162567 62.61448517 47.51170349 63.74891663 C47.51686478 64.9468132 47.52202606 66.14470978 47.52734375 67.37890625 C47.5287587 68.59827377 47.53017365 69.8176413 47.53163147 71.07395935 C47.53725033 74.9868307 47.54980604 78.89964581 47.5625 82.8125 C47.56751257 85.45768147 47.5720759 88.10286383 47.57617188 90.74804688 C47.58722589 97.24871726 47.60398236 103.74935461 47.625 110.25 C48.615 110.58 49.605 110.91 50.625 111.25 C52.81933666 105.05802234 52.88538968 99.37699264 52.8203125 92.84765625 C52.8174826 91.76995468 52.81465271 90.69225311 52.81173706 89.58189392 C52.80059193 86.15864701 52.77549756 82.73566709 52.75 79.3125 C52.73996289 76.98372775 52.73083832 74.65495138 52.72265625 72.32617188 C52.70067116 66.63402435 52.66725013 60.94203126 52.625 55.25 C50.67896726 54.65929986 50.67896726 54.65929986 48.625 54.25 Z M12.625 67.25 C9.8520898 70.02787958 8.72205201 71.64627942 8.09375 75.5546875 C8.00712118 85.21658423 8.00712118 85.21658423 12.625 93.25 C15.52324249 94.92513098 18.49474455 96.08717623 21.625 97.25 C22.945 97.91 24.265 98.57 25.625 99.25 C25.625 87.7 25.625 76.15 25.625 64.25 C19.87489378 64.25 17.53189663 64.61481478 12.625 67.25 Z " fill="#C2E991" transform="translate(81.375,-0.25)"/>
<path d="M0 0 C0.93972656 -0.00128906 1.87945312 -0.00257812 2.84765625 -0.00390625 C3.83636719 -0.00003906 4.82507813 0.00382812 5.84375 0.0078125 C7.32681641 0.00201172 7.32681641 0.00201172 8.83984375 -0.00390625 C10.24943359 -0.00197266 10.24943359 -0.00197266 11.6875 0 C12.55568359 0.00112793 13.42386719 0.00225586 14.31835938 0.00341797 C16.34375 0.1328125 16.34375 0.1328125 17.34375 1.1328125 C17.44443417 4.26304734 17.4798916 7.3712617 17.47314453 10.50195312 C17.47489685 11.48560349 17.47664917 12.46925385 17.47845459 13.48271179 C17.48287505 16.75151303 17.47993443 20.02026066 17.4765625 23.2890625 C17.47723548 25.54968272 17.47820546 27.81030288 17.47946167 30.07092285 C17.48093891 34.81568082 17.47878326 39.56041999 17.47412109 44.30517578 C17.4684238 50.40219874 17.47170266 56.49917769 17.47769356 62.59619904 C17.48129848 67.26629979 17.4801609 71.93639003 17.47756577 76.60649109 C17.4768963 78.85528061 17.47772558 81.10407107 17.48004532 83.3528595 C17.48257071 86.48982288 17.47873285 89.62671391 17.47314453 92.76367188 C17.47516876 93.70293015 17.47719299 94.64218842 17.47927856 95.60990906 C17.45801225 102.01855025 17.45801225 102.01855025 16.34375 103.1328125 C13.68721557 103.23283705 11.06245728 103.27158713 8.40625 103.2578125 C7.66439453 103.26167969 6.92253906 103.26554687 6.15820312 103.26953125 C0.59702002 103.25944751 0.59702002 103.25944751 -1.65625 102.1328125 C-2.39230469 102.43445313 -3.12835938 102.73609375 -3.88671875 103.046875 C-9.50937859 105.25152865 -16.41356439 105.10813189 -22.17578125 103.375 C-25.87786624 101.63041821 -28.64277493 99.80444351 -30.65625 96.1328125 C-31.62575161 93.22430768 -31.78282652 91.3738899 -31.78564453 88.34863281 C-31.78879669 87.37621643 -31.79194885 86.40380005 -31.79519653 85.4019165 C-31.7931723 84.34889343 -31.79114807 83.29587036 -31.7890625 82.2109375 C-31.79001923 81.11875916 -31.79097595 80.02658081 -31.79196167 78.90130615 C-31.79264315 76.58117617 -31.7907911 74.2610443 -31.78662109 71.94091797 C-31.78133396 68.43843115 -31.78653491 64.93607623 -31.79296875 61.43359375 C-31.80642785 28.67649528 -31.80642785 28.67649528 -28.65625 22.1328125 C-23.85771836 17.93560061 -18.17643176 17.73100227 -12.07421875 17.89453125 C-9.65625 18.1328125 -9.65625 18.1328125 -6.65625 19.1328125 C-6.59566406 17.84503906 -6.53507812 16.55726562 -6.47265625 15.23046875 C-6.38826753 13.55207091 -6.3036187 11.87368614 -6.21875 10.1953125 C-6.17943359 9.34517578 -6.14011719 8.49503906 -6.09960938 7.61914062 C-6.05771484 6.81025391 -6.01582031 6.00136719 -5.97265625 5.16796875 C-5.93599854 4.419104 -5.89934082 3.67023926 -5.86157227 2.89868164 C-5.4392924 -0.73312604 -3.14828403 0.0040902 0 0 Z M-8.65625 33.1328125 C-9.90406585 34.15809134 -9.90406585 34.15809134 -9.77650452 36.34107971 C-9.77428391 37.31592819 -9.77206329 38.29077667 -9.76977539 39.29516602 C-9.76969986 40.39623184 -9.76962433 41.49729767 -9.76954651 42.63172913 C-9.76438522 43.8296257 -9.75922394 45.02752228 -9.75390625 46.26171875 C-9.7524913 47.48108627 -9.75107635 48.7004538 -9.74961853 49.95677185 C-9.74399967 53.8696432 -9.73144396 57.78245831 -9.71875 61.6953125 C-9.71373743 64.34049397 -9.7091741 66.98567633 -9.70507812 69.63085938 C-9.69402411 76.13152976 -9.67726764 82.63216711 -9.65625 89.1328125 C-8.66625 89.4628125 -7.67625 89.7928125 -6.65625 90.1328125 C-4.46191334 83.94083484 -4.39586032 78.25980514 -4.4609375 71.73046875 C-4.4637674 70.65276718 -4.46659729 69.57506561 -4.46951294 68.46470642 C-4.48065807 65.04145951 -4.50575244 61.61847959 -4.53125 58.1953125 C-4.54128711 55.86654025 -4.55041168 53.53776388 -4.55859375 51.20898438 C-4.58057884 45.51683685 -4.61399987 39.82484376 -4.65625 34.1328125 C-6.60228274 33.54211236 -6.60228274 33.54211236 -8.65625 33.1328125 Z " fill="#1B1816" transform="translate(138.65625,20.8671875)"/>
<path d="M0 0 C1.03350586 0.00773437 1.03350586 0.00773437 2.08789062 0.015625 C7.15788899 0.09538899 7.15788899 0.09538899 8.3125 1.25 C8.4375 4.25 8.4375 4.25 8.3125 7.25 C7.3125 8.25 7.3125 8.25 4.75 8.3125 C3.945625 8.291875 3.14125 8.27125 2.3125 8.25 C2.3125 9.24 2.3125 10.23 2.3125 11.25 C5.2825 11.25 8.2525 11.25 11.3125 11.25 C11.291875 9.97125 11.27125 8.6925 11.25 7.375 C11.1875 3.5 11.1875 3.5 12.3125 1.25 C14.27016281 1.16917906 16.22876728 1.11089222 18.1875 1.0625 C19.82332031 1.01029297 19.82332031 1.01029297 21.4921875 0.95703125 C22.42289062 1.05371094 23.35359375 1.15039062 24.3125 1.25 C26.3125 4.25 26.3125 4.25 26.3125 11.25 C32.2525 11.25 38.1925 11.25 44.3125 11.25 C45.58916659 15.07999978 46.62532934 18.35603294 47.3125 22.25 C47.6425 22.25 47.9725 22.25 48.3125 22.25 C48.9725 18.62 49.6325 14.99 50.3125 11.25 C54.9325 11.25 59.5525 11.25 64.3125 11.25 C65.3025 15.54 66.2925 19.83 67.3125 24.25 C67.7765625 21.3109375 67.7765625 21.3109375 68.25 18.3125 C69.1875 12.375 69.1875 12.375 70.3125 11.25 C72.33214199 11.17755947 74.35417124 11.16622812 76.375 11.1875 C77.47972656 11.19652344 78.58445312 11.20554687 79.72265625 11.21484375 C80.57730469 11.22644531 81.43195313 11.23804687 82.3125 11.25 C82.43913876 16.91011529 82.02375807 22.15728014 81.0703125 27.73046875 C80.94187958 28.50634842 80.81344666 29.28222809 80.68112183 30.08161926 C80.4102039 31.70818133 80.13608434 33.33421313 79.85888672 34.9597168 C79.43710843 37.43980247 79.02842962 39.92180288 78.62109375 42.40429688 C78.35494407 43.99231799 78.08804292 45.58021338 77.8203125 47.16796875 C77.63893234 48.27279854 77.63893234 48.27279854 77.45388794 49.39994812 C76.79087924 53.23822474 75.9248771 56.69885895 74.3125 60.25 C72.00006208 60.27685412 69.6875373 60.29632841 67.375 60.3125 C65.44333984 60.32990234 65.44333984 60.32990234 63.47265625 60.34765625 C60.3125 60.25 60.3125 60.25 59.3125 59.25 C58.54105777 56.27121943 57.9487211 53.26144655 57.3125 50.25 C56.3225 55.2 56.3225 55.2 55.3125 60.25 C50.3625 60.25 45.4125 60.25 40.3125 60.25 C38.56470847 55.88052118 37.59544464 51.94472983 36.83984375 47.359375 C36.71186905 46.61415588 36.58389435 45.86893677 36.45204163 45.10113525 C36.04613131 42.73494597 35.64741331 40.3676301 35.25 38 C34.84847201 35.61819262 34.4453216 33.23671291 34.0372467 30.85601807 C33.78396682 29.3776467 33.53454124 27.89860895 33.28929138 26.41888428 C32.94860682 23.04567374 32.94860682 23.04567374 31.3125 20.25 C29.6625 20.25 28.0125 20.25 26.3125 20.25 C26.8075 34.605 26.8075 34.605 27.3125 49.25 C28.9625 49.91 30.6125 50.57 32.3125 51.25 C32.3125 54.22 32.3125 57.19 32.3125 60.25 C29.72804227 60.3581866 27.14812648 60.43737237 24.5625 60.5 C23.83289063 60.53351563 23.10328125 60.56703125 22.3515625 60.6015625 C18.83369695 60.66552369 16.75359849 60.56747853 13.859375 58.484375 C10.87183433 54.16903848 11.23116226 49.94591396 11.43359375 44.859375 C11.45720474 44.15476135 11.48081573 43.45014771 11.50514221 42.72418213 C11.58146977 40.4825672 11.66562579 38.24132504 11.75 36 C11.8032517 34.4765805 11.85599188 32.95314302 11.90820312 31.4296875 C12.03704248 27.70289845 12.17290232 23.97640333 12.3125 20.25 C8.6825 20.25 5.0525 20.25 1.3125 20.25 C1.3125 33.45 1.3125 46.65 1.3125 60.25 C-2.9775 60.25 -7.2675 60.25 -11.6875 60.25 C-12.6875 59.25 -12.6875 59.25 -12.80102539 55.55639648 C-12.80086624 53.91128708 -12.79516988 52.26617269 -12.78515625 50.62109375 C-12.7837413 49.75686295 -12.78232635 48.89263214 -12.78086853 48.00221252 C-12.77525239 45.23060708 -12.76269719 42.4590812 -12.75 39.6875 C-12.74498708 37.8131522 -12.74042381 35.93880315 -12.73632812 34.06445312 C-12.72527772 29.45960456 -12.7080023 24.85481579 -12.6875 20.25 C-13.6775 20.25 -14.6675 20.25 -15.6875 20.25 C-15.6875 17.28 -15.6875 14.31 -15.6875 11.25 C-14.6975 11.25 -13.7075 11.25 -12.6875 11.25 C-12.605 9.991875 -12.5225 8.73375 -12.4375 7.4375 C-12.25733219 4.68994088 -11.97851165 3.57439453 -10.12109375 1.50390625 C-6.76880369 -0.22335717 -3.67522031 -0.11190014 0 0 Z " fill="#1A1715" transform="translate(313.6875,63.75)"/>
<path d="M0 0 C0.99 1.485 0.99 1.485 2 3 C2.66 1.35 3.32 -0.3 4 -2 C7.56110675 -2.25586913 11.12356545 -2.47496153 14.6875 -2.6875 C16.19860352 -2.79674805 16.19860352 -2.79674805 17.74023438 -2.90820312 C26.98030755 -3.42662307 26.98030755 -3.42662307 31 0 C32.8125 1.6875 32.8125 1.6875 34 3 C34.61875 2.360625 35.2375 1.72125 35.875 1.0625 C39.58300529 -2.53644631 42.88320447 -2.2148848 47.8125 -2.25 C48.52470703 -2.270625 49.23691406 -2.29125 49.97070312 -2.3125 C54.51206543 -2.3461086 57.40364881 -1.82227941 61 1 C63.52019445 6.04038889 62.31316406 13.92940383 62.35009766 19.53881836 C62.36665215 21.3826968 62.39393569 23.22651119 62.43212891 25.07006836 C62.48695665 27.73064405 62.50877979 30.38971637 62.5234375 33.05078125 C62.54610687 33.87177811 62.56877625 34.69277496 62.59213257 35.53865051 C62.57612711 39.88520658 62.40586947 41.49252937 59.59301758 45.00952148 C54.60558248 48.83802712 49.09279547 48.49679717 43 48 C40.03694673 47.3996788 38.65659284 46.68070159 36 45 C32.80952986 39.30167193 32.62163212 34.49817324 32.8125 28.0625 C32.82603516 27.18787109 32.83957031 26.31324219 32.85351562 25.41210938 C32.88855891 23.27446914 32.94235459 21.13715016 33 19 C31.60974609 19.01740234 31.60974609 19.01740234 30.19140625 19.03515625 C28.99386719 19.04417969 27.79632813 19.05320312 26.5625 19.0625 C25.36753906 19.07410156 24.17257812 19.08570312 22.94140625 19.09765625 C20 19 20 19 19 18 C18.67 14.7 18.34 11.4 18 8 C17.67 20.87 17.34 33.74 17 47 C12 47 7 47 2 47 C0.46194601 47.09154868 -1.07577198 47.18878051 -2.61328125 47.2890625 C-4.51302051 47.40104713 -6.41276011 47.51302605 -8.3125 47.625 C-9.26318359 47.68945312 -10.21386719 47.75390625 -11.19335938 47.8203125 C-20.30532662 48.32971668 -20.30532662 48.32971668 -24 46 C-26.52624117 43.60090007 -26.9675948 42.24230919 -27.43359375 38.7578125 C-27.4466949 26.57374333 -27.4466949 26.57374333 -23 22 C-22.01 21.34 -21.02 20.68 -20 20 C-21.98 19.34 -23.96 18.68 -26 18 C-26.90853472 4.62434995 -26.90853472 4.62434995 -24.83984375 0.92578125 C-17.74693401 -5.11498331 -7.66698022 -4.14016932 0 0 Z M-12 7 C-13.20561184 7.98267859 -13.20561184 7.98267859 -13.09765625 9.84765625 C-13.08605469 10.57855469 -13.07445312 11.30945313 -13.0625 12.0625 C-13.041875 13.361875 -13.02125 14.66125 -13 16 C-12.34 16 -11.68 16 -11 16 C-11 13.03 -11 10.06 -11 7 C-11.33 7 -11.66 7 -12 7 Z M47 7 C47 10.63 47 14.26 47 18 C47.66 18 48.32 18 49 18 C49.33 14.7 49.66 11.4 50 8 C49.01 7.67 48.02 7.34 47 7 Z M-12 27 C-13.25949049 28.03406673 -13.25949049 28.03406673 -13.09765625 30.28515625 C-13.08605469 31.20167969 -13.07445312 32.11820313 -13.0625 33.0625 C-13.05347656 33.98160156 -13.04445313 34.90070313 -13.03515625 35.84765625 C-13.02355469 36.55792969 -13.01195312 37.26820312 -13 38 C-12.34 38 -11.68 38 -11 38 C-11 34.37 -11 30.74 -11 27 C-11.33 27 -11.66 27 -12 27 Z M47 27 C47 30.63 47 34.26 47 38 C47.66 38 48.32 38 49 38 C49 34.37 49 30.74 49 27 C48.34 27 47.68 27 47 27 Z " fill="#191715" transform="translate(423,77)"/>
<path d="M0 0 C3.45504343 2.79693992 5.22105207 4.9131562 6.625 9.125 C6.70678114 10.82516844 6.73249501 12.52836297 6.72265625 14.23046875 C6.71943359 15.21337891 6.71621094 16.19628906 6.71289062 17.20898438 C6.70032227 18.74522461 6.70032227 18.74522461 6.6875 20.3125 C6.68298828 21.34826172 6.67847656 22.38402344 6.67382812 23.45117188 C6.66204026 26.0091392 6.64410482 28.56707686 6.625 31.125 C1.675 31.455 -3.275 31.785 -8.375 32.125 C-6.8075 33.011875 -5.24 33.89875 -3.625 34.8125 C1.56051838 37.9472484 4.70300901 40.41915688 6.703125 46.2890625 C7.66269686 50.28185727 7.93311756 53.98450347 7.875 58.0625 C7.86158569 59.11800049 7.86158569 59.11800049 7.84790039 60.19482422 C7.57094733 72.57304766 7.57094733 72.57304766 2.8125 77.4375 C-4.93923644 83.31148662 -15.11701572 83.68832994 -24.42578125 82.6328125 C-31.08296095 81.48654315 -36.04669476 79.59903309 -40.375 74.125 C-42.76384725 68.7396893 -42.64154082 63.64913955 -42.5625 57.875 C-42.56185547 56.96492188 -42.56121094 56.05484375 -42.56054688 55.1171875 C-42.51574248 48.40648496 -42.51574248 48.40648496 -41.375 46.125 C-38.82558627 45.81258629 -36.37138487 45.61196579 -33.8125 45.5 C-32.74612305 45.44199219 -32.74612305 45.44199219 -31.65820312 45.3828125 C-29.89757575 45.28828217 -28.13632272 45.20554183 -26.375 45.125 C-27.20644531 44.60550781 -28.03789062 44.08601563 -28.89453125 43.55078125 C-29.98121094 42.85339844 -31.06789062 42.15601563 -32.1875 41.4375 C-33.26644531 40.75300781 -34.34539062 40.06851563 -35.45703125 39.36328125 C-38.59973877 36.95261002 -39.95411916 35.80659504 -41.375 32.125 C-41.79783348 28.30430254 -41.79333999 24.52790456 -41.75 20.6875 C-41.76160156 19.66333984 -41.77320313 18.63917969 -41.78515625 17.58398438 C-41.76052153 11.24054386 -41.40559447 6.35972777 -36.8671875 1.515625 C-26.45853703 -5.82574199 -11.07994757 -6.15552643 0 0 Z M-18.375 11.125 C-20.23604914 12.98604914 -19.59173452 15.94536077 -19.625 18.4375 C-19.65078125 19.58863281 -19.6765625 20.73976563 -19.703125 21.92578125 C-19.35187204 25.35049762 -18.80716067 26.73416244 -16.375 29.125 C-15.715 29.125 -15.055 29.125 -14.375 29.125 C-14.320862 26.87526553 -14.28214509 24.62515617 -14.25 22.375 C-14.22679687 21.12203125 -14.20359375 19.8690625 -14.1796875 18.578125 C-14.35962698 15.39679508 -14.68501418 13.75978104 -16.375 11.125 C-17.035 11.125 -17.695 11.125 -18.375 11.125 Z M-19.375 48.125 C-20.45170039 51.65900854 -20.5747147 55.00410176 -20.625 58.6875 C-20.65078125 59.82316406 -20.6765625 60.95882812 -20.703125 62.12890625 C-20.64388573 65.13508577 -20.64388573 65.13508577 -18.859375 67.02734375 C-18.36953125 67.38957031 -17.8796875 67.75179687 -17.375 68.125 C-14.61625965 65.36625965 -15.07556592 63.65823529 -15.0625 59.8125 C-15.04574219 58.68199219 -15.02898437 57.55148438 -15.01171875 56.38671875 C-15.40492196 52.85634588 -16.2756935 50.9577351 -18.375 48.125 C-18.705 48.125 -19.035 48.125 -19.375 48.125 Z " fill="#1A1716" transform="translate(200.375,42.875)"/>
<path d="M0 0 C3.26785069 2.53258428 4.65956689 4.97037082 5.5 8.9375 C6.21308523 18.51132953 6.21308523 18.51132953 4.5 21.9375 C2.43359375 22.3515625 2.43359375 22.3515625 -0.0625 22.5625 C-0.88878906 22.63726562 -1.71507812 22.71203125 -2.56640625 22.7890625 C-3.52353516 22.86253906 -3.52353516 22.86253906 -4.5 22.9375 C-3.79423828 23.60845703 -3.79423828 23.60845703 -3.07421875 24.29296875 C-2.14029297 25.19982422 -2.14029297 25.19982422 -1.1875 26.125 C-0.57261719 26.71667969 0.04226563 27.30835937 0.67578125 27.91796875 C2.65196867 30.10573941 4.05991372 32.37193091 5.5 34.9375 C5.53738281 33.76832031 5.57476562 32.59914062 5.61328125 31.39453125 C5.6789628 29.84632325 5.74540939 28.29814758 5.8125 26.75 C5.83505859 25.98107422 5.85761719 25.21214844 5.88085938 24.41992188 C6.0960432 19.86193732 6.4641265 16.57228732 9.5 12.9375 C14.35081742 10.18306297 20.00731379 9.32720153 25.5 9.9375 C30.09753826 11.47001275 33.14667789 12.63679518 35.5 16.9375 C35.8168736 19.85255288 35.96801115 22.54901403 35.96875 25.46484375 C35.98017029 26.70374107 35.98017029 26.70374107 35.99182129 27.96766663 C36.00261006 29.71173078 36.00548035 31.45585947 36.00097656 33.19995117 C36.00000441 35.86291655 36.04163142 38.52299756 36.0859375 41.18554688 C36.09114502 42.88280651 36.09383269 44.58007613 36.09375 46.27734375 C36.1183429 47.4666172 36.1183429 47.4666172 36.14343262 48.67991638 C36.09031394 52.94691571 35.86804945 54.48091299 33.08862305 57.92895508 C28.12716692 61.7786108 22.58472424 61.45236128 16.5 60.9375 C12.50210067 59.99375797 10.01935182 58.65789124 7.5625 55.25 C7.0365625 54.1053125 7.0365625 54.1053125 6.5 52.9375 C5.84 53.88625 5.18 54.835 4.5 55.8125 C1.36978439 59.5616848 -1.76192716 60.37581641 -6.5 60.9375 C-12.51493737 61.35960087 -17.96377401 60.87304089 -22.875 57.125 C-26.08970235 52.79751606 -25.61125995 47.84231475 -25.5625 42.625 C-25.55347656 41.37074219 -25.54445312 40.11648437 -25.53515625 38.82421875 C-25.52355469 37.87160156 -25.51195312 36.91898438 -25.5 35.9375 C-24.406875 35.628125 -23.31375 35.31875 -22.1875 35 C-19.94592006 34.35412103 -17.7130649 33.6751883 -15.5 32.9375 C-16.2425 32.195 -16.985 31.4525 -17.75 30.6875 C-18.6575 29.78 -19.565 28.8725 -20.5 27.9375 C-21.2425 27.256875 -21.985 26.57625 -22.75 25.875 C-26.33189212 21.90933373 -25.77311266 16.72931142 -25.71875 11.6328125 C-25.35069349 7.09783054 -23.85303168 4.20323932 -20.5625 1.125 C-14.52434719 -2.35151222 -6.47183712 -1.96466484 0 0 Z M-10.5 8.9375 C-10.5 11.9075 -10.5 14.8775 -10.5 17.9375 C-9.51 18.4325 -9.51 18.4325 -8.5 18.9375 C-8.5 15.6375 -8.5 12.3375 -8.5 8.9375 C-9.16 8.9375 -9.82 8.9375 -10.5 8.9375 Z M20.5 19.9375 C20.5 30.1675 20.5 40.3975 20.5 50.9375 C21.16 50.6075 21.82 50.2775 22.5 49.9375 C22.5 40.0375 22.5 30.1375 22.5 19.9375 C21.84 19.9375 21.18 19.9375 20.5 19.9375 Z M-11.5 37.9375 C-11.5 41.5675 -11.5 45.1975 -11.5 48.9375 C-10.51 49.2675 -9.52 49.5975 -8.5 49.9375 C-8.41909029 48.31331255 -8.36085005 46.68798255 -8.3125 45.0625 C-8.27769531 44.15757813 -8.24289063 43.25265625 -8.20703125 42.3203125 C-8.35205078 41.14082031 -8.35205078 41.14082031 -8.5 39.9375 C-9.49 39.2775 -10.48 38.6175 -11.5 37.9375 Z " fill="#181615" transform="translate(261.5,64.0625)"/>
<path d="M0 0 C2.29371595 0.03813083 4.58633147 0.15570982 6.875 0.3125 C8.75832031 0.43044922 8.75832031 0.43044922 10.6796875 0.55078125 C14 1 14 1 17 3 C15.02 3.99 15.02 3.99 13 5 C13.00523682 6.2689209 13.01047363 7.5378418 13.01586914 8.84521484 C13.03424092 13.64257069 13.04554709 18.43992356 13.05493164 23.23730469 C13.05989949 25.29688035 13.06667606 27.35645261 13.07543945 29.41601562 C13.14008714 45.02272736 12.9876097 60.50197472 11 76 C10.91656636 77.93615113 10.86945511 79.87455996 10.875 81.8125 C10.87242188 82.72644531 10.86984375 83.64039062 10.8671875 84.58203125 C10.90127542 87.1433623 10.90127542 87.1433623 12 90 C12.99 90.33 13.98 90.66 15 91 C15.33 92.65 15.66 94.3 16 96 C14.10507994 96.33848652 12.20901534 96.67056911 10.3125 97 C9.25675781 97.185625 8.20101562 97.37125 7.11328125 97.5625 C4.34000949 97.95221949 1.79298302 98.16103686 -1 98 C-1.495 97.505 -1.495 97.505 -2 97 C-1.9140625 95.25 -1.9140625 95.25 -1.625 93 C-1.52574219 92.18144531 -1.42648438 91.36289063 -1.32421875 90.51953125 C-1.1227465 88.95387341 -0.91768418 87.38866782 -0.70703125 85.82421875 C1.1488356 73.99800744 1.1488356 73.99800744 -2 63 C-6.53383158 60.73308421 -13.06186059 62.71378798 -17.6875 64.125 C-21.7189397 65.1899086 -24.03166323 65.34773702 -28 64 C-32.28792328 58.54940004 -32.59246098 52.54332082 -32.4375 45.875 C-32.44458984 45.00746094 -32.45167969 44.13992187 -32.45898438 43.24609375 C-32.40639451 37.93047234 -31.99639626 32.99639626 -28 29 C-21.24829306 28.54207666 -15.47374958 29.00807705 -9 31 C-6.30644642 31.16266576 -3.70194022 31.09480492 -1 31 C0.16455826 27.50632522 0.13260305 24.74617735 0.125 21.0625 C0.1237915 20.40169434 0.12258301 19.74088867 0.12133789 19.06005859 C0.07980001 13.73937591 -0.30745106 8.48656426 -0.87890625 3.1953125 C-0.91886719 2.47085938 -0.95882813 1.74640625 -1 1 C-0.67 0.67 -0.34 0.34 0 0 Z " fill="#ABDE61" transform="translate(32,31)"/>
<path d="M0 0 C1.40958984 -0.00193359 1.40958984 -0.00193359 2.84765625 -0.00390625 C3.83636719 -0.00003906 4.82507813 0.00382812 5.84375 0.0078125 C7.32681641 0.00201172 7.32681641 0.00201172 8.83984375 -0.00390625 C9.77957031 -0.00261719 10.71929687 -0.00132813 11.6875 0 C12.55568359 0.00112793 13.42386719 0.00225586 14.31835938 0.00341797 C16.34375 0.1328125 16.34375 0.1328125 17.34375 1.1328125 C17.44412731 3.68332724 17.47992487 6.20678429 17.47314453 8.7578125 C17.47489685 9.55614502 17.47664917 10.35447754 17.47845459 11.17700195 C17.48287367 13.8289606 17.47993492 16.48085312 17.4765625 19.1328125 C17.47723552 20.96744805 17.47820553 22.80208351 17.47946167 24.63671875 C17.48093872 28.48698778 17.47878386 32.33723366 17.47412109 36.1875 C17.4684238 41.13437747 17.47170277 46.08120069 17.47769356 51.02807617 C17.48129898 54.81803805 17.48016067 58.60798696 17.47756577 62.39794922 C17.47689644 64.22249355 17.4777251 66.04703905 17.48004532 67.87158203 C17.48257154 70.41702411 17.4787317 72.96237709 17.47314453 75.5078125 C17.47516876 76.26940674 17.47719299 77.03100098 17.47927856 77.81567383 C17.45801258 83.01854992 17.45801258 83.01854992 16.34375 84.1328125 C14.79419441 84.23180773 13.24021327 84.26360774 11.6875 84.265625 C10.27791016 84.26755859 10.27791016 84.26755859 8.83984375 84.26953125 C7.35677734 84.26373047 7.35677734 84.26373047 5.84375 84.2578125 C4.85503906 84.26167969 3.86632812 84.26554687 2.84765625 84.26953125 C1.90792969 84.26824219 0.96820313 84.26695313 0 84.265625 C-0.86818359 84.26449707 -1.73636719 84.26336914 -2.63085938 84.26220703 C-4.65625 84.1328125 -4.65625 84.1328125 -5.65625 83.1328125 C-5.75662731 80.58229776 -5.79242487 78.05884071 -5.78564453 75.5078125 C-5.78739685 74.70947998 -5.78914917 73.91114746 -5.79095459 73.08862305 C-5.79537367 70.4366644 -5.79243492 67.78477188 -5.7890625 65.1328125 C-5.78973552 63.29817695 -5.79070553 61.46354149 -5.79196167 59.62890625 C-5.79343872 55.77863722 -5.79128386 51.92839134 -5.78662109 48.078125 C-5.7809238 43.13124753 -5.78420277 38.18442431 -5.79019356 33.23754883 C-5.79379898 29.44758695 -5.79266067 25.65763804 -5.79006577 21.86767578 C-5.78939644 20.04313145 -5.7902251 18.21858595 -5.79254532 16.39404297 C-5.79507154 13.84860089 -5.7912317 11.30324791 -5.78564453 8.7578125 C-5.78868088 7.61542114 -5.78868088 7.61542114 -5.79177856 6.44995117 C-5.76820437 0.68235664 -5.74690135 0.00746628 0 0 Z " fill="#1D1C18" transform="translate(214.65625,39.8671875)"/>
<path d="M0 0 C4.33304595 0.48144955 6.2628667 1.61034336 9 5 C10.46361268 13.12429074 8.44855697 21.98120248 7 30 C8.2375 30.2475 9.475 30.495 10.75 30.75 C14.56758512 31.74324781 16.79261624 32.55648133 19 36 C20.70479705 43.5904059 20.70479705 43.5904059 19 47 C18.76827173 49.54615009 18.58105471 52.07396225 18.4375 54.625 C18.39431641 55.33140625 18.35113281 56.0378125 18.30664062 56.765625 C18.20055249 58.51018537 18.09977111 60.25506697 18 62 C16.92234375 62.30164062 15.8446875 62.60328125 14.734375 62.9140625 C6.56780234 65.12162569 6.56780234 65.12162569 1 71 C0.20983826 76.84434947 -0.14200663 83.64961592 2.375 89.125 C5.53807864 92.58932422 8.35836055 93.73323098 12.7578125 95.17578125 C15 96 15 96 17 98 C17.81966312 107.31764107 17.0212069 116.88243896 15 126 C13.33657163 127.66342837 11.2174291 127.36048097 8.9375 127.5625 C8.01839844 127.64628906 7.09929687 127.73007813 6.15234375 127.81640625 C5.44207031 127.87699219 4.73179688 127.93757813 4 128 C4.83170963 133.78282815 5.65775809 139.41803454 7.625 144.9375 C8.73841517 148.07892138 9.59418048 150.63297725 9 154 C7.89453125 155.62109375 7.89453125 155.62109375 6 157 C2.86328125 157.29296875 2.86328125 157.29296875 -0.6875 157.1875 C-2.45673828 157.14689453 -2.45673828 157.14689453 -4.26171875 157.10546875 C-5.16535156 157.07066406 -6.06898437 157.03585938 -7 157 C-7 155.68 -7 154.36 -7 153 C-6.01 153 -5.02 153 -4 153 C-4.01160156 152.31292969 -4.02320312 151.62585938 -4.03515625 150.91796875 C-4.04417969 150.01691406 -4.05320312 149.11585938 -4.0625 148.1875 C-4.07990234 146.84751953 -4.07990234 146.84751953 -4.09765625 145.48046875 C-4 143 -4 143 -3 140 C-2.60023151 134.90593662 -2.47364578 129.79419021 -2.3125 124.6875 C-2.27539917 123.57793442 -2.27539917 123.57793442 -2.23754883 122.44595337 C-1.85751005 110.48494622 -2.27410494 98.82440737 -3.9140625 86.94995117 C-4.01034309 84.76531173 -3.56852391 83.10374372 -3 81 C-2.87154524 79.64476921 -2.77890183 78.28575657 -2.71875 76.92578125 C-2.68136719 76.17619141 -2.64398438 75.42660156 -2.60546875 74.65429688 C-2.53462953 73.08140384 -2.4643248 71.50848665 -2.39453125 69.93554688 C-2.10210276 64.10210276 -2.10210276 64.10210276 -1 63 C-0.84161851 61.42108157 -0.74874949 59.83550397 -0.68359375 58.25 C-0.64169922 57.25645508 -0.59980469 56.26291016 -0.55664062 55.23925781 C-0.51732422 54.17030273 -0.47800781 53.10134766 -0.4375 52 C-0.37272461 50.37723145 -0.37272461 50.37723145 -0.30664062 48.72167969 C-0.01482034 40.89580083 0.06031656 33.09518057 -0.0625 25.265625 C-0.01013101 22.5293454 0.32447655 20.59736149 1 18 C1.06743348 15.91765408 1.08514472 13.83331443 1.0625 11.75 C1.04896484 10.13351562 1.04896484 10.13351562 1.03515625 8.484375 C1.02355469 7.66453125 1.01195313 6.8446875 1 6 C0.34 6 -0.32 6 -1 6 C-0.67 4.02 -0.34 2.04 0 0 Z " fill="#DAF2BB" transform="translate(90,1)"/>
<path d="M0 0 C6.55452065 0.03147429 12.43241401 1.3867829 18.6875 3.25 C18.67589844 4.49394531 18.66429688 5.73789063 18.65234375 7.01953125 C18.59578901 15.81644429 18.58690035 24.50416349 19.6875 33.25 C18.2953125 33.1571875 18.2953125 33.1571875 16.875 33.0625 C13.40168601 33.03431895 10.50326159 33.80633786 7.1875 34.8125 C2.6380167 36.09808787 -0.74762087 37.02005517 -5.3125 35.25 C-9.5500173 29.72765602 -9.90603666 23.83961004 -9.75 17.125 C-9.75708984 16.25746094 -9.76417969 15.38992187 -9.77148438 14.49609375 C-9.6938994 6.65404327 -8.72078546 0.13573207 0 0 Z " fill="#98D03C" transform="translate(9.3125,59.75)"/>
<path d="M0 0 C1.43471826 -0.00135687 2.86943618 -0.00313841 4.30415344 -0.00531006 C8.17979936 -0.00984833 12.05541849 -0.00811027 15.93106484 -0.00493097 C19.99222652 -0.00239114 24.05338596 -0.0047492 28.11454773 -0.00631714 C34.9276063 -0.00813306 41.74065401 -0.00574659 48.55371094 -0.00097656 C56.4325034 0.00447588 64.31127002 0.00269397 72.19006187 -0.00280297 C78.96049226 -0.00733753 85.73091487 -0.00798329 92.50134629 -0.0053643 C96.54283109 -0.00380483 100.58430372 -0.00359899 104.62578773 -0.00690079 C108.42036211 -0.00978484 112.21490304 -0.00779396 116.0094738 -0.00200653 C117.40308196 -0.00068228 118.79669293 -0.0010674 120.19029999 -0.0032692 C122.08933411 -0.00599347 123.98837438 -0.0019747 125.8874054 0.00241089 C127.48265281 0.00297643 127.48265281 0.00297643 129.11012745 0.00355339 C131.73706055 0.12939453 131.73706055 0.12939453 134.73706055 1.12939453 C134.73706055 2.44939453 134.73706055 3.76939453 134.73706055 5.12939453 C103.56739848 6.05426463 72.41603236 6.28875269 41.23364258 6.25976562 C34.88019419 6.25394316 28.5267869 6.25744616 22.17333984 6.26333809 C17.22873619 6.26693483 12.28414251 6.26581139 7.33953857 6.2632103 C4.99192296 6.26254496 2.64430644 6.26335567 0.29669189 6.26568985 C-2.94065824 6.26821499 -6.17793834 6.26438352 -9.4152832 6.25878906 C-10.85467003 6.26182541 -10.85467003 6.26182541 -12.32313538 6.2649231 C-13.19908859 6.26210327 -14.07504181 6.25928345 -14.97753906 6.25637817 C-15.73747665 6.25600115 -16.49741425 6.25562412 -17.28038025 6.25523567 C-19.26293945 6.12939453 -19.26293945 6.12939453 -22.26293945 5.12939453 C-22.26293945 3.80939453 -22.26293945 2.48939453 -22.26293945 1.12939453 C-14.84535756 -0.04439539 -7.4947711 -0.01193548 0 0 Z " fill="#050504" transform="translate(349.262939453125,136.87060546875)"/>
<path d="M0 0 C0.66 0 1.32 0 2 0 C2.33 1.32 2.66 2.64 3 4 C4.258125 3.835 5.51625 3.67 6.8125 3.5 C9.26456585 3.17841759 11.51650694 3 14 3 C15.54427365 2.98865788 17.0885442 2.97689167 18.6328125 2.96484375 C20.46354074 2.95554397 22.29426996 2.94643662 24.125 2.9375 C25.05699219 2.92912109 25.98898437 2.92074219 26.94921875 2.91210938 C27.83480469 2.90888672 28.72039062 2.90566406 29.6328125 2.90234375 C30.44637207 2.89710693 31.25993164 2.89187012 32.09814453 2.88647461 C34 3 34 3 35 4 C35.09851171 5.83115883 35.12972629 7.66619933 35.125 9.5 C35.12886719 11.00046875 35.12886719 11.00046875 35.1328125 12.53125 C35 15 35 15 34 16 C31.5625 16.1875 31.5625 16.1875 29 16 C28.34 15.34 27.68 14.68 27 14 C27.375 10.875 27.375 10.875 28 8 C26.68 8 25.36 8 24 8 C24 10.31 24 12.62 24 15 C22.68 15 21.36 15 20 15 C19.505 17.475 19.505 17.475 19 20 C17.02 20 15.04 20 13 20 C12.67 19.01 12.34 18.02 12 17 C10.99517294 15.76680252 10.99517294 15.76680252 8.9609375 15.9375 C8.10757812 15.958125 7.25421875 15.97875 6.375 16 C2.13881551 16.04813846 -1.80567702 15.62138118 -6 15 C-8.67360451 14.91955526 -11.32426172 14.95305722 -14 15 C-14 11.37 -14 7.74 -14 4 C-12.22625 3.814375 -10.4525 3.62875 -8.625 3.4375 C-7.12839844 3.28087891 -7.12839844 3.28087891 -5.6015625 3.12109375 C-3 3 -3 3 -1 4 C-0.67 2.68 -0.34 1.36 0 0 Z M3 6 C3 8.31 3 10.62 3 13 C3.33 13 3.66 13 4 13 C4 10.69 4 8.38 4 6 C3.67 6 3.34 6 3 6 Z M15 7 C15 8.65 15 10.3 15 12 C15.33 12 15.66 12 16 12 C16 10.35 16 8.7 16 7 C15.67 7 15.34 7 15 7 Z M11 10 C12 12 12 12 12 12 Z " fill="#111010" transform="translate(269,130)"/>
<path d="M0 0 C0.99 0.33 1.98 0.66 3 1 C3.33 2.98 3.66 4.96 4 7 C4.6290625 6.9278125 5.258125 6.855625 5.90625 6.78125 C11.30549126 6.1957901 16.56870432 5.80249834 22 6 C22.33 6.33 22.66 6.66 23 7 C23.33 6.01 23.66 5.02 24 4 C26.875 3.8125 26.875 3.8125 30 4 C30.66 4.99 31.32 5.98 32 7 C32.33 6.67 32.66 6.34 33 6 C35.5 5.875 35.5 5.875 38 6 C39 7 39 7 39.1328125 9.46875 C39.13023437 10.4690625 39.12765625 11.469375 39.125 12.5 C39.12886719 14.00046875 39.12886719 14.00046875 39.1328125 15.53125 C39 18 39 18 38 19 C35.39947531 19.14447359 33.162448 19.03648422 30.6171875 18.46484375 C27.96257043 17.99335206 26.0344443 18.08666126 23.375 18.4375 C17.90659882 19.01430396 12.49280445 19.11722863 7 19.125 C6.16259277 19.12943115 5.32518555 19.1338623 4.46240234 19.13842773 C3.67043457 19.13657471 2.8784668 19.13472168 2.0625 19.1328125 C1.35222656 19.13168457 0.64195313 19.13055664 -0.08984375 19.12939453 C-2 19 -2 19 -5 18 C-5 14.7 -5 11.4 -5 8 C-3.68 7.34 -2.36 6.68 -1 6 C-0.18415432 2.94091587 -0.18415432 2.94091587 0 0 Z M-1 10 C-1 11.65 -1 13.3 -1 15 C-0.67 15 -0.34 15 0 15 C0 13.35 0 11.7 0 10 C-0.33 10 -0.66 10 -1 10 Z M35 10 C35 11.65 35 13.3 35 15 C35.33 15 35.66 15 36 15 C36 13.35 36 11.7 36 10 C35.67 10 35.34 10 35 10 Z M13 11 C13.99 12.485 13.99 12.485 15 14 C15 13.01 15 12.02 15 11 C14.34 11 13.68 11 13 11 Z M7 12 C7 12.66 7 13.32 7 14 C7.99 13.67 8.98 13.34 10 13 C9.01 12.67 8.02 12.34 7 12 Z M22 13 C23 15 23 15 23 15 Z " fill="#333232" transform="translate(114,127)"/>
<path d="M0 0 C1.40958984 -0.00193359 1.40958984 -0.00193359 2.84765625 -0.00390625 C3.83636719 -0.00003906 4.82507813 0.00382812 5.84375 0.0078125 C7.32681641 0.00201172 7.32681641 0.00201172 8.83984375 -0.00390625 C9.77957031 -0.00261719 10.71929687 -0.00132813 11.6875 0 C12.55568359 0.00112793 13.42386719 0.00225586 14.31835938 0.00341797 C16.34375 0.1328125 16.34375 0.1328125 17.34375 1.1328125 C17.41688567 3.66330652 17.43622527 6.16586087 17.40625 8.6953125 C17.40173828 9.40623047 17.39722656 10.11714844 17.39257812 10.84960938 C17.38075864 12.61071263 17.36282263 14.37177286 17.34375 16.1328125 C13.8077104 17.9008323 9.73803745 17.31746163 5.84375 17.3203125 C4.96332031 17.33255859 4.08289063 17.34480469 3.17578125 17.35742188 C2.33402344 17.35935547 1.49226562 17.36128906 0.625 17.36328125 C-0.14779297 17.36739014 -0.92058594 17.37149902 -1.71679688 17.37573242 C-3.65625 17.1328125 -3.65625 17.1328125 -5.65625 15.1328125 C-5.88671875 11.91015625 -5.88671875 11.91015625 -5.84375 8.0703125 C-5.83730469 6.80058594 -5.83085937 5.53085937 -5.82421875 4.22265625 C-5.56411872 -0.56197461 -4.36316165 0.00566855 0 0 Z " fill="#201F1A" transform="translate(214.65625,20.8671875)"/>
<path d="M0 0 C1.62723299 0.45034123 3.25173664 0.91055354 4.875 1.375 C5.77992187 1.63023438 6.68484375 1.88546875 7.6171875 2.1484375 C10 3 10 3 12 5 C12.81966312 14.31764107 12.0212069 23.88243896 10 33 C8.33657163 34.66342837 6.2174291 34.36048097 3.9375 34.5625 C2.308125 34.706875 0.67875 34.85125 -1 35 C-0.67 31.04 -0.34 27.08 0 23 C0.66 23 1.32 23 2 23 C2 20.69 2 18.38 2 16 C1.01 16 0.02 16 -1 16 C-1.02685095 13.52076199 -1.04676547 11.0418116 -1.0625 8.5625 C-1.07506836 7.50192383 -1.07506836 7.50192383 -1.08789062 6.41992188 C-1.09653588 4.61306441 -1.05220011 2.80612397 -1 1 C-0.67 0.67 -0.34 0.34 0 0 Z " fill="#E7F6D3" transform="translate(95,94)"/>
<path d="M0 0 C4.07815311 0.65776663 6.97083759 1.3402805 10.4375 3.5625 C12.72530619 7.13147766 13.04054707 10.79932307 13 15 C12.67 15.66 12.34 16.32 12 17 C11.76827173 19.54615009 11.58105471 22.07396225 11.4375 24.625 C11.39431641 25.33140625 11.35113281 26.0378125 11.30664062 26.765625 C11.20055249 28.51018537 11.09977111 30.25506697 11 32 C7.0142804 33.15487282 3.08470085 34.25732712 -1 35 C-1.33 33.02 -1.66 31.04 -2 29 C-1.01 29 -0.02 29 1 29 C0.98839844 28.43152344 0.97679688 27.86304687 0.96484375 27.27734375 C0.91969162 23.41361158 1.00878991 19.95045687 1.6875 16.125 C1.790625 15.09375 1.89375 14.0625 2 13 C1.02246356 11.97803008 0.0194119 10.98020375 -1 10 C-1.72221941 7.25897828 -1.86332931 4.87008445 -2 2 C-1.34 1.34 -0.68 0.68 0 0 Z " fill="#E5F3D1" transform="translate(97,31)"/>
<path d="M0 0 C0.99 0.33 1.98 0.66 3 1 C3.33 2.98 3.66 4.96 4 7 C6.31 7 8.62 7 11 7 C11 10.63 11 14.26 11 18 C6 19 6 19 2.5625 18.5 C-0.99010731 18.00138845 -3.51658525 18.28748335 -7 19 C-7.99 19 -8.98 19 -10 19 C-11.2684375 19.061875 -11.2684375 19.061875 -12.5625 19.125 C-15 19 -15 19 -17 17 C-17 16.01 -17 15.02 -17 14 C-16.34 13.67 -15.68 13.34 -15 13 C-15.66 12.34 -16.32 11.68 -17 11 C-16.46428571 7.46428571 -16.46428571 7.46428571 -15 6 C-13.33391013 5.95615553 -11.66619446 5.9603287 -10 6 C-9.01 6 -8.02 6 -7 6 C-4.99690671 6.31421071 -2.99628664 6.6451046 -1 7 C-0.67 4.69 -0.34 2.38 0 0 Z M-5 10 C-5 11.65 -5 13.3 -5 15 C-4.67 15 -4.34 15 -4 15 C-4 13.35 -4 11.7 -4 10 C-4.33 10 -4.66 10 -5 10 Z M-11 11 C-10.34 11.66 -9.68 12.32 -9 13 C-9 12.34 -9 11.68 -9 11 C-9.66 11 -10.32 11 -11 11 Z " fill="#302E2E" transform="translate(195,127)"/>
<path d="M0 0 C1.27603592 0.00703949 2.55207184 0.01407898 3.86677551 0.02133179 C5.27847378 0.03431345 6.69017114 0.04739353 8.10186768 0.06056213 C9.59012055 0.07070769 11.07837657 0.08040107 12.56663513 0.0896759 C16.60556893 0.11612915 20.64442955 0.14891432 24.68330669 0.1828258 C28.90468995 0.2171963 33.12611239 0.24575812 37.34753418 0.27493286 C45.34081895 0.33105968 53.33405465 0.39241977 61.32728601 0.4556542 C70.42753959 0.5273919 79.52783244 0.59330446 88.6281333 0.65872467 C107.34761932 0.7934259 126.06704343 0.93545233 144.78643799 1.08229065 C144.78643799 1.74229065 144.78643799 2.40229065 144.78643799 3.08229065 C93.63643799 3.08229065 42.48643799 3.08229065 -10.21356201 3.08229065 C-10.21356201 2.42229065 -10.21356201 1.76229065 -10.21356201 1.08229065 C-6.75679135 0.02089142 -3.60523185 -0.02694941 0 0 Z " fill="#1E1B19" transform="translate(338.21356201171875,137.91770935058594)"/>
<path d="M0 0 C0.87454834 0.00523682 1.74909668 0.01047363 2.65014648 0.01586914 C3.59438477 0.0190918 4.53862305 0.02231445 5.51147461 0.02563477 C6.50469727 0.03401367 7.49791992 0.04239258 8.52124023 0.05102539 C9.51833008 0.05553711 10.51541992 0.06004883 11.54272461 0.06469727 C14.01478872 0.07652532 16.48673541 0.0930069 18.95874023 0.11352539 C21.21057996 4.19498489 20.95874023 7.53177975 20.95874023 12.11352539 C13.57575167 13.5901231 8.07241357 13.5386413 0.95874023 11.11352539 C-1.17208907 11.51044506 -1.17208907 11.51044506 -3.04125977 12.11352539 C-3.06813256 10.30110487 -3.08759692 8.48857306 -3.10375977 6.67602539 C-3.11536133 5.66668945 -3.12696289 4.65735352 -3.13891602 3.61743164 C-3.00434722 0.16708784 -3.00434722 0.16708784 0 0 Z M12.95874023 6.11352539 C12.62874023 6.77352539 12.29874023 7.43352539 11.95874023 8.11352539 C12.61874023 8.11352539 13.27874023 8.11352539 13.95874023 8.11352539 C13.62874023 7.45352539 13.29874023 6.79352539 12.95874023 6.11352539 Z " fill="#141211" transform="translate(230.041259765625,132.886474609375)"/>
<path d="M0 0 C2.97922593 -0.02683987 5.95821295 -0.04676037 8.9375 -0.0625 C9.78763672 -0.07087891 10.63777344 -0.07925781 11.51367188 -0.08789062 C12.32255859 -0.09111328 13.13144531 -0.09433594 13.96484375 -0.09765625 C14.7137085 -0.10289307 15.46257324 -0.10812988 16.23413086 -0.11352539 C18 0 18 0 19 1 C19.09851171 2.83115883 19.12972629 4.66619933 19.125 6.5 C19.12886719 8.00046875 19.12886719 8.00046875 19.1328125 9.53125 C19 12 19 12 18 13 C15.5625 13.1875 15.5625 13.1875 13 13 C12.34 12.34 11.68 11.68 11 11 C11.375 7.875 11.375 7.875 12 5 C10.68 5 9.36 5 8 5 C8 7.31 8 9.62 8 12 C6.68 12 5.36 12 4 12 C3.67 13.65 3.34 15.3 3 17 C1.02 17 -0.96 17 -3 17 C-3.33 16.01 -3.66 15.02 -4 14 C-3.67 13.34 -3.34 12.68 -3 12 C-2.9310528 10.62657169 -2.91532292 9.24997898 -2.9375 7.875 C-2.958125 6.59625 -2.97875 5.3175 -3 4 C-2.34 4.33 -1.68 4.66 -1 5 C-0.67 5.99 -0.34 6.98 0 8 C0.33 6.35 0.66 4.7 1 3 C0.34 3 -0.32 3 -1 3 C-0.67 2.01 -0.34 1.02 0 0 Z " fill="#242323" transform="translate(285,133)"/>
<path d="M0 0 C1.40958984 -0.00193359 1.40958984 -0.00193359 2.84765625 -0.00390625 C3.83636719 -0.00003906 4.82507813 0.00382812 5.84375 0.0078125 C7.32681641 0.00201172 7.32681641 0.00201172 8.83984375 -0.00390625 C9.77957031 -0.00261719 10.71929687 -0.00132813 11.6875 0 C12.55568359 0.00112793 13.42386719 0.00225586 14.31835938 0.00341797 C16.34375 0.1328125 16.34375 0.1328125 17.34375 1.1328125 C17.44412731 3.68332724 17.47992487 6.20678429 17.47314453 8.7578125 C17.47489685 9.55614502 17.47664917 10.35447754 17.47845459 11.17700195 C17.48287367 13.8289606 17.47993492 16.48085312 17.4765625 19.1328125 C17.47723552 20.96744805 17.47820553 22.80208351 17.47946167 24.63671875 C17.48093872 28.48698778 17.47878386 32.33723366 17.47412109 36.1875 C17.4684238 41.13437747 17.47170277 46.08120069 17.47769356 51.02807617 C17.48129898 54.81803805 17.48016067 58.60798696 17.47756577 62.39794922 C17.47689644 64.22249355 17.4777251 66.04703905 17.48004532 67.87158203 C17.48257154 70.41702411 17.4787317 72.96237709 17.47314453 75.5078125 C17.47516876 76.26940674 17.47719299 77.03100098 17.47927856 77.81567383 C17.45801258 83.01854992 17.45801258 83.01854992 16.34375 84.1328125 C14.78202255 84.21966853 13.21645656 84.23983469 11.65234375 84.23046875 C10.70810547 84.22724609 9.76386719 84.22402344 8.79101562 84.22070312 C7.79779297 84.21232422 6.80457031 84.20394531 5.78125 84.1953125 C4.78416016 84.19080078 3.78707031 84.18628906 2.75976562 84.18164062 C0.28770151 84.16981257 -2.18424518 84.15333099 -4.65625 84.1328125 C-4.98625 82.8128125 -5.31625 81.4928125 -5.65625 80.1328125 C-4.66625 79.6378125 -4.66625 79.6378125 -3.65625 79.1328125 C-3.65625 80.1228125 -3.65625 81.1128125 -3.65625 82.1328125 C2.61375 82.1328125 8.88375 82.1328125 15.34375 82.1328125 C15.34375 55.4028125 15.34375 28.6728125 15.34375 1.1328125 C5.93875 1.6278125 5.93875 1.6278125 -3.65625 2.1328125 C-4.31625 3.4528125 -4.97625 4.7728125 -5.65625 6.1328125 C-5.698971 4.46669345 -5.69688832 2.79898365 -5.65625 1.1328125 C-4.03424485 -0.48919265 -2.23601969 0.002905 0 0 Z " fill="#090806" transform="translate(214.65625,39.8671875)"/>
<path d="M0 0 C0.99 0.33 1.98 0.66 3 1 C3.33 2.98 3.66 4.96 4 7 C5.4540625 6.7215625 5.4540625 6.7215625 6.9375 6.4375 C8.4534375 6.2209375 8.4534375 6.2209375 10 6 C11.64079242 7.64079242 11.60112342 9.77768765 12 12 C11.979375 11.195625 11.95875 10.39125 11.9375 9.5625 C12 7 12 7 13 6 C14.66617115 5.95936168 16.33388095 5.957279 18 6 C18.98248196 10.05273808 19.16017882 13.83535074 19 18 C18 19 18 19 15.5625 19.125 C13 19 13 19 11 18 C9.88625 18.2475 9.88625 18.2475 8.75 18.5 C6 19 6 19 0 18 C0 12.06 0 6.12 0 0 Z " fill="#151413" transform="translate(305,127)"/>
<path d="M0 0 C0.99 0.33 1.98 0.66 3 1 C3.33 2.65 3.66 4.3 4 6 C6.31 6.33 8.62 6.66 11 7 C11.02687279 8.81242052 11.04633715 10.62495233 11.0625 12.4375 C11.07410156 13.44683594 11.08570313 14.45617187 11.09765625 15.49609375 C11 18 11 18 10 19 C7.85605481 19.0991757 5.70873268 19.1297015 3.5625 19.125 C2.38816406 19.12757813 1.21382812 19.13015625 0.00390625 19.1328125 C-3 19 -3 19 -5 18 C-5 14.7 -5 11.4 -5 8 C-3.68 7.34 -2.36 6.68 -1 6 C-1.020625 5.195625 -1.04125 4.39125 -1.0625 3.5625 C-1 1 -1 1 0 0 Z M-2 10 C-2 11.65 -2 13.3 -2 15 C-1.34 14.67 -0.68 14.34 0 14 C-0.33 12.68 -0.66 11.36 -1 10 C-1.33 10 -1.66 10 -2 10 Z " fill="#191616" transform="translate(163,127)"/>
<path d="M0 0 C0.99 0.33 1.98 0.66 3 1 C3.33 2.98 3.66 4.96 4 7 C4.68707031 6.9278125 5.37414062 6.855625 6.08203125 6.78125 C7.43361328 6.64203125 7.43361328 6.64203125 8.8125 6.5 C9.70582031 6.4071875 10.59914063 6.314375 11.51953125 6.21875 C14 6 14 6 17 6 C17 6.66 17 7.32 17 8 C16.34 8 15.68 8 15 8 C14.67 9.98 14.34 11.96 14 14 C11.03 13.505 11.03 13.505 8 13 C7.67 11.68 7.34 10.36 7 9 C6.01 9.66 5.02 10.32 4 11 C3.26393501 14.56769552 3.26393501 14.56769552 3 18 C-0.28696233 18.79953138 -1.71023192 19.09658936 -5 18 C-5 14.7 -5 11.4 -5 8 C-3.68 7.34 -2.36 6.68 -1 6 C-0.18415432 2.94091587 -0.18415432 2.94091587 0 0 Z M-1 10 C-1 11.65 -1 13.3 -1 15 C-0.67 15 -0.34 15 0 15 C0 13.35 0 11.7 0 10 C-0.33 10 -0.66 10 -1 10 Z " fill="#211E1D" transform="translate(114,127)"/>
<path d="M0 0 C1.65322266 0.01740234 1.65322266 0.01740234 3.33984375 0.03515625 C4.44457031 0.04417969 5.54929687 0.05320312 6.6875 0.0625 C7.54214844 0.07410156 8.39679688 0.08570312 9.27734375 0.09765625 C9.40398251 5.75777154 8.98860182 11.00493639 8.03515625 16.578125 C7.90672333 17.35400467 7.77829041 18.12988434 7.64596558 18.92927551 C7.37504765 20.55583758 7.10092809 22.18186938 6.82373047 23.80737305 C6.40195218 26.28745872 5.99327337 28.76945913 5.5859375 31.25195312 C5.31978782 32.83997424 5.05288667 34.42786963 4.78515625 36.015625 C4.66423615 36.75217819 4.54331604 37.48873138 4.41873169 38.24760437 C3.75572299 42.08588099 2.88972085 45.5465152 1.27734375 49.09765625 C-1.03509417 49.12451037 -3.34761895 49.14398466 -5.66015625 49.16015625 C-6.94792969 49.17175781 -8.23570312 49.18335938 -9.5625 49.1953125 C-12.72265625 49.09765625 -12.72265625 49.09765625 -13.72265625 48.09765625 C-14.11414386 46.58599971 -14.46238082 45.06295993 -14.78515625 43.53515625 C-14.96175781 42.70886719 -15.13835937 41.88257813 -15.3203125 41.03125 C-15.45308594 40.39316406 -15.58585937 39.75507812 -15.72265625 39.09765625 C-16.05265625 39.09765625 -16.38265625 39.09765625 -16.72265625 39.09765625 C-16.72265625 36.45765625 -16.72265625 33.81765625 -16.72265625 31.09765625 C-16.06265625 31.09765625 -15.40265625 31.09765625 -14.72265625 31.09765625 C-14.21677478 33.01277897 -13.71817234 34.92982547 -13.22265625 36.84765625 C-12.94421875 37.915 -12.66578125 38.98234375 -12.37890625 40.08203125 C-11.72265625 43.09765625 -11.72265625 43.09765625 -11.72265625 47.09765625 C-5.78265625 46.60265625 -5.78265625 46.60265625 0.27734375 46.09765625 C0.47070312 44.90269531 0.6640625 43.70773438 0.86328125 42.4765625 C1.39926467 39.19435478 1.9390451 35.91283023 2.48828125 32.6328125 C2.61509277 31.87363525 2.7419043 31.11445801 2.87255859 30.33227539 C3.4189748 27.3157811 4.1083168 24.33801361 4.79052734 21.34985352 C5.27813517 19.09399486 5.68617852 16.83879346 6.06640625 14.5625 C6.20433594 13.73878906 6.34226562 12.91507813 6.484375 12.06640625 C7.08795296 8.41109298 7.68555692 4.75489885 8.27734375 1.09765625 C6.65131505 1.15765731 5.02632826 1.24644475 3.40234375 1.34765625 C2.49742187 1.3940625 1.5925 1.44046875 0.66015625 1.48828125 C-1.89376169 1.85376773 -1.89376169 1.85376773 -3.04296875 4.14453125 C-3.37941406 5.11132812 -3.37941406 5.11132812 -3.72265625 6.09765625 C-3.76537725 4.4315372 -3.76329457 2.7638274 -3.72265625 1.09765625 C-2.72265625 0.09765625 -2.72265625 0.09765625 0 0 Z " fill="#090705" transform="translate(386.72265625,74.90234375)"/>
<path d="M0 0 C0.86625 0.020625 1.7325 0.04125 2.625 0.0625 C3.615 0.0625 4.605 0.0625 5.625 0.0625 C5.955 1.0525 6.285 2.0425 6.625 3.0625 C7.285 3.3925 7.945 3.7225 8.625 4.0625 C8.625 6.3725 8.625 8.6825 8.625 11.0625 C9.615 11.3925 10.605 11.7225 11.625 12.0625 C8.56652152 12.60622951 5.73727195 13.0625 2.625 13.0625 C1.3565625 13.124375 1.3565625 13.124375 0.0625 13.1875 C-2.375 13.0625 -2.375 13.0625 -4.375 11.0625 C-4.375 10.0725 -4.375 9.0825 -4.375 8.0625 C-3.715 7.7325 -3.055 7.4025 -2.375 7.0625 C-3.035 6.4025 -3.695 5.7425 -4.375 5.0625 C-3.62239792 0.09532626 -3.62239792 0.09532626 0 0 Z M1.625 5.0625 C2.285 5.7225 2.945 6.3825 3.625 7.0625 C3.625 6.4025 3.625 5.7425 3.625 5.0625 C2.965 5.0625 2.305 5.0625 1.625 5.0625 Z " fill="#282625" transform="translate(182.375,132.9375)"/>
<path d="M0 0 C1.95766281 -0.08082094 3.91626728 -0.13910778 5.875 -0.1875 C7.51082031 -0.23970703 7.51082031 -0.23970703 9.1796875 -0.29296875 C10.11039062 -0.19628906 11.04109375 -0.09960938 12 0 C14.4294516 3.6441774 14.16179575 5.71241272 14 10 C15.65 10 17.3 10 19 10 C22.62969772 17.86741587 23.89233426 25.78341818 24.96020508 34.29760742 C25.58691039 39.28379955 26.39156241 44.11833235 27.59863281 48.99926758 C28.20939917 52.04381155 28.13170624 54.9049033 28 58 C25.78190666 54.30397299 25.21230018 50.39369604 24.52734375 46.20703125 C24.39936905 45.46039719 24.27139435 44.71376312 24.13954163 43.94450378 C23.73284392 41.56814529 23.33451367 39.19049406 22.9375 36.8125 C22.53608999 34.42395448 22.13283443 32.03577525 21.7247467 29.64836121 C21.47132781 28.16444667 21.22190311 26.6798436 20.97679138 25.1945343 C20.63904796 21.80763228 20.63904796 21.80763228 19 19 C17.33382885 18.95936168 15.66611905 18.957279 14 19 C14 18.34 14 17.68 14 17 C15.65 16.67 17.3 16.34 19 16 C18.67 14.68 18.34 13.36 18 12 C17.195625 12.020625 16.39125 12.04125 15.5625 12.0625 C13 12 13 12 12 11 C11.85806663 7.99668982 11.95763622 5.00782866 12 2 C5.565 2.495 5.565 2.495 -1 3 C-0.67 2.01 -0.34 1.02 0 0 Z " fill="#080605" transform="translate(326,65)"/>
<path d="M0 0 C2.75 0.125 2.75 0.125 7.75 1.125 C7.75 4.755 7.75 8.385 7.75 12.125 C5.3059375 12.4034375 5.3059375 12.4034375 2.8125 12.6875 C1.43771484 12.84412109 1.43771484 12.84412109 0.03515625 13.00390625 C-0.71894531 13.04386719 -1.47304687 13.08382812 -2.25 13.125 C-3.25 12.125 -3.25 12.125 -3.3828125 9.65625 C-3.38023437 8.6559375 -3.37765625 7.655625 -3.375 6.625 C-3.37757813 5.6246875 -3.38015625 4.624375 -3.3828125 3.59375 C-3.21144296 0.40829275 -3.17312044 0.17628447 0 0 Z M-0.25 4.125 C-0.25 5.775 -0.25 7.425 -0.25 9.125 C0.74 8.795 1.73 8.465 2.75 8.125 C3.41 8.455 4.07 8.785 4.75 9.125 C4.75 7.475 4.75 5.825 4.75 4.125 C3.1 4.125 1.45 4.125 -0.25 4.125 Z " fill="#201E1D" transform="translate(210.25,132.875)"/>
<path d="M0 0 C0.66 0 1.32 0 2 0 C2.33 1.32 2.66 2.64 3 4 C4.258125 3.835 5.51625 3.67 6.8125 3.5 C13.2987013 2.64935065 13.2987013 2.64935065 16 4 C15.67 4.66 15.34 5.32 15 6 C15.66 6 16.32 6 17 6 C17 7.65 17 9.3 17 11 C16.01 10.01 15.02 9.02 14 8 C13.67 10.31 13.34 12.62 13 15 C12.01 15.33 11.02 15.66 10 16 C9.7525 15.360625 9.505 14.72125 9.25 14.0625 C8.2074709 11.81270124 8.2074709 11.81270124 6 11.4375 C5.34 11.293125 4.68 11.14875 4 11 C1.54176828 7.31265242 0.98757384 4.30300029 0 0 Z M11 10 C12 12 12 12 12 12 Z " fill="#131212" transform="translate(269,130)"/>
<path d="M0 0 C1 1 1 1 1.1328125 3.46875 C1.13023437 4.4690625 1.12765625 5.469375 1.125 6.5 C1.12757813 7.5003125 1.13015625 8.500625 1.1328125 9.53125 C1 12 1 12 0 13 C-3.48880949 13.19382275 -6.60169639 12.77675511 -10 12 C-9.34 11.67 -8.68 11.34 -8 11 C-8 7.7 -8 4.4 -8 1 C-5.05549278 0.01849759 -3.06481021 -0.1613058 0 0 Z M-3 4 C-3 5.65 -3 7.3 -3 9 C-2.67 9 -2.34 9 -2 9 C-2 7.35 -2 5.7 -2 4 C-2.33 4 -2.66 4 -3 4 Z " fill="#201E1C" transform="translate(152,133)"/>
<path d="M0 0 C1.2065625 0.0309375 1.2065625 0.0309375 2.4375 0.0625 C3.41998196 4.11523808 3.59767882 7.89785074 3.4375 12.0625 C2.4375 13.0625 2.4375 13.0625 0 13.1875 C-2.5625 13.0625 -2.5625 13.0625 -4.5625 12.0625 C-5.3875 12.248125 -6.2125 12.43375 -7.0625 12.625 C-7.8875 12.769375 -8.7125 12.91375 -9.5625 13.0625 C-10.2225 12.4025 -10.8825 11.7425 -11.5625 11.0625 C-9.9125 11.0625 -8.2625 11.0625 -6.5625 11.0625 C-6.8925 10.0725 -7.2225 9.0825 -7.5625 8.0625 C-6.5725 7.7325 -5.5825 7.4025 -4.5625 7.0625 C-4.2325 6.7325 -3.9025 6.4025 -3.5625 6.0625 C-3.5625 5.2375 -3.5625 4.4125 -3.5625 3.5625 C-3.5625 0.14230466 -3.4181732 0.08337008 0 0 Z " fill="#191716" transform="translate(320.5625,132.9375)"/>
<path d="M0 0 C1 1 1 1 1.1328125 3.46875 C1.13023437 4.4690625 1.12765625 5.469375 1.125 6.5 C1.12757813 7.5003125 1.13015625 8.500625 1.1328125 9.53125 C1 12 1 12 0 13 C-2.4375 13.1875 -2.4375 13.1875 -5 13 C-5.66 12.34 -6.32 11.68 -7 11 C-6.625 7.875 -6.625 7.875 -6 5 C-7.32 4.67 -8.64 4.34 -10 4 C-9.01 4 -8.02 4 -7 4 C-7 3.01 -7 2.02 -7 1 C-4.51588385 -0.24205807 -2.74800896 -0.14092354 0 0 Z " fill="#2C2A28" transform="translate(303,133)"/>
<path d="M0 0 C0.66 1.32 1.32 2.64 2 4 C4.31 4 6.62 4 9 4 C9 7.63 9 11.26 9 15 C4 16 4 16 2 15 C-0.35119399 11.47320901 -0.21443452 9.97120515 -0.125 5.8125 C-0.10695312 4.72582031 -0.08890625 3.63914063 -0.0703125 2.51953125 C-0.04710937 1.68808594 -0.02390625 0.85664063 0 0 Z " fill="#22201F" transform="translate(197,130)"/>
<path d="M0 0 C5.76423261 1.51495857 9.7771594 2.62859901 13 8 C14.01102038 11.03306113 14.1982535 13.25940239 14.25 16.4375 C14.27578125 17.38496094 14.3015625 18.33242187 14.328125 19.30859375 C13.944021 22.45916112 13.29194021 23.81646237 11 26 C9.68 26 8.36 26 7 26 C7.33 24.68 7.66 23.36 8 22 C8.66 22.66 9.32 23.32 10 24 C11.85634447 22.14365553 11.17368353 19.17170097 11.1875 16.6875 C11.20876953 14.96080078 11.20876953 14.96080078 11.23046875 13.19921875 C11.01267006 10.17587763 10.5831811 8.53434129 9 6 C8.01 7.485 8.01 7.485 7 9 C6.67 7.35 6.34 5.7 6 4 C5.01 4.495 5.01 4.495 4 5 C1.3276379 5.13415472 -1.32250488 5.04318541 -4 5 C-4 4.34 -4 3.68 -4 3 C-2.35 2.67 -0.7 2.34 1 2 C0.67 1.34 0.34 0.68 0 0 Z " fill="#090706" transform="translate(173,86)"/>
<path d="M0 0 C0.02687279 1.81242052 0.04633715 3.62495233 0.0625 5.4375 C0.07410156 6.44683594 0.08570313 7.45617187 0.09765625 8.49609375 C0 11 0 11 -1 12 C-3.5 12.125 -3.5 12.125 -6 12 C-7 11 -7 11 -7.09765625 8.49609375 C-7.08605469 7.48675781 -7.07445312 6.47742188 -7.0625 5.4375 C-7.05347656 4.42558594 -7.04445312 3.41367188 -7.03515625 2.37109375 C-7.02355469 1.58863281 -7.01195312 0.80617187 -7 0 C-4.3333581 -1.33332095 -2.83319697 -0.67102033 0 0 Z M-4 3 C-4 4.65 -4 6.3 -4 8 C-3.67 8 -3.34 8 -3 8 C-3 6.35 -3 4.7 -3 3 C-3.33 3 -3.66 3 -4 3 Z " fill="#272625" transform="translate(226,134)"/>
<path d="M0 0 C0.99 0.33 1.98 0.66 3 1 C3.02689216 2.47906892 3.04634621 3.95827483 3.0625 5.4375 C3.07410156 6.26121094 3.08570313 7.08492187 3.09765625 7.93359375 C3 10 3 10 2 11 C0.00041636 11.04080783 -2.00045254 11.04254356 -4 11 C-4 9.68 -4 8.36 -4 7 C-4.99 7 -5.98 7 -7 7 C-7 5.35 -7 3.7 -7 2 C-5.02 2 -3.04 2 -1 2 C-0.67 1.34 -0.34 0.68 0 0 Z " fill="#2E2C2C" transform="translate(171,135)"/>
<path d="M0 0 C3.22497005 3.22497005 3.80776246 7.30830962 4.3125 11.75 C3.93481105 14.46936045 3.11799616 15.32325304 1 17 C0.01 16.67 -0.98 16.34 -2 16 C-2.05423638 14.08364783 -2.09289963 12.16685075 -2.125 10.25 C-2.14820312 9.18265625 -2.17140625 8.1153125 -2.1953125 7.015625 C-2.00487687 4.07529894 -1.52670104 2.47638122 0 0 Z " fill="#E9F7D5" transform="translate(95,141)"/>
<path d="M0 0 C0.66 0 1.32 0 2 0 C2.14695312 0.69867188 2.29390625 1.39734375 2.4453125 2.1171875 C3.12586437 4.87850714 3.82771194 7.40636635 5 10 C8.01773585 11.76097486 8.01773585 11.76097486 11 12 C11 12.99 11 13.98 11 15 C9.54176788 15.0270043 8.08339325 15.04639787 6.625 15.0625 C5.81289063 15.07410156 5.00078125 15.08570313 4.1640625 15.09765625 C2 15 2 15 0 14 C0 9.38 0 4.76 0 0 Z " fill="#242121" transform="translate(268,131)"/>
<path d="M0 0 C0.99 0.33 1.98 0.66 3 1 C3.66 0.67 4.32 0.34 5 0 C5 0.99 5 1.98 5 3 C5.66 3.33 6.32 3.66 7 4 C7 6.31 7 8.62 7 11 C7.99 11.33 8.98 11.66 10 12 C4.375 13.125 4.375 13.125 1 12 C1.33 9.69 1.66 7.38 2 5 C0.68 4.67 -0.64 4.34 -2 4 C-1.34 2.68 -0.68 1.36 0 0 Z " fill="#171514" transform="translate(184,133)"/>
<path d="M0 0 C1.2684375 0.12375 1.2684375 0.12375 2.5625 0.25 C5.24177341 4.26891012 4.71851248 6.49161923 4.5625 11.25 C3.9025 11.25 3.2425 11.25 2.5625 11.25 C2.2325 9.27 1.9025 7.29 1.5625 5.25 C1.2325 5.25 0.9025 5.25 0.5625 5.25 C0.2325 7.56 -0.0975 9.87 -0.4375 12.25 C-1.4275 12.25 -2.4175 12.25 -3.4375 12.25 C-3.46437279 10.43757948 -3.48383715 8.62504767 -3.5 6.8125 C-3.51160156 5.80316406 -3.52320313 4.79382813 -3.53515625 3.75390625 C-3.40495715 0.41560122 -3.30826428 0.33930916 0 0 Z " fill="#1B1818" transform="translate(230.4375,132.75)"/>
<path d="M0 0 C0.66 0 1.32 0 2 0 C2 4.95 2 9.9 2 15 C0.02 15 -1.96 15 -4 15 C-4 12.36 -4 9.72 -4 7 C-3.01 6.67 -2.02 6.34 -1 6 C-1.020625 5.195625 -1.04125 4.39125 -1.0625 3.5625 C-1 1 -1 1 0 0 Z M-1 8 C-1 9.65 -1 11.3 -1 13 C-0.67 13 -0.34 13 0 13 C0 11.35 0 9.7 0 8 C-0.33 8 -0.66 8 -1 8 Z " fill="#3C3A3A" transform="translate(114,129)"/>
<path d="M0 0 C0.66 0 1.32 0 2 0 C2.33 10.23 2.66 20.46 3 31 C2.01 31 1.02 31 0 31 C0 20.77 0 10.54 0 0 Z " fill="#080705" transform="translate(338,84)"/>
<path d="M0 0 C0.99 0.33 1.98 0.66 3 1 C3 6.61 3 12.22 3 18 C2.01 18 1.02 18 0 18 C0 12.06 0 6.12 0 0 Z " fill="#3A3838" transform="translate(305,127)"/>
<path d="M0 0 C2.33333333 0 4.66666667 0 7 0 C7.1875 2.375 7.1875 2.375 7 5 C6.01 5.66 5.02 6.32 4 7 C4 7.99 4 8.98 4 10 C2.68 10 1.36 10 0 10 C0 6.7 0 3.4 0 0 Z " fill="#312E2D" transform="translate(236,135)"/>
<path d="M0 0 C1.98 0 3.96 0 6 0 C7.06671952 3.20015856 6.94845472 4.88544294 6.5625 8.1875 C6.46066406 9.08855469 6.35882813 9.98960937 6.25390625 10.91796875 C6.12822266 11.94857422 6.12822266 11.94857422 6 13 C5.34 13 4.68 13 4 13 C3.51891725 11.58398286 3.04021859 10.16715563 2.5625 8.75 C2.29566406 7.96109375 2.02882812 7.1721875 1.75390625 6.359375 C1.08045292 4.25178012 0.50849405 2.15246027 0 0 Z " fill="#4A4948" transform="translate(138,131)"/>
<path d="M0 0 C0.66 0 1.32 0 2 0 C2.99 4.29 3.98 8.58 5 13 C5.33 10.69 5.66 8.38 6 6 C6.33 6 6.66 6 7 6 C7.33278764 12.81598387 7.24201565 17.92122066 4 24 C3.67 24 3.34 24 3 24 C2.91697632 23.12263184 2.91697632 23.12263184 2.83227539 22.22753906 C2.57882735 19.56804892 2.32071175 16.90903168 2.0625 14.25 C1.97548828 13.32960938 1.88847656 12.40921875 1.79882812 11.4609375 C1.71181641 10.57148437 1.62480469 9.68203125 1.53515625 8.765625 C1.456604 7.94868164 1.37805176 7.13173828 1.29711914 6.29003906 C1.01670988 4.12879099 0.57555495 2.09982687 0 0 Z " fill="#060504" transform="translate(376,75)"/>
<path d="M0 0 C0 0.99 0 1.98 0 3 C0.66 3.33 1.32 3.66 2 4 C1 5 1 5 -1.4375 5.125 C-4 5 -4 5 -6 4 C-6.825 4.185625 -7.65 4.37125 -8.5 4.5625 C-9.325 4.706875 -10.15 4.85125 -11 5 C-11.66 4.34 -12.32 3.68 -13 3 C-11.35 3 -9.7 3 -8 3 C-8.33 2.01 -8.66 1.02 -9 0 C-5.81119049 -1.59440475 -3.29102008 -0.90786761 0 0 Z " fill="#0F0D0D" transform="translate(322,141)"/>
<path d="M0 0 C0.33 0.66 0.66 1.32 1 2 C1.99 2 2.98 2 4 2 C4 2.99 4 3.98 4 5 C4.99 5.33 5.98 5.66 7 6 C2.23692563 6.95261487 -2.1666528 7.08333357 -7 7 C-6.01 6.67 -5.02 6.34 -4 6 C-4 4.68 -4 3.36 -4 2 C-2.68 2 -1.36 2 0 2 C0 1.34 0 0.68 0 0 Z " fill="#0D0C0C" transform="translate(244,139)"/>
<path d="M0 0 C2.44821444 1.91599391 2.99324823 2.97243029 3.75 6.0625 C4 9 4 9 3 11 C0.69 10.67 -1.62 10.34 -4 10 C-4 9.34 -4 8.68 -4 8 C-3.01 8 -2.02 8 -1 8 C-1.020625 7.05125 -1.04125 6.1025 -1.0625 5.125 C-1 2 -1 2 0 0 Z " fill="#242323" transform="translate(138,134)"/>
<path d="M0 0 C1.98 0 3.96 0 6 0 C6.125 7.625 6.125 7.625 5 11 C4.01 11 3.02 11 2 11 C2 8.36 2 5.72 2 3 C1.34 3 0.68 3 0 3 C0 2.01 0 1.02 0 0 Z " fill="#211918" transform="translate(189,133)"/>
<path d="M0 0 C0.99 0.33 1.98 0.66 3 1 C3 5.29 3 9.58 3 14 C1.35 14 -0.3 14 -2 14 C-2.05389087 12.04196493 -2.09274217 10.08351091 -2.125 8.125 C-2.14820313 7.03445312 -2.17140625 5.94390625 -2.1953125 4.8203125 C-2 2 -2 2 0 0 Z M0 2 C-1.25949049 3.03406673 -1.25949049 3.03406673 -1.09765625 5.28515625 C-1.08605469 6.20167969 -1.07445312 7.11820312 -1.0625 8.0625 C-1.05347656 8.98160156 -1.04445313 9.90070313 -1.03515625 10.84765625 C-1.02355469 11.55792969 -1.01195312 12.26820312 -1 13 C-0.34 13 0.32 13 1 13 C1 9.37 1 5.74 1 2 C0.67 2 0.34 2 0 2 Z " fill="#080606" transform="translate(411,102)"/>
<path d="M0 0 C0.99 0 1.98 0 3 0 C2.67 2.31 2.34 4.62 2 7 C0.68 7.33 -0.64 7.66 -2 8 C-2 9.98 -2 11.96 -2 14 C-2.66 13.67 -3.32 13.34 -4 13 C-4 10.69 -4 8.38 -4 6 C-2.68 5.34 -1.36 4.68 0 4 C0 2.68 0 1.36 0 0 Z " fill="#312F2E" transform="translate(162,129)"/>
<path d="M0 0 C1.98 0 3.96 0 6 0 C6 2.97 6 5.94 6 9 C5.34 9 4.68 9 4 9 C4 6.69 4 4.38 4 2 C3.34 2 2.68 2 2 2 C2 4.31 2 6.62 2 9 C1.34 9 0.68 9 0 9 C0 6.03 0 3.06 0 0 Z " fill="#2A2928" transform="translate(260,135)"/>
<path d="M0 0 C0.33 0.66 0.66 1.32 1 2 C-0.0725 2.391875 -1.145 2.78375 -2.25 3.1875 C-5.93565994 4.79158277 -7.9146319 6.47091552 -10 10 C-10.80222151 13.689748 -10.80222151 13.689748 -11 17 C-11.33 17 -11.66 17 -12 17 C-12.24500311 12.83494715 -12.36562188 9.12124044 -11.0625 5.125 C-7.95735752 1.9257623 -4.24285986 1.09407078 0 0 Z " fill="#0A0808" transform="translate(280,74)"/>
<path d="M0 0 C0.74507813 0.00902344 1.49015625 0.01804687 2.2578125 0.02734375 C4.08868059 0.05081642 5.91938238 0.08668475 7.75 0.125 C7.75 0.455 7.75 0.785 7.75 1.125 C6.32107422 1.16367188 6.32107422 1.16367188 4.86328125 1.203125 C3.60902344 1.25984375 2.35476563 1.3165625 1.0625 1.375 C-0.17886719 1.42140625 -1.42023438 1.4678125 -2.69921875 1.515625 C-6.69177046 2.20081539 -8.28969465 3.45805824 -11.25 6.125 C-11.91 6.125 -12.57 6.125 -13.25 6.125 C-13.25 7.445 -13.25 8.765 -13.25 10.125 C-13.91 9.795 -14.57 9.465 -15.25 9.125 C-12.81838906 2.55965046 -12.81838906 2.55965046 -10.65625 0.90625 C-7.12824071 -0.23920756 -3.66446486 -0.08416615 0 0 Z " fill="#0A0908" transform="translate(471.25,74.875)"/>
<path d="M0 0 C0.66 0 1.32 0 2 0 C2 1.65 2 3.3 2 5 C5.96 5 9.92 5 14 5 C14 5.66 14 6.32 14 7 C11.85423363 7.02685938 9.70837355 7.04633088 7.5625 7.0625 C6.36753906 7.07410156 5.17257812 7.08570312 3.94140625 7.09765625 C1 7 1 7 0 6 C-0.04080783 4.00041636 -0.04254356 1.99954746 0 0 Z " fill="#080706" transform="translate(301,117)"/>
<path d="M0 0 C0 0.99 0 1.98 0 3 C-4.455 4.485 -4.455 4.485 -9 6 C-9 5.67 -9 5.34 -9 5 C-10.98 4.34 -12.96 3.68 -15 3 C-15 2.67 -15 2.34 -15 2 C-14.16855469 1.93941406 -13.33710938 1.87882812 -12.48046875 1.81640625 C-10.85044922 1.69072266 -10.85044922 1.69072266 -9.1875 1.5625 C-8.10855469 1.48128906 -7.02960938 1.40007812 -5.91796875 1.31640625 C-2.94010095 1.09787539 -2.94010095 1.09787539 0 0 Z " fill="#090706" transform="translate(412,92)"/>
<path d="M0 0 C0.66 0.33 1.32 0.66 2 1 C1.01 1.33 0.02 1.66 -1 2 C-1 2.66 -1 3.32 -1 4 C0.32 4.33 1.64 4.66 3 5 C2.01 5 1.02 5 0 5 C0.350625 5.78375 0.70125 6.5675 1.0625 7.375 C1.371875 8.24125 1.68125 9.1075 2 10 C1.67 10.66 1.34 11.32 1 12 C2.32 12.33 3.64 12.66 5 13 C2.625 13.125 2.625 13.125 0 13 C-0.66 12.34 -1.32 11.68 -2 11 C-1.625 7.875 -1.625 7.875 -1 5 C-2.32 4.67 -3.64 4.34 -5 4 C-4.01 4 -3.02 4 -2 4 C-2 3.01 -2 2.02 -2 1 C-1.34 0.67 -0.68 0.34 0 0 Z " fill="#0D0C0C" transform="translate(298,133)"/>
<path d="M0 0 C0.99 0.33 1.98 0.66 3 1 C2.34 3.64 1.68 6.28 1 9 C0.34 9 -0.32 9 -1 9 C-1 9.66 -1 10.32 -1 11 C-0.34 11.33 0.32 11.66 1 12 C-0.65 12.33 -2.3 12.66 -4 13 C-4.33 12.34 -4.66 11.68 -5 11 C-4.34 11 -3.68 11 -3 11 C-3 9.68 -3 8.36 -3 7 C-2.01 7 -1.02 7 0 7 C0 4.69 0 2.38 0 0 Z " fill="#1C1515" transform="translate(135,133)"/>
<path d="M0 0 C1.32 0 2.64 0 4 0 C3.835 0.7425 3.67 1.485 3.5 2.25 C2.88074304 5.19006578 2.88074304 5.19006578 3 9 C1.35 9 -0.3 9 -2 9 C-1.41196203 5.97580475 -0.77321882 2.98241547 0 0 Z " fill="#2E2D2C" transform="translate(311,135)"/>
<path d="M0 0 C0.99 0 1.98 0 3 0 C3 2.97 3 5.94 3 9 C1.68 9 0.36 9 -1 9 C-1.09765625 2.84765625 -1.09765625 2.84765625 -1 1 C-0.67 0.67 -0.34 0.34 0 0 Z " fill="#3D3B3B" transform="translate(118,136)"/>
<path d="M0 0 C0.66 1.32 1.32 2.64 2 4 C2.99 4 3.98 4 5 4 C5 6.64 5 9.28 5 12 C4.34 11.67 3.68 11.34 3 11 C2.01 11.33 1.02 11.66 0 12 C0 8.04 0 4.08 0 0 Z " fill="#121111" transform="translate(197,130)"/>
<path d="M0 0 C0.66 0 1.32 0 2 0 C2.33 1.32 2.66 2.64 3 4 C3.99 4 4.98 4 6 4 C6 4.66 6 5.32 6 6 C6.66 6.33 7.32 6.66 8 7 C8 8.32 8 9.64 8 11 C7.01 11.495 7.01 11.495 6 12 C4 11 4 11 2 8 C1.18220159 5.35982365 0.6190511 2.69729409 0 0 Z " fill="#100E0D" transform="translate(269,130)"/>
<path d="M0 0 C1.32 0.33 2.64 0.66 4 1 C3.67 1.66 3.34 2.32 3 3 C3.99 3.66 4.98 4.32 6 5 C6 6.32 6 7.64 6 9 C5.01 9 4.02 9 3 9 C3 8.01 3 7.02 3 6 C2.01 5.67 1.02 5.34 0 5 C0 3.35 0 1.7 0 0 Z " fill="#2B2929" transform="translate(245,135)"/>
<path d="M0 0 C0.99 0 1.98 0 3 0 C5.67927341 4.01891012 5.15601248 6.24161923 5 11 C4.34 11 3.68 11 3 11 C2.87625 10.030625 2.7525 9.06125 2.625 8.0625 C2.41875 7.051875 2.2125 6.04125 2 5 C1.34 4.67 0.68 4.34 0 4 C0 2.68 0 1.36 0 0 Z " fill="#302D2C" transform="translate(230,133)"/>
<path d="M0 0 C0.66 0.33 1.32 0.66 2 1 C2 4.63 2 8.26 2 12 C0.35 12 -1.3 12 -3 12 C-2.34 10.35 -1.68 8.7 -1 7 C-0.34 7 0.32 7 1 7 C0.67 4.69 0.34 2.38 0 0 Z " fill="#201D1D" transform="translate(302,133)"/>
<path d="M0 0 C1.32 0.33 2.64 0.66 4 1 C3.67 3.64 3.34 6.28 3 9 C2.01 9 1.02 9 0 9 C0 6.03 0 3.06 0 0 Z " fill="#323131" transform="translate(255,135)"/>
<path d="M0 0 C0.99 0.33 1.98 0.66 3 1 C3.66 0.67 4.32 0.34 5 0 C5 0.99 5 1.98 5 3 C5.66 3.33 6.32 3.66 7 4 C6.67 5.65 6.34 7.3 6 9 C5.67 9 5.34 9 5 9 C4.67 7.35 4.34 5.7 4 4 C2.02 4.33 0.04 4.66 -2 5 C-1.34 3.35 -0.68 1.7 0 0 Z " fill="#0C0909" transform="translate(184,133)"/>
<path d="M0 0 C0.66 0 1.32 0 2 0 C1.34 3.63 0.68 7.26 0 11 C-0.99 10.34 -1.98 9.68 -3 9 C-2.44271087 5.65626525 -1.64826111 2.96687001 0 0 Z " fill="#302E2D" transform="translate(148,133)"/>
<path d="M0 0 C1.32 0 2.64 0 4 0 C4.38218767 1.65614657 4.71395102 3.32457024 5 5 C4 6 4 6 0.9375 6.0625 C-0.5165625 6.0315625 -0.5165625 6.0315625 -2 6 C-1.67 5.38125 -1.34 4.7625 -1 4.125 C0.14193235 2.08981656 0.14193235 2.08981656 0 0 Z " fill="#1D1918" transform="translate(169,140)"/>
<path d="M0 0 C1.32 0 2.64 0 4 0 C4 2.31 4 4.62 4 7 C2.68 7 1.36 7 0 7 C0 6.34 0 5.68 0 5 C0.66 5 1.32 5 2 5 C2 4.34 2 3.68 2 3 C1.34 3 0.68 3 0 3 C0 2.01 0 1.02 0 0 Z " fill="#2F2C2B" transform="translate(275,133)"/>
<path d="M0 0 C0.66 0 1.32 0 2 0 C3.4783226 2.95664519 3.06032783 5.74229737 3 9 C2.01 9 1.02 9 0 9 C0 6.03 0 3.06 0 0 Z " fill="#433F3F" transform="translate(290,135)"/>
<path d="M0 0 C0.99 0 1.98 0 3 0 C3 0.66 3 1.32 3 2 C4.65 2.33 6.3 2.66 8 3 C7.34 3.66 6.68 4.32 6 5 C2.875 4.625 2.875 4.625 0 4 C0 2.68 0 1.36 0 0 Z " fill="#11100F" transform="translate(121,141)"/>
<path d="M0 0 C0.66 0 1.32 0 2 0 C2 2.64 2 5.28 2 8 C1.01 8.33 0.02 8.66 -1 9 C-1.66 8.67 -2.32 8.34 -3 8 C-3 7.34 -3 6.68 -3 6 C-2.01 6 -1.02 6 0 6 C0 4.02 0 2.04 0 0 Z " fill="#3E3D3D" transform="translate(137,136)"/>
<path d="M0 0 C1.32 0 2.64 0 4 0 C4 0.66 4 1.32 4 2 C3.34 2 2.68 2 2 2 C1.67 3.98 1.34 5.96 1 8 C-0.32 8 -1.64 8 -3 8 C-3 7.01 -3 6.02 -3 5 C-2.34 4.67 -1.68 4.34 -1 4 C-0.34786708 1.97536745 -0.34786708 1.97536745 0 0 Z " fill="#161514" transform="translate(127,133)"/>
<path d="M0 0 C0.99 0 1.98 0 3 0 C3 2.64 3 5.28 3 8 C2.01 8.495 2.01 8.495 1 9 C0.67 6.03 0.34 3.06 0 0 Z " fill="#333131" transform="translate(203,134)"/>
<path d="M0 0 C1.98 0.66 3.96 1.32 6 2 C6 2.99 6 3.98 6 5 C4.35 4.67 2.7 4.34 1 4 C0.67 2.68 0.34 1.36 0 0 Z " fill="#2C2A29" transform="translate(273,141)"/>
<path d="M0 0 C0.99 0.33 1.98 0.66 3 1 C3 2.32 3 3.64 3 5 C1.35 5 -0.3 5 -2 5 C-2 4.34 -2 3.68 -2 3 C-2.99 2.67 -3.98 2.34 -5 2 C-3.68 2 -2.36 2 -1 2 C-0.67 1.34 -0.34 0.68 0 0 Z " fill="#343232" transform="translate(171,135)"/>
<path d="M0 0 C2.97 0.495 2.97 0.495 6 1 C5.67 1.66 5.34 2.32 5 3 C4.34 2.67 3.68 2.34 3 2 C2.67 2.99 2.34 3.98 2 5 C0.68 4.67 -0.64 4.34 -2 4 C-2 3.34 -2 2.68 -2 2 C-1.34 2 -0.68 2 0 2 C0 1.34 0 0.68 0 0 Z " fill="#201F1F" transform="translate(168,133)"/>
<path d="M0 0 C0.33 0.99 0.66 1.98 1 3 C3.50447516 4.21869929 3.50447516 4.21869929 6 5 C6 6.32 6 7.64 6 9 C5.34 9 4.68 9 4 9 C4 8.01 4 7.02 4 6 C2.68 5.67 1.36 5.34 0 5 C0 3.35 0 1.7 0 0 Z " fill="#2C2A2A" transform="translate(318,135)"/>
<path d="M0 0 C0.99 0 1.98 0 3 0 C4.25 6.625 4.25 6.625 2 10 C2 7.69 2 5.38 2 3 C1.34 3 0.68 3 0 3 C0 2.01 0 1.02 0 0 Z " fill="#353332" transform="translate(189,133)"/>
<path d="M0 0 C0.33 0.99 0.66 1.98 1 3 C1.66 3.33 2.32 3.66 3 4 C2 5 2 5 -0.5625 5.0625 C-1.7690625 5.0315625 -1.7690625 5.0315625 -3 5 C-3 3.68 -3 2.36 -3 1 C-2.01 0.67 -1.02 0.34 0 0 Z " fill="#1A1817" transform="translate(321,141)"/>
<path d="M0 0 C0.66 0 1.32 0 2 0 C2 3.3 2 6.6 2 10 C1.34 9.67 0.68 9.34 0 9 C-1.28571429 2.57142857 -1.28571429 2.57142857 0 0 Z " fill="#2F2C2C" transform="translate(114,134)"/>
<path d="M0 0 C0.66 0 1.32 0 2 0 C2.33 2.64 2.66 5.28 3 8 C2.01 8 1.02 8 0 8 C0.33 6.35 0.66 4.7 1 3 C0.34 3 -0.32 3 -1 3 C-0.67 2.01 -0.34 1.02 0 0 Z " fill="#313030" transform="translate(285,133)"/>
<path d="M0 0 C2.96175123 0.61277612 4.38058783 1.25372522 7 3 C5.02 3.33 3.04 3.66 1 4 C0.67 2.68 0.34 1.36 0 0 Z " fill="#171514" transform="translate(244,142)"/>
<path d="M0 0 C1.65 0 3.3 0 5 0 C5 0.66 5 1.32 5 2 C4.01 2.495 4.01 2.495 3 3 C4.32 3.66 5.64 4.32 7 5 C4.625 5.125 4.625 5.125 2 5 C1.34 4.34 0.68 3.68 0 3 C0 2.01 0 1.02 0 0 Z " fill="#100A0A" transform="translate(178,141)"/>
<path d="M0 0 C0.33 0 0.66 0 1 0 C1.33 2.97 1.66 5.94 2 9 C1.01 9 0.02 9 -1 9 C-1.125 2.25 -1.125 2.25 0 0 Z " fill="#31302F" transform="translate(306,136)"/>
<path d="M0 0 C1.67542976 0.28604898 3.34385343 0.61781233 5 1 C5 1.99 5 2.98 5 4 C3.68 4 2.36 4 1 4 C1 3.34 1 2.68 1 2 C0.34 1.67 -0.32 1.34 -1 1 C-0.67 0.67 -0.34 0.34 0 0 Z " fill="#292827" transform="translate(291,133)"/>
<path d="M0 0 C0.33 0 0.66 0 1 0 C1 3.63 1 7.26 1 11 C0.01 11 -0.98 11 -2 11 C-1.34 7.37 -0.68 3.74 0 0 Z " fill="#171515" transform="translate(225,134)"/>
<path d="M0 0 C0.99 0 1.98 0 3 0 C3 2.31 3 4.62 3 7 C2.34 7 1.68 7 1 7 C0.67 4.69 0.34 2.38 0 0 Z " fill="#353433" transform="translate(222,133)"/>
</svg>
